<svg width="801" height="440" viewBox="0 0 801 440" fill="none" xmlns="http://www.w3.org/2000/svg">
<path d="M400.75 435.501H399.75V432.501H400.75V435.501Z" fill="#2F529E"/>
<path d="M400.75 429.501H399.75V426.501H400.75V429.501Z" fill="#2F529E"/>
<path d="M400.75 423.501H399.75V420.501H400.75V423.501Z" fill="#2F529E"/>
<path d="M400.75 417.501H399.75V414.501H400.75V417.501Z" fill="#2F529E"/>
<path d="M400.75 411.501H399.75V408.501H400.75V411.501Z" fill="#2F529E"/>
<path d="M400.75 405.501H399.75V402.501H400.75V405.501Z" fill="#2F529E"/>
<path d="M400.75 399.501H399.75V396.501H400.75V399.501Z" fill="#2F529E"/>
<path d="M400.75 393.501H399.75V390.501H400.75V393.501Z" fill="#2F529E"/>
<path d="M400.75 387.501H399.75V384.501H400.75V387.501Z" fill="#2F529E"/>
<path d="M400.75 381.501H399.75V378.501H400.75V381.501Z" fill="#2F529E"/>
<path d="M400.75 375.501H399.75V372.501H400.75V375.501Z" fill="#2F529E"/>
<path d="M135.497 137.002C113.848 137.266 93.1405 146.029 77.8115 161.45C62.2454 177.11 53.5001 198.351 53.5 220.499C53.5001 242.647 62.2454 263.888 77.8115 279.548C93.1405 294.969 113.848 303.732 135.497 303.996V304.999C113.581 304.735 92.6187 295.862 77.1025 280.253C61.3495 264.405 52.5001 242.91 52.5 220.499C52.5001 198.088 61.3494 176.593 77.1025 160.745C92.6187 145.136 113.581 136.264 135.497 136V137.002Z" fill="#2F529E"/>
<path d="M9.4082 220.5H6.44531V219.5H9.4082V220.5Z" fill="#2F529E"/>
<path d="M15.3359 220.5H12.3721V219.5H15.3359V220.5Z" fill="#2F529E"/>
<path d="M21.2627 220.5H18.2988V219.5H21.2627V220.5Z" fill="#2F529E"/>
<path d="M27.1895 220.5H24.2256V219.5H27.1895V220.5Z" fill="#2F529E"/>
<path d="M33.1162 220.5H30.1523V219.5H33.1162V220.5Z" fill="#2F529E"/>
<path d="M39.043 220.5H36.0801V219.5H39.043V220.5Z" fill="#2F529E"/>
<path d="M44.9697 220.5H42.0068V219.5H44.9697V220.5Z" fill="#2F529E"/>
<path fill-rule="evenodd" clip-rule="evenodd" d="M26 195C39.8071 195 51 206.193 51 220C51 233.807 39.8071 245 26 245C12.1929 245 1 233.807 1 220C1 206.193 12.1929 195 26 195ZM26 196C12.9122 196 2.27204 206.476 2.00586 219.5H3.48145V220.5H2.00586C2.27204 233.524 12.9122 244 26 244C39.0878 244 49.728 233.524 49.9941 220.5H47.9336V219.5H49.9941C49.728 206.476 39.0878 196 26 196Z" fill="#2F529E"/>
<path d="M56.8242 220.5H53.8604V219.5H56.8242V220.5Z" fill="#2F529E"/>
<path d="M62.751 220.5H59.7871V219.5H62.751V220.5Z" fill="#2F529E"/>
<path d="M68.6777 220.5H65.7139V219.5H68.6777V220.5Z" fill="#2F529E"/>
<path d="M74.6045 220.5H71.6406V219.5H74.6045V220.5Z" fill="#2F529E"/>
<path d="M80.5312 220.5H77.5684V219.5H80.5312V220.5Z" fill="#2F529E"/>
<path d="M86.458 220.5H83.4951V219.5H86.458V220.5Z" fill="#2F529E"/>
<path d="M666 136C687.916 136.264 708.878 145.136 724.395 160.745C740.148 176.593 748.997 198.088 748.997 220.499C748.997 242.91 740.148 264.405 724.395 280.253C708.878 295.862 687.916 304.735 666 304.999V303.996C687.649 303.732 708.357 294.969 723.686 279.548C739.252 263.888 747.997 242.647 747.997 220.499C747.997 198.351 739.252 177.11 723.686 161.45C708.357 146.029 687.649 137.266 666 137.002V136Z" fill="#2F529E"/>
<path d="M758.993 219.5V220.5H756.03V219.5H758.993Z" fill="#2F529E"/>
<path d="M764.92 219.5V220.5H761.957V219.5H764.92Z" fill="#2F529E"/>
<path d="M770.848 219.5V220.5H767.884V219.5H770.848Z" fill="#2F529E"/>
<path d="M776.774 219.5V220.5H773.811V219.5H776.774Z" fill="#2F529E"/>
<path d="M782.701 219.5V220.5H779.737V219.5H782.701Z" fill="#2F529E"/>
<path d="M788.628 219.5V220.5H785.664V219.5H788.628Z" fill="#2F529E"/>
<path d="M794.555 219.5V220.5H791.592V219.5H794.555Z" fill="#2F529E"/>
<path fill-rule="evenodd" clip-rule="evenodd" d="M775 195C788.807 195 800 206.193 800 220C800 233.807 788.807 245 775 245C761.193 245 750 233.807 750 220C750 206.193 761.193 195 775 195ZM775 196C761.912 196 751.272 206.476 751.006 219.5H753.066V220.5H751.006C751.272 233.524 761.912 244 775 244C788.088 244 798.728 233.524 798.994 220.5H797.519V219.5H798.994C798.728 206.476 788.088 196 775 196Z" fill="#2F529E"/>
<path d="M717.505 219.5V220.5H714.542V219.5H717.505Z" fill="#2F529E"/>
<path d="M723.432 219.5V220.5H720.469V219.5H723.432Z" fill="#2F529E"/>
<path d="M729.359 219.5V220.5H726.396V219.5H729.359Z" fill="#2F529E"/>
<path d="M735.286 219.5V220.5H732.322V219.5H735.286Z" fill="#2F529E"/>
<path d="M741.213 219.5V220.5H738.249V219.5H741.213Z" fill="#2F529E"/>
<path d="M747.14 219.5V220.5H744.176V219.5H747.14Z" fill="#2F529E"/>
<path d="M187.216 220.5H184.252V219.5H187.216V220.5Z" fill="#2F529E"/>
<path d="M193.143 220.5H190.179V219.5H193.143V220.5Z" fill="#2F529E"/>
<path d="M199.069 220.5H196.106V219.5H199.069V220.5Z" fill="#2F529E"/>
<path d="M204.996 220.5H202.033V219.5H204.996V220.5Z" fill="#2F529E"/>
<path d="M210.923 220.5H207.96V219.5H210.923V220.5Z" fill="#2F529E"/>
<path d="M216.851 220.5H213.887V219.5H216.851V220.5Z" fill="#2F529E"/>
<path d="M222.777 220.5H219.813V219.5H222.777V220.5Z" fill="#2F529E"/>
<path d="M228.704 220.5H225.74V219.5H228.704V220.5Z" fill="#2F529E"/>
<path d="M234.631 220.5H231.667V219.5H234.631V220.5Z" fill="#2F529E"/>
<path d="M240.558 220.5H237.595V219.5H240.558V220.5Z" fill="#2F529E"/>
<path d="M563.405 219.5V220.5H560.442V219.5H563.405Z" fill="#2F529E"/>
<path d="M569.333 219.5V220.5H566.369V219.5H569.333Z" fill="#2F529E"/>
<path d="M575.26 219.5V220.5H572.296V219.5H575.26Z" fill="#2F529E"/>
<path d="M581.187 219.5V220.5H578.223V219.5H581.187Z" fill="#2F529E"/>
<path d="M587.113 219.5V220.5H584.149V219.5H587.113Z" fill="#2F529E"/>
<path d="M593.04 219.5V220.5H590.077V219.5H593.04Z" fill="#2F529E"/>
<path d="M598.967 219.5V220.5H596.004V219.5H598.967Z" fill="#2F529E"/>
<path d="M604.894 219.5V220.5H601.931V219.5H604.894Z" fill="#2F529E"/>
<path d="M610.821 219.5V220.5H607.857V219.5H610.821Z" fill="#2F529E"/>
<path d="M616.748 219.5V220.5H613.784V219.5H616.748Z" fill="#2F529E"/>
<path d="M400.75 363.5H399.75V360.5H400.75V363.5Z" fill="#2F529E"/>
<path d="M400.75 357.5H399.75V354.5H400.75V357.5Z" fill="#2F529E"/>
<path d="M400.75 351.5H399.75V348.5H400.75V351.5Z" fill="#2F529E"/>
<path d="M400.75 345.5H399.75V342.5H400.75V345.5Z" fill="#2F529E"/>
<path d="M400.75 339.5H399.75V336.5H400.75V339.5Z" fill="#2F529E"/>
<path d="M400.75 333.5H399.75V330.5H400.75V333.5Z" fill="#2F529E"/>
<path d="M400.75 327.5H399.75V324.5H400.75V327.5Z" fill="#2F529E"/>
<path d="M400.75 321.5H399.75V318.5H400.75V321.5Z" fill="#2F529E"/>
<path d="M400.75 315.5H399.75V312.5H400.75V315.5Z" fill="#2F529E"/>
<path d="M400.75 309.5H399.75V306.5H400.75V309.5Z" fill="#2F529E"/>
<path d="M400.75 303.5H399.75V300.5H400.75V303.5Z" fill="#2F529E"/>
<path d="M400.75 297.5H399.75V294.5H400.75V297.5Z" fill="#2F529E"/>
<path d="M400.75 291.5H399.75V288.5H400.75V291.5Z" fill="#2F529E"/>
<path d="M400.75 285.5H399.75V282.5H400.75V285.5Z" fill="#2F529E"/>
<path d="M400.75 279.5H399.75V276.5H400.75V279.5Z" fill="#2F529E"/>
<path d="M400.75 273.5H399.75V270.5H400.75V273.5Z" fill="#2F529E"/>
<path d="M400.75 267.5H399.75V264.5H400.75V267.5Z" fill="#2F529E"/>
<path d="M400.75 261.5H399.75V260H400.75V261.5Z" fill="#2F529E"/>
<path d="M400.5 214C403.538 214 406 216.462 406 219.5C406 222.538 403.538 225 400.5 225C397.462 225 395 222.538 395 219.5C395 216.462 397.462 214 400.5 214Z" fill="#2F529E"/>
<path fill-rule="evenodd" clip-rule="evenodd" d="M400.75 180.001H400.079C422.134 180.044 440 197.935 440 220C440 242.091 422.091 260 400 260C377.909 260 360 242.091 360 220C360 197.935 377.866 180.044 399.921 180.001H399.75V178.501H400.75V180.001ZM400 181C378.461 181 361 198.461 361 220C361 241.539 378.461 259 400 259C421.539 259 439 241.539 439 220C439 198.461 421.539 181 400 181Z" fill="#2F529E"/>
<path d="M400.75 175.501H399.75V172.501H400.75V175.501Z" fill="#2F529E"/>
<path d="M400.75 169.501H399.75V166.501H400.75V169.501Z" fill="#2F529E"/>
<path d="M400.75 163.501H399.75V160.501H400.75V163.501Z" fill="#2F529E"/>
<path d="M400.75 157.501H399.75V154.501H400.75V157.501Z" fill="#2F529E"/>
<path d="M400.75 151.501H399.75V148.501H400.75V151.501Z" fill="#2F529E"/>
<path d="M400.75 145.501H399.75V142.501H400.75V145.501Z" fill="#2F529E"/>
<path d="M400.75 139.501H399.75V136.501H400.75V139.501Z" fill="#2F529E"/>
<path d="M400.75 133.501H399.75V130.501H400.75V133.501Z" fill="#2F529E"/>
<path d="M400.75 127.501H399.75V124.501H400.75V127.501Z" fill="#2F529E"/>
<path d="M400.75 121.501H399.75V118.501H400.75V121.501Z" fill="#2F529E"/>
<path d="M400.75 115.501H399.75V112.501H400.75V115.501Z" fill="#2F529E"/>
<path d="M400.75 109.5H399.75V106.5H400.75V109.5Z" fill="#2F529E"/>
<path d="M400.75 103.5H399.75V100.5H400.75V103.5Z" fill="#2F529E"/>
<path d="M400.75 97.5H399.75V94.5H400.75V97.5Z" fill="#2F529E"/>
<path d="M400.75 91.5H399.75V88.5H400.75V91.5Z" fill="#2F529E"/>
<path d="M400.75 85.5H399.75V82.5H400.75V85.5Z" fill="#2F529E"/>
<path d="M400.75 79.5H399.75V76.5H400.75V79.5Z" fill="#2F529E"/>
<path d="M134.5 214C137.538 214 140 216.462 140 219.5C140 222.538 137.538 225 134.5 225C131.462 225 129 222.538 129 219.5C129 216.462 131.462 214 134.5 214Z" fill="#2F529E"/>
<path d="M98.3125 220.5H95.3486V219.5H98.3125V220.5Z" fill="#2F529E"/>
<path d="M104.239 220.5H101.275V219.5H104.239V220.5Z" fill="#2F529E"/>
<path d="M110.166 220.5H107.202V219.5H110.166V220.5Z" fill="#2F529E"/>
<path d="M116.093 220.5H113.129V219.5H116.093V220.5Z" fill="#2F529E"/>
<path d="M122.02 220.5H119.057V219.5H122.02V220.5Z" fill="#2F529E"/>
<path d="M127.946 220.5H124.983V219.5H127.946V220.5Z" fill="#2F529E"/>
<path d="M145.728 220.5H142.764V219.5H145.728V220.5Z" fill="#2F529E"/>
<path d="M151.654 220.5H148.69V219.5H151.654V220.5Z" fill="#2F529E"/>
<path d="M157.581 220.5H154.617V219.5H157.581V220.5Z" fill="#2F529E"/>
<path d="M163.508 220.5H160.545V219.5H163.508V220.5Z" fill="#2F529E"/>
<path d="M169.435 220.5H166.472V219.5H169.435V220.5Z" fill="#2F529E"/>
<path d="M175.361 220.5H172.398V219.5H175.361V220.5Z" fill="#2F529E"/>
<path d="M666.5 214C669.538 214 672 216.462 672 219.5C672 222.538 669.538 225 666.5 225C663.462 225 661 222.538 661 219.5C661 216.462 663.462 214 666.5 214Z" fill="#2F529E"/>
<path d="M628.602 219.5V220.5H625.639V219.5H628.602Z" fill="#2F529E"/>
<path d="M634.528 219.5V220.5H631.565V219.5H634.528Z" fill="#2F529E"/>
<path d="M640.455 219.5V220.5H637.492V219.5H640.455Z" fill="#2F529E"/>
<path d="M646.383 219.5V220.5H643.419V219.5H646.383Z" fill="#2F529E"/>
<path d="M652.31 219.5V220.5H649.346V219.5H652.31Z" fill="#2F529E"/>
<path d="M658.236 219.5V220.5H655.272V219.5H658.236Z" fill="#2F529E"/>
<path d="M676.017 219.5V220.5H673.054V219.5H676.017Z" fill="#2F529E"/>
<path d="M681.943 219.5V220.5H678.98V219.5H681.943Z" fill="#2F529E"/>
<path d="M687.871 219.5V220.5H684.907V219.5H687.871Z" fill="#2F529E"/>
<path d="M693.798 219.5V220.5H690.834V219.5H693.798Z" fill="#2F529E"/>
<path d="M699.725 219.5V220.5H696.761V219.5H699.725Z" fill="#2F529E"/>
<path d="M705.651 219.5V220.5H702.688V219.5H705.651Z" fill="#2F529E"/>
<path d="M400.75 67.5H399.75V64.5H400.75V67.5Z" fill="#2F529E"/>
<path d="M400.75 61.5H399.75V58.5H400.75V61.5Z" fill="#2F529E"/>
<path d="M400.75 55.5H399.75V52.5H400.75V55.5Z" fill="#2F529E"/>
<path d="M400.75 49.5H399.75V46.5H400.75V49.5Z" fill="#2F529E"/>
<path d="M400.75 43.5H399.75V40.5H400.75V43.5Z" fill="#2F529E"/>
<path d="M400.75 37.5H399.75V34.5H400.75V37.5Z" fill="#2F529E"/>
<path d="M400.75 31.5H399.75V28.5H400.75V31.5Z" fill="#2F529E"/>
<path d="M400.75 25.5H399.75V22.5H400.75V25.5Z" fill="#2F529E"/>
<path d="M400.75 19.5H399.75V16.5H400.75V19.5Z" fill="#2F529E"/>
<path d="M400.75 13.5H399.75V10.5H400.75V13.5Z" fill="#2F529E"/>
<path d="M400.75 7.5H399.75V4.5H400.75V7.5Z" fill="#2F529E"/>
<path fill-rule="evenodd" clip-rule="evenodd" d="M400.75 0.00195312C456.802 0.189012 507.916 21.3375 546.665 56.0186C569.325 45.7303 594.493 40 621 40C720.411 40 801 120.589 801 220C801 319.411 720.411 400 621 400C594.493 400 569.325 394.269 546.665 383.98C507.916 418.662 456.802 439.81 400.75 439.997V440.001H399.75V439.999C343.664 439.937 292.493 418.887 253.669 384.28C231.182 394.38 206.248 400 180 400C80.5887 400 0 319.411 0 220C0 120.589 80.5887 40 180 40C206.248 40 231.182 45.6196 253.669 55.7188C292.493 21.1123 343.664 0.0623783 399.75 0H400.75V0.00195312ZM488.108 341.406C463.37 359.391 432.925 370 400 370C367.341 370 337.122 359.561 312.492 341.84C296.313 359.425 276.679 373.779 254.665 383.828C293.272 418.102 344.078 438.937 399.75 438.999V438.501H400.75V438.997C456.389 438.811 507.141 417.876 545.674 383.525C523.747 373.408 504.202 359.012 488.108 341.406ZM180 41C81.141 41 1 121.141 1 220C1 318.859 81.141 399 180 399C205.944 399 230.597 393.477 252.853 383.548C208.239 343.382 180.146 285.223 180.002 220.5H179.994C179.726 245.122 159.686 265 135 265C110.314 265 90.2739 245.122 90.0059 220.5H89.4219V219.5H90.0059C90.2739 194.878 110.314 175 135 175C159.686 175 179.726 194.878 179.994 219.5H180.002C180.146 154.776 208.238 96.6172 252.853 56.4512C230.597 46.5226 205.944 41 180 41ZM621 41C594.796 41 569.907 46.6314 547.477 56.749C591.899 96.9045 619.854 154.936 619.998 219.5H621.006C621.274 194.878 641.314 175 666 175C690.686 175 710.726 194.878 710.994 219.5H711.578V220.5H710.994C710.726 245.122 690.686 265 666 265C641.314 265 621.274 245.122 621.006 220.5H619.998C619.854 285.064 591.899 343.095 547.477 383.25C569.907 393.368 594.795 399 621 399C719.859 399 800 318.859 800 220C800 121.141 719.859 41 621 41ZM253.852 56.8975C209.249 96.8905 181.146 154.912 181.002 219.5H181.289V220.5H181.002C181.146 285.088 209.249 343.109 253.852 383.102C275.868 373.117 295.503 358.804 311.675 341.251C275.542 314.885 251.643 272.758 250.084 224.982C247.281 224.773 245.064 222.463 245.003 219.621V220.5H243.521V219.5H245C245 216.591 247.259 214.21 250.118 214.014C251.977 166.651 275.795 124.93 311.675 98.748C295.503 81.1951 275.868 66.8822 253.852 56.8975ZM546.486 57.2021C524.555 67.2567 505.006 81.6112 488.92 99.1885C524.473 125.4 548.04 166.927 549.882 214.035C550.085 214.012 550.291 214 550.5 214C553.538 214 556 216.462 556 219.5H557.479V220.5H555.997V219.621C555.933 222.603 553.497 225 550.5 225C550.303 225 550.108 224.989 549.916 224.969C548.369 272.487 524.723 314.414 488.92 340.811C505.006 358.388 524.555 372.742 546.486 382.797C591.007 342.711 619 284.625 619 220C619 155.375 591.007 97.2883 546.486 57.2021ZM399.75 71.001C367.448 71.054 337.558 81.3861 313.174 98.9004C342.266 130.874 360 173.366 360 220C360 266.634 342.266 309.125 313.174 341.099C337.558 358.613 367.448 368.945 399.75 368.998V366.5H400.75V368.995C433.128 368.836 463.062 358.35 487.432 340.661C458.575 308.738 441 266.422 441 220C441 173.578 458.575 131.262 487.432 99.3379C463.063 81.6495 433.128 71.1635 400.75 71.0039V73.5H399.75V71.001ZM312.356 99.4893C276.668 125.489 252.972 166.956 251.118 214.035C253.865 214.342 256 216.671 256 219.5C256 222.34 253.847 224.677 251.084 224.969C252.64 272.459 276.417 314.327 312.356 340.51C341.332 308.704 359 266.416 359 220C359 173.584 341.332 131.295 312.356 99.4893ZM488.242 99.9316C459.505 131.687 442 173.799 442 220C442 266.201 459.505 308.312 488.242 340.067C523.896 313.82 547.435 272.076 548.922 224.769C546.654 224.09 545 221.989 545 219.5C545 217.023 546.638 214.928 548.89 214.239C547.107 167.34 523.647 125.995 488.242 99.9316ZM135 176C110.866 176 91.2749 195.43 91.0068 219.5H92.3848V220.5H91.0068C91.2749 244.57 110.866 264 135 264C159.134 264 178.725 244.57 178.993 220.5H178.325V219.5H178.993C178.725 195.43 159.134 176 135 176ZM666 176C641.866 176 622.275 195.43 622.007 219.5H622.675V220.5H622.007C622.275 244.57 641.866 264 666 264C690.134 264 709.725 244.57 709.993 220.5H708.615V219.5H709.993C709.725 195.43 690.134 176 666 176ZM399.75 1C344.078 1.0622 293.272 21.8971 254.665 56.1709C276.679 66.2198 296.313 80.5746 312.492 98.1592C337.122 80.4386 367.341 70 400 70C432.924 70 463.37 80.6087 488.108 98.5928C504.202 80.9868 523.747 66.5905 545.674 56.4736C507.141 22.1231 456.389 1.18849 400.75 1.00195V1.5H399.75V1Z" fill="#2F529E"/>
</svg>
