<svg width="40" height="40" viewBox="0 0 40 40" fill="none" xmlns="http://www.w3.org/2000/svg">
<path d="M25.1768 29.1768L20 34.3535L14.8232 29.1768L15.1768 28.8232L20 33.6465L24.8232 28.8232L25.1768 29.1768Z" fill="#C4C4C4"/>
<path fill-rule="evenodd" clip-rule="evenodd" d="M27.1426 20L20.0713 27.0713L13 20L20.0713 12.9287L27.1426 20ZM13.707 20L20.0713 26.3643L26.4346 20L20.0713 13.6357L13.707 20Z" fill="#C4C4C4"/>
<path d="M11.1768 15.1768L6.35352 20L11.1768 24.8232L10.8232 25.1768L5.64648 20L10.8232 14.8232L11.1768 15.1768Z" fill="#C4C4C4"/>
<path d="M34.3535 20L29.1768 25.1768L28.8232 24.8232L33.6465 20L28.8232 15.1768L29.1768 14.8232L34.3535 20Z" fill="#C4C4C4"/>
<path d="M25.1768 10.8232L24.8232 11.1768L20 6.35352L15.1768 11.1768L14.8232 10.8232L20 5.64648L25.1768 10.8232Z" fill="#C4C4C4"/>
<path fill-rule="evenodd" clip-rule="evenodd" d="M20 0C31.0457 0 40 8.9543 40 20C40 31.0457 31.0457 40 20 40C8.9543 40 0 31.0457 0 20C0 8.9543 8.9543 0 20 0ZM20 0.5C9.23045 0.5 0.5 9.23045 0.5 20C0.5 30.7696 9.23045 39.5 20 39.5C30.7696 39.5 39.5 30.7696 39.5 20C39.5 9.23045 30.7696 0.5 20 0.5Z" fill="#C4C4C4"/>
</svg>
