<svg width="966" height="690" viewBox="0 0 966 690" fill="none" xmlns="http://www.w3.org/2000/svg">
<path d="M595.707 372.707L513.707 454.707L512.293 453.293L594.293 371.293L595.707 372.707Z" fill="#2F529E"/>
<path d="M729.707 453.293L728.293 454.707L646.293 372.707L647.707 371.293L729.707 453.293Z" fill="#2F529E"/>
<path d="M595.707 311.293L594.293 312.707L512.293 230.707L513.707 229.293L595.707 311.293Z" fill="#2F529E"/>
<path d="M729.707 230.707L647.707 312.707L646.293 311.293L728.293 229.293L729.707 230.707Z" fill="#2F529E"/>
<path fill-rule="evenodd" clip-rule="evenodd" d="M621 0C811.538 0 966 154.462 966 345C966 535.538 811.538 690 621 690C430.462 690 276 535.538 276 345C276 154.462 430.462 0 621 0ZM621 2C431.566 2 278 155.566 278 345C278 534.434 431.566 688 621 688C810.434 688 964 534.434 964 345C964 155.566 810.434 2 621 2Z" fill="#2F529E"/>
<path d="M345 688.339L344.081 688.336H345V688.339Z" fill="#2F529E"/>
<path d="M301.819 683.611C304.998 684.015 308.185 684.374 311.38 684.688L311.184 686.677C307.97 686.36 304.764 685.999 301.567 685.594L301.819 683.611Z" fill="#2F529E"/>
<path d="M282.807 680.655C285.958 681.236 289.121 681.773 292.292 682.267L292.138 683.254L292.139 683.255L291.985 684.238L291.984 684.241C288.794 683.745 285.614 683.205 282.444 682.62L282.549 682.057L282.807 680.655Z" fill="#2F529E"/>
<path d="M263.992 676.637C267.107 677.394 270.233 678.107 273.371 678.777L273.161 679.755L273.162 679.756L272.953 680.732C269.797 680.058 266.652 679.341 263.52 678.579L263.992 676.637Z" fill="#2F529E"/>
<path d="M414.854 673.696C423.542 675.428 432.315 676.822 441.152 677.869L440.917 679.854C432.027 678.801 423.203 677.4 414.463 675.658L414.854 673.696Z" fill="#2F529E"/>
<path d="M245.433 671.57C248.5 672.501 251.582 673.389 254.677 674.233L254.149 676.161C251.037 675.311 247.937 674.418 244.852 673.482L245.433 671.57Z" fill="#2F529E"/>
<path d="M227.185 665.471C230.196 666.572 233.223 667.631 236.266 668.648L235.632 670.543C232.572 669.52 229.527 668.455 226.498 667.348L227.185 665.471Z" fill="#2F529E"/>
<path d="M363.642 659.228C371.965 662.303 380.412 665.053 388.963 667.469L388.419 669.394C379.818 666.963 371.32 664.198 362.948 661.104L363.642 659.228Z" fill="#2F529E"/>
<path d="M209.309 658.357C212.254 659.626 215.217 660.854 218.196 662.039L217.826 662.968L217.827 662.969L217.457 663.896C214.46 662.704 211.479 661.469 208.517 660.192L209.309 658.357Z" fill="#2F529E"/>
<path d="M191.858 650.254C194.729 651.686 197.618 653.077 200.526 654.428L199.685 656.241C196.759 654.883 193.853 653.482 190.966 652.042L191.858 650.254Z" fill="#2F529E"/>
<path d="M315.328 636.917C323.078 641.264 330.991 645.303 339.046 649.022L338.208 650.838C330.105 647.096 322.146 643.035 314.35 638.662L315.328 636.917Z" fill="#2F529E"/>
<path d="M174.891 641.185C177.676 642.776 180.483 644.327 183.311 645.838L182.368 647.602C179.524 646.081 176.701 644.52 173.898 642.92L174.395 642.054L174.891 641.185Z" fill="#2F529E"/>
<path d="M158.458 631.179C161.151 632.924 163.867 634.63 166.604 636.297L166.084 637.151L165.563 638.004C162.81 636.327 160.079 634.611 157.37 632.855L158.458 631.179Z" fill="#2F529E"/>
<path d="M142.612 620.267C145.204 622.16 147.82 624.016 150.459 625.834L149.891 626.657L149.892 626.658L149.324 627.479C146.67 625.651 144.038 623.786 141.432 621.881L142.612 620.267Z" fill="#2F529E"/>
<path d="M271.103 607.32C278.087 612.836 285.271 618.06 292.633 622.987L291.521 624.649C284.115 619.693 276.889 614.438 269.862 608.89L271.103 607.32Z" fill="#2F529E"/>
<path d="M127.402 608.482C129.884 610.519 132.392 612.519 134.925 614.481L133.7 616.061C131.153 614.087 128.63 612.076 126.134 610.027L127.402 608.482Z" fill="#2F529E"/>
<path d="M112.88 595.865C115.244 598.038 117.635 600.175 120.053 602.275L118.741 603.783C116.309 601.67 113.905 599.521 111.527 597.336L112.88 595.865Z" fill="#2F529E"/>
<path d="M232.04 571.154C235.049 574.414 238.127 577.621 241.273 580.771L242.455 581.949C245.218 584.689 248.023 587.376 250.868 590.011L249.509 591.479C246.647 588.829 243.826 586.125 241.047 583.369L239.858 582.185C236.694 579.015 233.597 575.79 230.57 572.511L231.306 571.833L232.04 571.154Z" fill="#2F529E"/>
<path d="M99.083 582.449C100.201 583.599 101.327 584.742 102.462 585.877L104.171 587.573C104.742 588.136 105.315 588.697 105.89 589.256L104.495 590.688C103.851 590.062 103.208 589.434 102.568 588.802L101.048 587.291C99.9059 586.149 98.7737 584.999 97.6494 583.843L99.083 582.449Z" fill="#2F529E"/>
<path d="M86.0635 568.286C88.164 570.704 90.3008 573.095 92.4736 575.459L91.002 576.811C88.8166 574.433 86.6674 572.028 84.5547 569.597L86.0635 568.286Z" fill="#2F529E"/>
<path d="M73.8574 553.414C75.8198 555.947 77.8197 558.455 79.8564 560.937L78.3105 562.204C76.2619 559.708 74.2512 557.185 72.2773 554.638L73.8574 553.414Z" fill="#2F529E"/>
<path d="M199.096 529.3C204.017 536.677 209.236 543.876 214.745 550.875L213.174 552.111C207.632 545.071 202.382 537.831 197.432 530.41L199.096 529.3Z" fill="#2F529E"/>
<path d="M62.5049 537.88C64.3225 540.519 66.1784 543.135 68.0723 545.727L66.457 546.906C64.5522 544.3 62.6865 541.668 60.8584 539.014L62.5049 537.88Z" fill="#2F529E"/>
<path d="M52.042 521.734C53.7089 524.472 55.4151 527.188 57.1602 529.881L55.4824 530.968C53.7272 528.259 52.0107 525.528 50.334 522.774L52.042 521.734Z" fill="#2F529E"/>
<path d="M42.501 505.028C44.012 507.855 45.5634 510.662 47.1543 513.448L45.418 514.439C43.8175 511.637 42.2564 508.814 40.7363 505.97L42.501 505.028Z" fill="#2F529E"/>
<path d="M173.102 482.806C176.815 490.874 180.845 498.8 185.186 506.563L183.439 507.539C179.074 499.73 175.019 491.758 171.284 483.642L173.102 482.806Z" fill="#2F529E"/>
<path d="M33.9111 487.812C35.2616 490.721 36.6529 493.61 38.085 496.48L37.1895 496.926L37.1904 496.927L36.2959 497.372C34.8554 494.485 33.4552 491.579 32.0967 488.653L33.9111 487.812Z" fill="#2F529E"/>
<path d="M26.2998 470.143C27.4854 473.122 28.7128 476.085 29.9814 479.03L28.1445 479.82C26.8685 476.858 25.6339 473.878 24.4414 470.881L26.2998 470.143Z" fill="#2F529E"/>
<path d="M19.6904 452.073C20.7074 455.115 21.7667 458.143 22.8682 461.154L20.9902 461.84C19.8824 458.811 18.8177 455.766 17.7949 452.706L19.6904 452.073Z" fill="#2F529E"/>
<path d="M154.691 432.821C157.102 441.383 159.847 449.841 162.916 458.175L161.039 458.866C157.952 450.483 155.192 441.976 152.767 433.363L154.691 432.821Z" fill="#2F529E"/>
<path d="M14.1055 433.662C14.9503 436.757 15.8379 439.839 16.7686 442.906L15.8105 443.196L15.8115 443.197L14.8555 443.486C13.9194 440.401 13.0265 437.301 12.1768 434.188L14.1055 433.662Z" fill="#2F529E"/>
<path d="M9.56152 414.968C10.2317 418.106 10.9451 421.232 11.7021 424.347L9.75879 424.818C8.99735 421.686 8.2795 418.541 7.60547 415.385L9.56152 414.968Z" fill="#2F529E"/>
<path d="M144.316 380.575C145.361 389.422 146.751 398.203 148.479 406.9L146.518 407.29C144.78 398.541 143.381 389.708 142.33 380.81L144.316 380.575Z" fill="#2F529E"/>
<path d="M6.07227 396.047C6.56545 399.218 7.10251 402.381 7.68359 405.532L5.71777 405.894C5.13331 402.724 4.59273 399.543 4.09668 396.354L6.07227 396.047Z" fill="#2F529E"/>
<path d="M3.65039 376.959C3.96495 380.154 4.32426 383.341 4.72754 386.52L2.74414 386.771C2.33851 383.573 1.97752 380.368 1.66113 377.154L3.65039 376.959Z" fill="#2F529E"/>
<path d="M2.30371 357.769C2.43866 360.976 2.61848 364.178 2.84277 367.373L0.847656 367.513C0.622041 364.299 0.441399 361.078 0.305664 357.852L2.30371 357.769Z" fill="#2F529E"/>
<path d="M142.229 327.345C142.056 331.777 141.969 336.221 141.969 340.674C141.969 345.127 142.056 349.57 142.229 354.003L140.231 354.082C140.057 349.623 139.969 345.153 139.969 340.674C139.969 336.195 140.057 331.724 140.231 327.266L142.229 327.345Z" fill="#2F529E"/>
<path d="M2.03418 338.525C2.01171 340.129 2 341.733 2 343.339C2 344.944 2.01171 346.549 2.03418 348.152L0.0341797 348.179C0.0215911 347.28 0.0124151 346.382 0.00683594 345.482L0 343.339C4.49209e-08 341.724 0.0115816 340.11 0.0341797 338.498L2.03418 338.525Z" fill="#2F529E"/>
<path d="M2.84277 319.305C2.61848 322.5 2.43866 325.701 2.30371 328.909L0.305664 328.825C0.441408 325.599 0.622032 322.378 0.847656 319.164L2.84277 319.305Z" fill="#2F529E"/>
<path d="M4.72754 300.158C4.32426 303.337 3.96495 306.524 3.65039 309.719L1.66113 309.522C1.97753 306.309 2.3385 303.103 2.74414 299.906L4.72754 300.158Z" fill="#2F529E"/>
<path d="M148.479 274.446C146.751 283.144 145.361 291.926 144.316 300.772L142.33 300.538C143.381 291.639 144.78 282.806 146.518 274.058L148.479 274.446Z" fill="#2F529E"/>
<path d="M7.68359 281.146C7.1025 284.297 6.56545 287.459 6.07227 290.631L4.09668 290.323C4.59274 287.133 5.1333 283.953 5.71777 280.783L7.68359 281.146Z" fill="#2F529E"/>
<path d="M11.7021 262.331C10.9451 265.445 10.2317 268.572 9.56152 271.71L7.60547 271.292C8.27951 268.136 8.99734 264.991 9.75879 261.858L11.7021 262.331Z" fill="#2F529E"/>
<path d="M16.7686 243.771C15.8379 246.839 14.9503 249.921 14.1055 253.016L12.1768 252.488C13.0266 249.375 13.9194 246.276 14.8555 243.19L16.7686 243.771Z" fill="#2F529E"/>
<path d="M162.916 223.173C159.847 231.507 157.102 239.965 154.691 248.526L152.767 247.984C155.192 239.372 157.952 230.864 161.039 222.481L162.916 223.173Z" fill="#2F529E"/>
<path d="M21.9297 225.18L22.8682 225.523C21.7667 228.535 20.7074 231.562 19.6904 234.604L17.7949 233.971C18.8178 230.911 19.8824 227.866 20.9902 224.837L21.9297 225.18Z" fill="#2F529E"/>
<path d="M29.9814 207.647C28.7128 210.593 27.4854 213.556 26.2998 216.535L24.4414 215.796C25.634 212.799 26.8693 209.818 28.1455 206.855L29.9814 207.647Z" fill="#2F529E"/>
<path d="M38.085 190.197C36.6529 193.067 35.2616 195.957 33.9111 198.865L32.0967 198.023C33.4552 195.098 34.8554 192.192 36.2959 189.305L38.085 190.197Z" fill="#2F529E"/>
<path d="M185.186 174.784C180.845 182.547 176.815 190.474 173.102 198.542L171.284 197.706C175.019 189.59 179.074 181.617 183.439 173.809L185.186 174.784Z" fill="#2F529E"/>
<path d="M47.1543 173.229C45.5633 176.015 44.012 178.822 42.501 181.649L40.7363 180.707C42.2564 177.863 43.8175 175.04 45.418 172.237L47.1543 173.229Z" fill="#2F529E"/>
<path d="M57.1602 156.797C55.4151 159.49 53.7089 162.206 52.042 164.943L50.334 163.902C52.0107 161.149 53.7272 158.418 55.4824 155.709L57.1602 156.797Z" fill="#2F529E"/>
<path d="M214.745 130.473C209.236 137.472 204.017 144.671 199.096 152.048L197.432 150.938C202.382 143.517 207.632 136.277 213.174 129.236L214.745 130.473Z" fill="#2F529E"/>
<path d="M68.0723 140.951C66.1784 143.542 64.3225 146.158 62.5049 148.798L60.8584 147.663C62.6818 145.015 64.5427 142.391 66.4424 139.791L66.457 139.771L68.0723 140.951Z" fill="#2F529E"/>
<path d="M79.8564 125.741C77.8197 128.223 75.8199 130.731 73.8574 133.264L72.2773 132.039C74.2512 129.492 76.2619 126.969 78.3105 124.473L79.8564 125.741Z" fill="#2F529E"/>
<path d="M92.4736 111.219C90.3008 113.582 88.1641 115.974 86.0635 118.392L84.5547 117.08C86.6674 114.648 88.8166 112.243 91.002 109.866L92.4736 111.219Z" fill="#2F529E"/>
<path d="M250.868 91.3369C247.616 94.3476 244.417 97.4281 241.273 100.576C238.127 103.727 235.049 106.934 232.04 110.193L231.306 109.515L230.57 108.837C233.597 105.558 236.694 102.332 239.858 99.1631C243.02 95.9965 246.238 92.8976 249.509 89.8691L250.868 91.3369Z" fill="#2F529E"/>
<path d="M105.89 97.4219C105.315 97.9806 104.742 98.5414 104.171 99.1045L102.462 100.801C101.327 101.936 100.201 103.079 99.083 104.229L97.6494 102.834C98.276 102.19 98.905 101.547 99.5371 100.907L101.048 99.3867C102.19 98.2449 103.339 97.1124 104.495 95.9883L105.89 97.4219Z" fill="#2F529E"/>
<path d="M119.397 83.6475L120.053 84.4023C117.635 86.5029 115.244 88.6397 112.88 90.8125L111.527 89.3408C113.905 87.1555 116.309 85.0063 118.741 82.8936L119.397 83.6475Z" fill="#2F529E"/>
<path d="M134.925 72.1963C132.392 74.1587 129.884 76.1586 127.402 78.1953L126.134 76.6494C128.63 74.6008 131.153 72.5901 133.7 70.6162L134.925 72.1963Z" fill="#2F529E"/>
<path d="M292.633 58.3594C285.271 63.2863 278.087 68.512 271.103 74.0273L269.862 72.458C276.889 66.91 284.115 61.6533 291.521 56.6973L292.633 58.3594Z" fill="#2F529E"/>
<path d="M150.459 60.8438C147.82 62.6613 145.204 64.5173 142.612 66.4111L141.432 64.7959C144.038 62.8911 146.67 61.0254 149.324 59.1973L150.459 60.8438Z" fill="#2F529E"/>
<path d="M166.604 50.3809C163.867 52.0478 161.151 53.754 158.458 55.499L157.37 53.8213C160.079 52.066 162.81 50.3495 165.563 48.6729L166.604 50.3809Z" fill="#2F529E"/>
<path d="M183.311 40.8398C180.483 42.3509 177.676 43.9022 174.891 45.4932L173.898 43.7568C176.701 42.1564 179.524 40.5953 182.368 39.0752L183.311 40.8398Z" fill="#2F529E"/>
<path d="M338.627 31.418L339.047 32.3252C330.992 36.0448 323.078 40.0825 315.328 44.4297L314.35 42.6855C322.146 38.3126 330.105 34.2513 338.208 30.5098L338.627 31.418Z" fill="#2F529E"/>
<path d="M200.526 32.25C197.618 33.6005 194.729 34.9918 191.858 36.4238L190.966 34.6348C193.79 33.2258 196.632 31.8549 199.492 30.5244L199.685 30.4355L200.526 32.25Z" fill="#2F529E"/>
<path d="M217.827 23.709L218.196 24.6387C215.217 25.8242 212.254 27.0517 209.309 28.3203L208.518 26.4834C211.48 25.2074 214.46 23.9727 217.457 22.7803L217.827 23.709Z" fill="#2F529E"/>
<path d="M388.691 12.916L388.963 13.8789C380.412 16.2949 371.965 19.0442 363.642 22.1201L362.948 20.2441C371.32 17.1501 379.818 14.3844 388.419 11.9541L388.691 12.916Z" fill="#2F529E"/>
<path d="M236.266 18.0293C233.223 19.0462 230.196 20.1056 227.185 21.207L226.498 19.3291C229.527 18.2213 232.572 17.1566 235.632 16.1338L236.266 18.0293Z" fill="#2F529E"/>
<path d="M254.677 12.4443C251.582 13.2892 248.5 14.1768 245.433 15.1074L244.962 13.5596L244.852 13.1943C247.937 12.2583 251.037 11.3654 254.149 10.5156L254.677 12.4443Z" fill="#2F529E"/>
<path d="M273.371 7.90039C270.233 8.57052 267.107 9.28399 263.992 10.041L263.52 8.09766C266.652 7.33621 269.797 6.61837 272.953 5.94434L273.371 7.90039Z" fill="#2F529E"/>
<path d="M441.152 3.47852C432.315 4.52613 423.542 5.92002 414.854 7.65137L414.463 5.68945C423.203 3.9479 432.027 2.54598 440.917 1.49219L441.152 3.47852Z" fill="#2F529E"/>
<path d="M292.139 3.42285L292.292 4.41113C289.121 4.90432 285.958 5.44137 282.807 6.02246L282.444 4.05664C285.614 3.47217 288.794 2.93161 291.984 2.43555L292.139 3.42285Z" fill="#2F529E"/>
<path d="M311.38 1.98926C308.185 2.30381 304.998 2.66313 301.819 3.06641L301.567 1.08301C304.764 0.677367 307.97 0.316397 311.184 0L311.38 1.98926Z" fill="#2F529E"/>
</svg>
