<svg width="40" height="40" viewBox="0 0 40 40" fill="none" xmlns="http://www.w3.org/2000/svg">
<path fill-rule="evenodd" clip-rule="evenodd" d="M20 5C28.2843 5 35 11.7157 35 20C35 28.2843 28.2843 35 20 35C11.7157 35 5 28.2843 5 20C5 19.9181 5.00162 19.8364 5.00293 19.7549C5.00123 19.6701 5 19.5852 5 19.5C5 17.739 5.36537 16.0636 6.02246 14.5439C8.2048 8.95731 13.6405 5 20 5ZM20 5.5C16.1231 5.5 12.6016 7.02153 10 9.5C12.0892 7.93058 14.6858 7 17.5 7C24.4036 7 30 12.5964 30 19.5C30 26.4036 24.4036 32 17.5 32C12.9025 32 8.88701 29.5166 6.71582 25.8193C8.95781 30.93 14.0617 34.5 20 34.5C28.0081 34.5 34.5 28.0081 34.5 20C34.5 11.9919 28.0081 5.5 20 5.5ZM17.5 7.5C12.5682 7.5 8.33347 10.4761 6.48828 14.7295C6.39267 14.9744 6.30317 15.2224 6.2207 15.4736C7.78065 12.7984 10.6799 11 14 11C18.9706 11 23 15.0294 23 20C23 24.9706 18.9706 29 14 29C11.5517 29 9.33253 28.0217 7.70996 26.4355C9.8842 29.4991 13.4573 31.5 17.5 31.5C24.1274 31.5 29.5 26.1274 29.5 19.5C29.5 12.8726 24.1274 7.5 17.5 7.5ZM14 11.5C9.36531 11.5 5.59905 15.2094 5.50391 19.8213C5.52912 20.7805 5.66866 21.7112 5.90625 22.6016C7.00524 26.0233 10.2131 28.5 14 28.5C18.6944 28.5 22.5 24.6944 22.5 20C22.5 15.3056 18.6944 11.5 14 11.5Z" fill="#C4C4C4"/>
<path fill-rule="evenodd" clip-rule="evenodd" d="M20 0C31.0457 0 40 8.9543 40 20C40 31.0457 31.0457 40 20 40C8.9543 40 0 31.0457 0 20C0 8.9543 8.9543 0 20 0ZM20 0.5C9.23045 0.5 0.5 9.23045 0.5 20C0.5 30.7696 9.23045 39.5 20 39.5C30.7696 39.5 39.5 30.7696 39.5 20C39.5 9.23045 30.7696 0.5 20 0.5Z" fill="#C4C4C4"/>
</svg>
