<svg width="40" height="40" viewBox="0 0 40 40" fill="none" xmlns="http://www.w3.org/2000/svg">
<path d="M19.5 17C20.8807 17 22 18.1193 22 19.5C22 20.8807 20.8807 22 19.5 22C18.1193 22 17 20.8807 17 19.5C17 18.1193 18.1193 17 19.5 17Z" fill="#C4C4C4"/>
<path fill-rule="evenodd" clip-rule="evenodd" d="M14.5 6C15.4516 6 16.2788 6.53189 16.7012 7.31445C17.601 7.10863 18.5378 7 19.5 7C25.5515 7 30.5983 11.3003 31.752 17.0117C33.0144 17.138 34 18.2043 34 19.5C34 20.7957 33.0143 21.861 31.752 21.9873C30.5986 27.6992 25.5518 32 19.5 32C17.2111 32 15.0678 31.3817 13.2227 30.3076C12.774 30.7353 12.1687 31 11.5 31C10.1193 31 9 29.8807 9 28.5C9 27.9373 9.18821 27.4197 9.50195 27.002C7.93154 24.9124 7 22.3152 7 19.5C7 15.3384 9.03526 11.6538 12.1631 9.38184C12.0594 9.10732 12 8.8108 12 8.5C12 7.11929 13.1193 6 14.5 6ZM19.5 7.5C18.6051 7.5 17.7336 7.60034 16.8945 7.78613C16.9619 8.0125 17 8.25174 17 8.5C17 9.88071 15.8807 11 14.5 11C13.6107 11 12.8318 10.5344 12.3887 9.83496C9.42411 12.0199 7.5 15.5348 7.5 19.5C7.5 22.1695 8.37247 24.6347 9.84668 26.6279C10.2875 26.2383 10.8654 26 11.5 26C12.8807 26 14 27.1193 14 28.5C14 29.0286 13.8347 29.518 13.5547 29.9219C15.3077 30.9241 17.3361 31.5 19.5 31.5C25.2748 31.5 30.0941 27.4204 31.2393 21.9863C29.9811 21.8559 29 20.7927 29 19.5C29 18.2073 29.981 17.143 31.2393 17.0127C30.0937 11.5791 25.2744 7.5 19.5 7.5Z" fill="#C4C4C4"/>
<path fill-rule="evenodd" clip-rule="evenodd" d="M20 0C31.0457 0 40 8.9543 40 20C40 31.0457 31.0457 40 20 40C8.9543 40 0 31.0457 0 20C0 8.9543 8.9543 0 20 0ZM20 0.5C9.23045 0.5 0.5 9.23045 0.5 20C0.5 30.7696 9.23045 39.5 20 39.5C30.7696 39.5 39.5 30.7696 39.5 20C39.5 9.23045 30.7696 0.5 20 0.5Z" fill="#C4C4C4"/>
</svg>
