<svg width="802" height="376" viewBox="0 0 802 376" fill="none" xmlns="http://www.w3.org/2000/svg">
<path d="M800 147.446H4.67969V366.831C6.73169 367.087 8.31934 368.838 8.31934 370.96C8.31932 373.258 6.45745 375.121 4.16016 375.121C1.86273 375.121 1.64877e-05 373.258 0 370.96C0 368.838 1.58775 367.087 3.63965 366.831V146.406H798.96V0.611572H800V147.446Z" fill="#8F91AF"/>
<path d="M800 147.446H4.67969V366.831C6.73169 367.087 8.31934 368.838 8.31934 370.96C8.31932 373.258 6.45745 375.121 4.16016 375.121C1.86273 375.121 1.64877e-05 373.258 0 370.96C0 368.838 1.58775 367.087 3.63965 366.831V146.406H798.96V0.611572H800V147.446Z" stroke="#8F91AF"/>
<rect width="82" height="5" transform="matrix(0 1 1 0 797 0)" fill="url(#paint0_linear_107237_8873)"/>
<defs>
<linearGradient id="paint0_linear_107237_8873" x1="0" y1="2.5" x2="82" y2="2.5" gradientUnits="userSpaceOnUse">
<stop stop-color="#0033A0"/>
<stop offset="1" stop-color="#0033A0" stop-opacity="0"/>
</linearGradient>
</defs>
</svg>
