<svg width="360" height="360" viewBox="0 0 360 360" fill="none" xmlns="http://www.w3.org/2000/svg">
<path fill-rule="evenodd" clip-rule="evenodd" d="M180 150C196.569 150 210 163.431 210 180C210 196.569 196.569 210 180 210C163.431 210 150 196.569 150 180C150 163.431 163.431 150 180 150ZM180 151C163.984 151 151 163.984 151 180C151 196.016 163.984 209 180 209C196.016 209 209 196.016 209 180C209 163.984 196.016 151 180 151Z" fill="#2F529E"/>
<path fill-rule="evenodd" clip-rule="evenodd" d="M180 100C214.711 100 244.256 122.106 255.33 153.008C259.595 153.181 263 156.692 263 161C263 163.925 261.43 166.482 259.087 167.877C259.688 171.83 260 175.879 260 180C260 224.183 224.183 260 180 260C135.817 260 100 224.183 100 180C100 135.817 135.817 100 180 100ZM180 101C136.37 101 101 136.37 101 180C101 223.63 136.37 259 180 259C223.63 259 259 223.63 259 180C259 176.044 258.707 172.156 258.146 168.356C257.18 168.77 256.117 169 255 169C250.582 169 247 165.418 247 161C247 156.826 250.197 153.399 254.276 153.033C243.254 122.681 214.16 101 180 101Z" fill="#2F529E"/>
<path fill-rule="evenodd" clip-rule="evenodd" d="M180 50C251.797 50 310 108.203 310 180C310 251.797 251.797 310 180 310C141.424 310 106.774 293.197 82.9658 266.512C81.0688 268.066 78.6438 269 76 269C69.9249 269 65 264.075 65 258C65 254.24 66.8876 250.922 69.7656 248.938C57.2418 228.955 50 205.323 50 180C50 131.16 76.9326 88.6116 116.756 66.3945C116.272 65.3639 116 64.2139 116 63C116 58.5817 119.582 55 124 55C127.154 55 129.881 56.8257 131.184 59.4775C146.256 53.3665 162.735 50 180 50ZM180 51C162.87 51 146.521 54.3401 131.566 60.4023C131.846 61.2171 132 62.0904 132 63C132 67.4183 128.418 71 124 71C121.153 71 118.654 69.5117 117.236 67.2715C77.7227 89.3186 51 131.539 51 180C51 205.129 58.1856 228.579 70.6133 248.409C72.2056 247.513 74.0426 247 76 247C82.0751 247 87 251.925 87 258C87 261.072 85.739 263.847 83.709 265.843C107.334 292.325 141.719 309 180 309C251.245 309 309 251.245 309 180C309 108.755 251.245 51 180 51Z" fill="#2F529E"/>
<path fill-rule="evenodd" clip-rule="evenodd" d="M180 0C279.411 0 360 80.5887 360 180C360 279.411 279.411 360 180 360C80.5887 360 0 279.411 0 180C0 80.5887 80.5887 0 180 0ZM180 1C81.141 1 1 81.141 1 180C1 278.859 81.141 359 180 359C278.859 359 359 278.859 359 180C359 81.141 278.859 1 180 1Z" fill="#2F529E"/>
</svg>
