<svg width="530" height="530" viewBox="0 0 530 530" fill="none" xmlns="http://www.w3.org/2000/svg">
<path fill-rule="evenodd" clip-rule="evenodd" d="M265.177 0C411.435 0 530 118.645 530 265C530 337.744 500.708 403.64 453.285 451.526L484.384 482.646L483.677 483.354L452.58 452.235C404.645 500.277 338.38 530 265.177 530C118.919 530 0.35328 411.355 0.35328 265C0.35328 192.511 29.44 126.82 76.571 78.9756L0 2.35352L0.70656 1.64648L77.2737 78.2646C125.247 29.9287 191.719 0 265.177 0ZM265.177 1C191.995 1 125.773 30.8167 77.9802 78.9717L100.64 101.646L99.9333 102.354L77.2776 79.6826C30.3274 127.346 1.35261 192.787 1.35261 265C1.35261 410.803 119.471 529 265.177 529C338.104 529 404.119 499.389 451.873 451.528L383.744 383.354L384.451 382.646L452.578 450.819C499.82 403.114 529.001 337.467 529.001 265C529.001 119.197 410.883 1 265.177 1Z" fill="#2F529E"/>
</svg>
