<svg width="1920" height="346" viewBox="0 0 1920 346" fill="none" xmlns="http://www.w3.org/2000/svg">
<path d="M960 0C1051.52 0 1126.43 71.0622 1132.59 161.018C1132.72 161.006 1132.86 161 1133 161C1135.76 161 1138 163.239 1138 166H1529C1529 163.239 1531.24 161 1534 161C1536.76 161 1539 163.239 1539 166H1920V167H1538.9C1538.44 169.282 1536.42 171 1534 171C1531.58 171 1529.56 169.282 1529.1 167H1137.9C1137.44 169.282 1135.42 171 1133 171C1133 171 1132.99 170.999 1132.99 170.999C1132.99 171.665 1133 172.332 1133 173C1133 268.545 1055.55 346 960 346C866.512 346 790.345 271.844 787.109 179.145C787.037 177.272 787 175.39 787 173.5C787 173.412 787.001 173.324 787.001 173.236C787.001 173.158 787 173.079 787 173C787 172.637 787.003 172.275 787.007 171.913C787.017 170.27 787.05 168.632 787.105 167H387.899C387.436 169.282 385.419 171 383 171C380.581 171 378.564 169.282 378.101 167H0V166H378C378 163.239 380.239 161 383 161C385.761 161 388 163.239 388 166H787.141C790.814 73.7002 866.799 0 960 0ZM1078.9 167C1078.44 169.282 1076.42 171 1074 171C1073.99 171 1073.98 170.999 1073.98 170.999C1073.99 171.831 1074 172.665 1074 173.5C1074 252.753 1009.75 317 930.5 317C866.199 317 811.776 274.707 793.53 216.422C812.771 290.392 880.007 345 960 345C1054.99 345 1132 267.993 1132 173C1132 172.298 1131.99 171.597 1131.99 170.896C1130.03 170.494 1128.5 168.954 1128.1 167H1078.9ZM1019.9 167C1019.44 169.282 1017.42 171 1015 171C1014.99 171 1014.99 170.999 1014.98 170.999C1014.99 171.665 1015 172.332 1015 173C1015 235.96 963.96 287 901 287C848.824 287 804.835 251.949 791.296 204.108C805.302 268.099 862.307 316 930.5 316C1009.2 316 1073 252.201 1073 173.5C1073 172.629 1072.99 171.761 1072.97 170.894C1071.03 170.487 1069.5 168.95 1069.1 167H1019.9ZM971.899 167C971.436 169.282 969.419 171 967 171C966.992 171 966.984 170.999 966.977 170.999C966.991 171.664 967 172.331 967 173C967 222.706 926.706 263 877 263C837.358 263 803.703 237.37 791.699 201.777C804.426 250.247 848.537 286 901 286C963.408 286 1014 235.408 1014 173C1014 172.297 1013.99 171.595 1013.98 170.895C1012.03 170.49 1010.5 168.952 1010.1 167H971.899ZM915.899 167C915.498 168.977 913.931 170.529 911.946 170.909C911.981 171.768 912 172.632 912 173.5C912 208.018 884.018 236 849.5 236C822.345 236 799.236 218.682 790.612 194.488C800.225 233.26 835.256 262 877 262C926.153 262 966 222.153 966 173C966 172.296 965.99 171.594 965.974 170.894C964.027 170.487 962.497 168.95 962.101 167H915.899ZM788.341 167C788.144 168.873 788.03 170.772 788.005 172.691C788.004 172.867 788.001 173.044 788.001 173.22C788.001 173.313 788.003 173.407 788.003 173.5C788.008 174.364 788.024 175.226 788.054 176.084C789.408 208.851 816.4 235 849.5 235C883.466 235 911 207.466 911 173.5C911 172.662 910.982 171.828 910.949 170.998C908.553 170.974 906.561 169.266 906.101 167H788.341ZM849.5 112C818.073 112 792.154 135.572 788.454 166H906C906 163.667 907.598 161.706 909.76 161.154C904.044 133.106 879.237 112 849.5 112ZM877 84C834.144 84 798.364 114.292 789.899 154.632C797.9 129.336 821.558 111 849.5 111C879.739 111 904.961 132.475 910.75 161.006C910.833 161.002 910.916 161 911 161C913.761 161 916 163.239 916 166H962C962 163.859 963.346 162.032 965.238 161.319C959.518 117.686 922.194 84 877 84ZM901 60C848.537 60 804.426 95.7525 791.699 144.222C803.703 108.629 837.358 83 877 83C922.658 83 960.373 116.999 966.213 161.062C966.469 161.021 966.732 161 967 161C969.761 161 972 163.239 972 166H1010C1010 163.8 1011.42 161.932 1013.4 161.264C1007.53 104.37 959.445 60 901 60ZM930.5 31C863.966 31 808.083 76.5987 792.395 138.25C807.09 92.2834 850.158 59 901 59C959.921 59 1008.4 103.7 1014.38 161.039C1014.58 161.014 1014.79 161 1015 161C1017.76 161 1020 163.239 1020 166H1069C1069 163.77 1070.46 161.881 1072.48 161.236C1066.26 88.2772 1005.07 31 930.5 31ZM960 1C877.991 1 809.39 58.3954 792.168 135.208C808.923 74.5459 864.508 30 930.5 30C1005.55 30 1067.14 87.6153 1073.46 161.028C1073.64 161.009 1073.82 161 1074 161C1076.76 161 1079 163.239 1079 166H1128C1128 163.725 1129.52 161.807 1131.6 161.2C1125.53 71.7111 1051.03 1 960 1Z" fill="#2F529E"/>
</svg>
