<svg width="805" height="355" viewBox="0 0 805 355" fill="none" xmlns="http://www.w3.org/2000/svg">
<path d="M3.31836 0C1.48571 0.000132083 0 1.48755 0 3.32227C3.93848e-05 5.15695 1.48573 6.6444 3.31836 6.64453C4.98381 6.64453 6.36357 5.41636 6.60156 3.81543C300.138 4.07474 582.746 129.436 803.751 355H805C583.743 128.825 300.653 3.10886 6.60352 2.84863C6.3739 1.23819 4.99054 0 3.31836 0Z" fill="#8F91AF"/>
<path d="M3.31836 0C1.48571 0.000132083 0 1.48755 0 3.32227C3.93848e-05 5.15695 1.48573 6.6444 3.31836 6.64453C4.98381 6.64453 6.36357 5.41636 6.60156 3.81543C300.138 4.07474 582.746 129.436 803.751 355H805C583.743 128.825 300.653 3.10886 6.60352 2.84863C6.3739 1.23819 4.99054 0 3.31836 0Z" stroke="#8F91AF"/>
</svg>
