<svg width="805" height="355" viewBox="0 0 805 355" fill="none" xmlns="http://www.w3.org/2000/svg">
<path d="M801.682 0C803.514 0.000132083 805 1.48755 805 3.32227C805 5.15695 803.514 6.6444 801.682 6.64453C800.016 6.64453 798.636 5.41636 798.398 3.81543C504.862 4.07474 222.254 129.436 1.24902 355H0C221.257 128.825 504.347 3.10886 798.396 2.84863C798.626 1.23819 800.009 0 801.682 0Z" fill="#8F91AF"/>
<path d="M801.682 0C803.514 0.000132083 805 1.48755 805 3.32227C805 5.15695 803.514 6.6444 801.682 6.64453C800.016 6.64453 798.636 5.41636 798.398 3.81543C504.862 4.07474 222.254 129.436 1.24902 355H0C221.257 128.825 504.347 3.10886 798.396 2.84863C798.626 1.23819 800.009 0 801.682 0Z" stroke="#8F91AF"/>
</svg>
