<svg width="354" height="221" viewBox="0 0 354 221" fill="none" xmlns="http://www.w3.org/2000/svg">
<path fill-rule="evenodd" clip-rule="evenodd" d="M177.5 0C178.165 0 178.829 0.00359774 179.492 0.0107422C276.098 0.843068 354 49.992 354 110.5C354 171.008 276.098 220.156 179.492 220.988C178.829 220.995 178.165 221 177.5 221C177.411 221 177.322 220.998 177.232 220.998C177.155 220.998 177.077 221 177 221C176.896 221 176.793 220.998 176.689 220.998C176.626 220.998 176.563 221 176.5 221C176.321 221 176.143 220.996 175.965 220.995C78.6868 220.647 0 171.312 0 110.5C0.000151372 49.6881 78.6869 0.351695 175.965 0.00390625C176.143 0.00267325 176.321 0 176.5 0C176.557 0 176.613 0.000852257 176.67 0.000976562C176.78 0.000851209 176.89 0 177 0C177.092 0 177.185 0.000888068 177.277 0.000976562C177.352 0.000887316 177.426 0 177.5 0ZM176.744 0.875C170.499 0.953383 164.481 3.89878 158.925 9.30859C153.289 14.7962 148.173 22.779 143.858 32.7119C135.23 52.575 129.872 80.0767 129.872 110.5C129.872 140.923 135.23 168.425 143.858 188.288C148.173 198.221 153.289 206.204 158.925 211.691C164.425 217.046 170.377 219.986 176.555 220.121C176.676 220.122 176.797 220.122 176.919 220.123C177.294 220.12 177.669 220.112 178.043 220.1C184.007 219.794 189.753 216.874 195.075 211.691C200.711 206.204 205.827 198.221 210.142 188.288C218.77 168.425 224.128 140.923 224.128 110.5C224.128 80.0767 218.77 52.575 210.142 32.7119C205.827 22.779 200.711 14.7962 195.075 9.30859C189.753 4.12641 184.007 1.20504 178.043 0.899414C177.648 0.88585 177.253 0.87814 176.856 0.875C176.819 0.875215 176.782 0.874747 176.744 0.875ZM169.106 1.48633C152.962 4.17742 138.389 15.5851 127.384 32.834C114.728 52.6704 106.872 80.1271 106.872 110.5C106.872 140.873 114.728 168.33 127.384 188.166C138.389 205.415 152.962 216.822 169.106 219.513C146.352 210.846 129 165.338 129 110.5C129 55.6616 146.352 10.1527 169.106 1.48633ZM185.764 1.83887C208.088 11.3207 225 56.3633 225 110.5C225 164.636 208.088 209.678 185.764 219.16C201.162 215.928 215.038 204.746 225.616 188.166C238.272 168.33 246.128 140.873 246.128 110.5C246.128 80.1271 238.272 52.6704 225.616 32.834C215.038 16.2538 201.162 5.07119 185.764 1.83887ZM162.535 2.16895C119.216 10.2865 85.8721 55.5675 85.8721 110.5C85.8721 165.432 119.216 210.712 162.535 218.83C130.289 208.673 106 164.033 106 110.5C106 56.9664 130.288 12.3254 162.535 2.16895ZM190.464 2.16895C222.711 12.3249 247 56.9659 247 110.5C247 164.034 222.711 208.674 190.464 218.83C233.784 210.713 267.128 165.433 267.128 110.5C267.128 55.5671 233.784 10.286 190.464 2.16895ZM155.307 2.22949C88.0371 10.5367 36.8721 55.9975 36.8721 110.5C36.8721 165.002 88.0372 210.462 155.307 218.77C104.916 208.495 67 163.926 67 110.5C67 57.074 104.916 12.5038 155.307 2.22949ZM199.692 2.22949C250.084 12.5035 288 57.0737 288 110.5C288 163.926 250.084 208.495 199.692 218.77C266.962 210.463 318.128 165.003 318.128 110.5C318.128 55.9972 266.962 10.5364 199.692 2.22949ZM195.029 2.26758C236.68 12.6127 268 57.139 268 110.5C268 163.861 236.68 208.386 195.029 218.731C247.243 210.34 287.128 165.079 287.128 110.5C287.128 55.9206 247.243 10.6586 195.029 2.26758ZM148.824 2.27051C111.382 6.0215 77.9033 17.1228 52.3037 33.1045C20.4199 53.0094 0.872146 80.3959 0.87207 110.5C0.87207 140.604 20.4199 167.991 52.3037 187.896C77.9069 203.879 111.392 214.981 148.84 218.73C84.4321 208.384 36 163.859 36 110.5C36 57.1448 84.4241 12.6219 148.824 2.27051ZM207.889 2.55469C271.433 13.414 319 57.6189 319 110.5C319 163.385 271.426 207.591 207.875 218.446C244.226 214.441 276.713 203.492 301.696 187.896C333.58 167.991 353.128 140.604 353.128 110.5C353.128 80.3959 333.58 53.0094 301.696 33.1045C276.717 17.5098 244.234 6.56085 207.889 2.55469ZM153.622 3.48145C104.559 14.38 67.8721 58.155 67.8721 110.5C67.8721 162.845 104.559 206.619 153.622 217.518C114.159 205.25 85 161.987 85 110.5C85 59.0126 114.159 15.7493 153.622 3.48145Z" fill="#C4C4C4"/>
</svg>
