<svg width="211" height="20" viewBox="0 0 211 20" fill="none" xmlns="http://www.w3.org/2000/svg">
<path d="M20.045 18.8695C18.8008 18.12 17.839 17.089 17.1597 15.7689C16.4803 14.4525 16.1406 12.9574 16.1406 11.2872C16.1406 9.61707 16.4803 8.12573 17.1597 6.80558C17.839 5.48924 18.8008 4.45824 20.045 3.71637C21.2892 2.9745 22.7319 2.60547 24.3768 2.60547C26.0218 2.60547 27.4644 2.9745 28.7086 3.71637C29.9528 4.45824 30.9146 5.48544 31.594 6.80558C32.2733 8.12192 32.6168 9.61707 32.6168 11.2872C32.6168 12.9574 32.2771 14.4487 31.594 15.7689C30.9146 17.089 29.9528 18.12 28.7086 18.8695C27.4644 19.619 26.0218 19.9918 24.3768 19.9918C22.7319 19.9918 21.2892 19.619 20.045 18.8695ZM20.2091 15.9325C21.1251 17.1575 22.5143 17.77 24.3768 17.77C26.2393 17.77 27.6285 17.1575 28.5445 15.9325C29.4605 14.7074 29.9185 13.159 29.9185 11.2872C29.9185 9.41544 29.4605 7.87083 28.5445 6.65341C27.6285 5.43598 26.2393 4.82727 24.3768 4.82727C22.5143 4.82727 21.1251 5.43598 20.2091 6.65341C19.2931 7.87083 18.8351 9.41544 18.8351 11.2872C18.8351 13.159 19.2931 14.7074 20.2091 15.9325Z" fill="#101010"/>
<path d="M36.8483 18.3711C35.7567 17.2906 35.2109 15.7879 35.2109 13.8628V2.60925H37.8406V13.8628C37.8406 15.183 38.1764 16.1569 38.8443 16.7846C39.516 17.4124 40.5274 17.7281 41.8823 17.7281C43.2372 17.7281 44.2715 17.4162 44.9318 16.7846C45.592 16.1569 45.9241 15.183 45.9241 13.8628V2.60925H48.5804V13.8628C48.5804 15.7879 48.0347 17.2906 46.9431 18.3711C45.8516 19.4516 44.1646 19.9918 41.8823 19.9918C39.6 19.9918 37.9398 19.4516 36.8483 18.3711Z" fill="#101010"/>
<path d="M51.8554 2.60925H58.9848C60.8663 2.60925 62.3052 3.04296 63.3013 3.91037C64.2974 4.77779 64.7974 6.01424 64.7974 7.61971C64.7974 8.70779 64.5035 9.62847 63.912 10.3932C63.3204 11.1541 62.5494 11.6486 61.5915 11.8769V11.9264C62.4197 12.0899 63.0456 12.4856 63.4692 13.1171C63.8929 13.7487 64.1715 14.4449 64.3051 15.2096C64.4387 15.9705 64.5417 16.8645 64.6028 17.8841C64.6524 18.5499 64.6982 19.0255 64.7478 19.3184C64.7974 19.6113 64.8928 19.7787 65.034 19.8282V19.9994H62.2098C62.0991 19.9005 62.0304 19.7293 62.0075 19.4782C61.9846 19.2271 61.9617 18.8086 61.9464 18.2265C61.9312 17.2526 61.8625 16.427 61.7442 15.746C61.6258 15.065 61.3472 14.4677 60.9083 13.9579C60.4694 13.4481 59.7977 13.1932 58.8855 13.1932H54.485V19.9994H51.8516V2.60925H51.8554ZM58.4123 10.8763C59.6259 10.8763 60.5496 10.6138 61.1869 10.085C61.8243 9.55999 62.1449 8.79909 62.1449 7.80994C62.1449 6.82078 61.8548 6.13217 61.2709 5.64521C60.687 5.15824 59.7519 4.91475 58.4619 4.91475H54.4926V10.8725H58.4161L58.4123 10.8763Z" fill="#101010"/>
<path d="M94.4483 4.91856H88.9219V2.60925H102.631V4.91856H97.1046V19.9918H94.4483V4.91856Z" fill="#101010"/>
<path d="M108.878 4.91856H103.352V2.60925H117.061V4.91856H111.534V19.9918H108.878V4.91856Z" fill="#101010"/>
<path d="M121.268 18.8695C120.023 18.12 119.062 17.089 118.378 15.7689C117.699 14.4525 117.359 12.9574 117.359 11.2872C117.359 9.61707 117.699 8.12573 118.378 6.80558C119.058 5.48924 120.023 4.45824 121.268 3.71637C122.512 2.9745 123.954 2.60547 125.599 2.60547C127.244 2.60547 128.687 2.9745 129.931 3.71637C131.175 4.45824 132.137 5.48544 132.82 6.80558C133.5 8.12192 133.839 9.61707 133.839 11.2872C133.839 12.9574 133.5 14.4487 132.82 15.7689C132.141 17.0852 131.175 18.12 129.931 18.8695C128.687 19.619 127.244 19.9918 125.599 19.9918C123.954 19.9918 122.512 19.619 121.268 18.8695ZM121.432 15.9325C122.348 17.1575 123.737 17.77 125.599 17.77C127.462 17.77 128.851 17.1575 129.767 15.9325C130.683 14.7074 131.141 13.159 131.141 11.2872C131.141 9.41544 130.683 7.87083 129.767 6.65341C128.851 5.43598 127.462 4.82727 125.599 4.82727C123.737 4.82727 122.348 5.43598 121.432 6.65341C120.516 7.87083 120.058 9.41544 120.058 11.2872C120.058 13.159 120.516 14.7074 121.432 15.9325Z" fill="#101010"/>
<path d="M136.43 2.60925H143.7C145.62 2.60925 147.086 3.04296 148.101 3.91037C149.116 4.77779 149.627 6.01424 149.627 7.61971C149.627 8.70779 149.326 9.62847 148.727 10.3932C148.124 11.1541 147.337 11.6486 146.36 11.8769V11.9264C147.208 12.0899 147.845 12.4856 148.276 13.1171C148.708 13.7487 148.99 14.4449 149.131 15.2096C149.269 15.9705 149.372 16.8645 149.437 17.8841C149.486 18.5499 149.532 19.0255 149.582 19.3184C149.631 19.6113 149.727 19.7787 149.876 19.8282V19.9994H146.998C146.883 19.9005 146.815 19.7293 146.792 19.4782C146.769 19.2271 146.746 18.8086 146.731 18.2265C146.715 17.2526 146.647 16.427 146.525 15.746C146.402 15.065 146.116 14.4677 145.67 13.9579C145.223 13.4481 144.536 13.1932 143.609 13.1932H139.12V19.9994H136.437V2.60925H136.43ZM143.113 10.8763C144.349 10.8763 145.292 10.6138 145.941 10.085C146.589 9.55999 146.918 8.7991 146.918 7.81374C146.918 6.82839 146.62 6.13598 146.028 5.64901C145.433 5.16204 144.479 4.91855 143.162 4.91855H139.113V10.8763H143.113Z" fill="#101010"/>
<path d="M152.25 2.60925H155.265L163.207 15.9819H163.257V2.60925H165.913V19.9918H162.898L154.933 6.61915H154.883V19.9918H152.25V2.60925Z" fill="#101010"/>
<path d="M169.305 2.60925H181.411V4.91856H171.938V9.85293H180.239V12.1622H171.938V17.6825H181.651V19.9918H169.309V2.60925H169.305Z" fill="#101010"/>
<path d="M188.462 13.0373L182.336 2.60547H185.183L189.774 10.922H189.824L194.419 2.60547H197.244L191.118 13.0373V19.9918H188.462V13.0373Z" fill="#101010"/>
<path d="M201.063 19.2806C199.968 18.805 199.101 18.1202 198.468 17.2224C197.834 16.3245 197.487 15.2593 197.422 14.0304H200.097C200.193 15.2174 200.616 16.1419 201.376 16.8039C202.135 17.4659 203.265 17.7968 204.769 17.7968C207.116 17.7968 208.291 16.899 208.291 15.1071C208.291 14.4375 208.124 13.9125 207.788 13.5397C207.452 13.1668 207.005 12.8853 206.452 12.6989C205.895 12.5125 204.944 12.2462 203.601 11.9038C202.441 11.5918 201.49 11.2798 200.75 10.9679C200.006 10.6559 199.376 10.1917 198.861 9.57543C198.345 8.95911 198.086 8.16017 198.086 7.17862C198.086 5.74434 198.609 4.62584 199.658 3.81929C200.708 3.01655 202.139 2.61328 203.952 2.61328C205.876 2.61328 207.421 3.08123 208.589 4.01712C209.753 4.95302 210.398 6.25414 210.524 7.9243H207.849C207.708 6.89329 207.326 6.12099 206.7 5.59597C206.074 5.07476 205.166 4.81225 203.979 4.81225C202.929 4.81225 202.135 4.99867 201.597 5.37531C201.059 5.75195 200.788 6.3036 200.788 7.03786C200.788 7.63135 200.952 8.0993 201.28 8.4417C201.609 8.7841 202.025 9.04661 202.525 9.22542C203.025 9.40423 203.754 9.60967 204.708 9.84554C206.131 10.2032 207.257 10.5494 208.089 10.8766C208.917 11.2037 209.612 11.6907 210.165 12.3375C210.719 12.9842 210.997 13.863 210.997 14.9701C210.997 16.4843 210.478 17.6979 209.436 18.6186C208.395 19.5393 206.868 19.9996 204.849 19.9996C203.425 19.9996 202.166 19.7599 201.071 19.2844L201.063 19.2806Z" fill="#101010"/>
<path d="M86.9385 0L82.912 2.76964L82.9196 2.78105L81.4922 6.82519L83.8776 7.70401L85.0302 4.59197L88.4765 2.2218L86.9385 0Z" fill="#101010"/>
<path d="M80.6948 9.07806L81.4963 6.82202H74.2219L72.7869 2.65234H69.8672L76.3897 19.993H79.2865L83.0344 9.95309L80.6986 9.07806H80.6948ZM77.8744 17.5201H77.8248L74.9776 9.08187H80.6948L77.8744 17.5201Z" fill="#101010"/>
<path d="M0 2.59375H3.0151L10.9574 15.9664H11.007V2.59375H13.6634V19.9763H10.6483L2.68306 6.60364H2.63344V19.9763H0V2.59375Z" fill="#101010"/>
</svg>
