<svg width="201" height="100" viewBox="0 0 201 100" fill="none" xmlns="http://www.w3.org/2000/svg">
<path d="M49.9404 0.500047C49.9352 0.499947 49.93 0.499167 49.9248 0.499071V0.395555C38.1425 1.33698 27.0264 6.43062 18.6074 14.837C9.24487 24.1857 3.98451 36.8658 3.98438 50.087C3.98437 63.308 9.24409 75.9881 18.6064 85.337C27.0255 93.7436 38.1423 98.8369 49.9248 99.7784V99.5C49.93 99.5 49.9352 99.5001 49.9404 99.5L49.9502 100C49.9417 100 49.9333 99.9999 49.9248 100V99.9385C36.684 99.9385 23.9847 94.6858 14.6221 85.337C5.25971 75.9881 -3.68328e-07 63.308 0 50.087C0.000132934 36.8658 5.2605 24.1857 14.623 14.837C23.9857 5.48839 36.6842 0.236375 49.9248 0.236375V4.71673e-05C49.9333 0.000205294 49.9417 -0.000114806 49.9502 4.71673e-05L49.9404 0.500047Z" fill="#101010"/>
<path d="M53.9131 99.5225L53.9365 99.7706C53.2752 99.8341 52.6117 99.8856 51.9463 99.9239L51.917 99.4249C52.5761 99.3869 53.2336 99.3364 53.8887 99.2735L53.9131 99.5225Z" fill="#101010"/>
<path d="M57.8936 99.2364C57.2388 99.3505 56.5812 99.4529 55.9209 99.542L55.8867 99.294L55.8535 99.0459C56.5075 98.9576 57.1591 98.8572 57.8076 98.7442L57.8936 99.2364Z" fill="#101010"/>
<path d="M61.7979 98.4004C61.1536 98.5646 60.5058 98.717 59.8545 98.8565L59.749 98.3672C60.3942 98.229 61.0366 98.0787 61.6748 97.9161L61.7979 98.4004Z" fill="#101010"/>
<path d="M65.5469 97.0293L65.627 97.2666C64.9969 97.48 64.3622 97.681 63.7236 97.8702L63.6523 97.6309L63.5811 97.3907C64.2136 97.2033 64.8427 97.0044 65.4668 96.793L65.5469 97.0293Z" fill="#101010"/>
<path d="M69.2588 95.6104L69.3564 95.8409C68.7447 96.1022 68.1276 96.3513 67.5059 96.5889L67.416 96.3555L67.3271 96.1221C67.943 95.8867 68.5542 95.6398 69.1602 95.3809L69.2588 95.6104Z" fill="#101010"/>
<path d="M72.8496 93.9092L72.9648 94.1309C72.3749 94.439 71.7791 94.7356 71.1777 95.0206L71.0703 94.795L70.9639 94.5684C71.5593 94.2863 72.1493 93.9926 72.7334 93.6875L72.8496 93.9092Z" fill="#101010"/>
<path d="M76.4307 92.1456C75.8661 92.4988 75.2942 92.8412 74.7168 93.1719L74.4688 92.7383C75.0406 92.4108 75.606 92.0715 76.165 91.7217L76.4307 92.1456Z" fill="#101010"/>
<path d="M79.5811 89.6963L79.7295 89.8965C79.1942 90.2929 78.6521 90.6792 78.1025 91.0538L77.9609 90.8467L77.8203 90.6407C78.3646 90.2697 78.9025 89.8877 79.4326 89.4952L79.5811 89.6963Z" fill="#101010"/>
<path d="M82.6797 87.2081L82.8438 87.3965C82.341 87.8339 81.8299 88.2605 81.3115 88.6768L80.998 88.2872C81.5114 87.8749 82.0178 87.4517 82.5156 87.0186L82.6797 87.2081Z" fill="#101010"/>
<path d="M85.5635 84.4922L85.7422 84.667C85.5123 84.9012 85.2799 85.1341 85.0449 85.3643C84.807 85.5974 84.5664 85.8277 84.3242 86.0557L84.1523 85.8741L83.9814 85.6924C84.2212 85.4667 84.4587 85.2377 84.6943 85.0069C84.9271 84.7789 85.1581 84.5493 85.3857 84.3174L85.5635 84.4922Z" fill="#101010"/>
<path d="M88.3916 81.7491C87.9702 82.2515 87.5382 82.747 87.0957 83.2344L86.7256 82.8975C87.1635 82.4151 87.5908 81.925 88.0078 81.4278L88.3916 81.7491Z" fill="#101010"/>
<path d="M90.8037 78.6319C90.4229 79.1661 90.0307 79.6935 89.6279 80.2139L89.4307 80.0606L89.2324 79.9082C89.6311 79.3931 90.0195 78.8707 90.3965 78.3418L90.8037 78.6319Z" fill="#101010"/>
<path d="M92.748 75.2051L92.9629 75.334C92.6254 75.8969 92.2763 76.4537 91.916 77.004L91.498 76.7305C91.8548 76.1858 92.2 75.6344 92.5342 75.0772L92.748 75.2051Z" fill="#101010"/>
<path d="M94.6309 71.7647L94.8545 71.876C94.5625 72.4642 94.2589 73.0472 93.9434 73.6241L93.5039 73.3838C93.8163 72.8127 94.1172 72.2356 94.4062 71.6534L94.6309 71.7647Z" fill="#101010"/>
<path d="M96.2334 68.1856L96.4658 68.2784C96.2215 68.888 95.9649 69.493 95.6963 70.0928L95.4678 69.9913L95.2393 69.8887C95.5052 69.2948 95.76 68.6955 96.002 68.0918L96.2334 68.1856Z" fill="#101010"/>
<path d="M97.5459 64.4893L97.7852 64.5635C97.5901 65.1912 97.382 65.8154 97.1621 66.4346L96.6914 66.2666C96.9091 65.6538 97.1146 65.0363 97.3076 64.4151L97.5459 64.4893Z" fill="#101010"/>
<path d="M98.5586 60.7002L98.8027 60.7559C98.6585 61.3973 98.5016 62.0356 98.332 62.67L98.0908 62.6055L97.8486 62.5411C98.0165 61.913 98.1727 61.2806 98.3154 60.6456L98.5586 60.7002Z" fill="#101010"/>
<path d="M99.5127 56.878C99.4204 57.5291 99.3144 58.1777 99.1963 58.8233L98.7051 58.7334C98.822 58.0944 98.9262 57.4522 99.0176 56.8077L99.5127 56.878Z" fill="#101010"/>
<path d="M99.6582 52.9405L99.9082 52.9561C99.8685 53.6129 99.8158 54.2682 99.75 54.9209L99.252 54.8702C99.3171 54.2241 99.3699 53.5759 99.4092 52.9258L99.6582 52.9405Z" fill="#101010"/>
<path d="M99.9971 50C99.9971 50.329 99.9939 50.6581 99.9873 50.9864L99.7373 50.9805L99.4873 50.9756C99.4938 50.6508 99.4971 50.3256 99.4971 50C99.4971 49.6745 99.4938 49.3493 99.4873 49.0245L99.7373 49.0186L99.9873 49.0137C99.9939 49.342 99.9971 49.6711 99.9971 50Z" fill="#101010"/>
<path d="M99.75 45.0791C99.8159 45.7319 99.8685 46.3871 99.9082 47.044L99.6582 47.0596L99.4092 47.0743C99.3699 46.4242 99.3171 45.776 99.252 45.1299L99.75 45.0791Z" fill="#101010"/>
<path d="M99.1963 41.1758C99.3144 41.8216 99.4204 42.4708 99.5127 43.1221L99.0176 43.1924C98.9262 42.5479 98.822 41.9057 98.7051 41.2666L98.9502 41.2207L99.1963 41.1758Z" fill="#101010"/>
<path d="M98.332 37.3301C98.5016 37.9646 98.6585 38.6028 98.8027 39.2442L98.5586 39.2989L98.3154 39.3545C98.1727 38.7195 98.0165 38.0871 97.8486 37.459L98.0908 37.3946L98.332 37.3301Z" fill="#101010"/>
<path d="M97.1621 33.5655C97.382 34.1847 97.5901 34.8089 97.7852 35.4366L97.5459 35.5108L97.3076 35.585C97.1146 34.9638 96.9091 34.3463 96.6914 33.7334L97.1621 33.5655Z" fill="#101010"/>
<path d="M95.6963 29.9073C95.9649 30.507 96.2215 31.1121 96.4658 31.7217L96.2334 31.8145L96.002 31.9073C95.76 31.3037 95.5052 30.7052 95.2393 30.1114L95.4678 30.0088L95.6963 29.9073Z" fill="#101010"/>
<path d="M93.9434 26.376C94.2589 26.9529 94.5625 27.5359 94.8545 28.1241L94.6309 28.2354L94.4062 28.3467C94.1172 27.7644 93.8163 27.1874 93.5039 26.6163L93.9434 26.376Z" fill="#101010"/>
<path d="M91.916 22.9961C92.2763 23.5464 92.6254 24.1032 92.9629 24.6661L92.748 24.795L92.5342 24.9229C92.2 24.3657 91.8548 23.8143 91.498 23.2696L91.916 22.9961Z" fill="#101010"/>
<path d="M89.6279 19.7862C90.0307 20.3066 90.4229 20.834 90.8037 21.3682L90.3965 21.6583C90.0195 21.1294 89.6311 20.607 89.2324 20.0918L89.6279 19.7862Z" fill="#101010"/>
<path d="M87.0957 16.7657C87.5382 17.2531 87.9702 17.7486 88.3916 18.251L88.1992 18.4112L88.0078 18.5723C87.5906 18.0749 87.1627 17.5842 86.7246 17.1016L87.0957 16.7657Z" fill="#101010"/>
<path d="M85.0449 14.6358C85.2799 14.866 85.5123 15.0989 85.7422 15.3331L85.5635 15.5079L85.3857 15.6827C85.1581 15.4507 84.9271 15.2212 84.6943 14.9932C84.4587 14.7624 84.2212 14.5335 83.9814 14.3077L84.1523 14.126L84.3242 13.9444C84.5663 14.1724 84.807 14.4027 85.0449 14.6358Z" fill="#101010"/>
<path d="M81.3115 11.3233C81.8299 11.7396 82.341 12.1662 82.8438 12.6036L82.5156 12.9805C82.0178 12.5474 81.5113 12.1252 80.998 11.7129L81.3115 11.3233Z" fill="#101010"/>
<path d="M78.1025 8.94634C78.6521 9.32089 79.1942 9.70719 79.7295 10.1036L79.5811 10.3038L79.4326 10.5049C78.9025 10.1124 78.3646 9.73038 77.8203 9.35942L77.9609 9.15337L78.1025 8.94634Z" fill="#101010"/>
<path d="M74.7168 6.82817C75.2942 7.15893 75.8661 7.50126 76.4307 7.85454L76.165 8.27837C75.606 7.92856 75.0405 7.58928 74.4688 7.26177L74.7168 6.82817Z" fill="#101010"/>
<path d="M71.1777 4.97954C71.7791 5.26449 72.3749 5.56111 72.9648 5.86919L72.8496 6.09087L72.7334 6.31255C72.1493 6.0075 71.5593 5.71384 70.9639 5.43169L71.0703 5.20513L71.1777 4.97954Z" fill="#101010"/>
<path d="M67.5059 3.4102C68.1277 3.6479 68.7446 3.89783 69.3564 4.15923L69.2588 4.3897L69.1602 4.61919C68.5542 4.36031 67.943 4.11339 67.3271 3.87798L67.416 3.64458L67.5059 3.4102Z" fill="#101010"/>
<path d="M63.7236 2.12993C64.3622 2.31909 64.9969 2.52007 65.627 2.73345L65.5469 2.97075L65.4668 3.20708C64.8427 2.99574 64.2136 2.79678 63.5811 2.60942L63.6523 2.36919L63.7236 2.12993Z" fill="#101010"/>
<path d="M59.8545 1.1436C60.5058 1.28312 61.1536 1.43551 61.7979 1.59966L61.6748 2.08403C61.0366 1.92141 60.3942 1.77107 59.749 1.63286L59.8545 1.1436Z" fill="#101010"/>
<path d="M55.9209 0.458055C56.5812 0.5472 57.2388 0.649583 57.8936 0.763719L57.8076 1.25591C57.1591 1.14286 56.5076 1.04244 55.8535 0.954149L55.8867 0.706102L55.9209 0.458055Z" fill="#101010"/>
<path d="M51.9463 0.076219C52.6117 0.114501 53.2752 0.165014 53.9365 0.228563L53.9131 0.477586L53.8887 0.72661C53.2336 0.663658 52.5761 0.61316 51.917 0.575242L51.9463 0.076219Z" fill="#101010"/>
<path d="M151.984 99.9893C151.657 99.9956 151.329 100 151 100C150.671 100 150.342 99.9956 150.015 99.9893L150.024 99.4902C150.349 99.4965 150.674 99.5 151 99.5C151.326 99.5 151.651 99.4965 151.976 99.4902L151.984 99.9893Z" fill="#101010"/>
<path d="M146.146 99.2646C146.788 99.3271 147.434 99.3773 148.083 99.415L148.055 99.9131C147.399 99.875 146.746 99.8249 146.098 99.7617L146.146 99.2646Z" fill="#101010"/>
<path d="M155.901 99.7617C155.253 99.8248 154.6 99.875 153.944 99.9131L153.936 99.7402L153.931 99.665L153.917 99.415C154.566 99.3773 155.212 99.3271 155.854 99.2646L155.901 99.7617Z" fill="#101010"/>
<path d="M142.293 98.7363C142.929 98.8492 143.57 98.9507 144.214 99.0391L144.146 99.5322C143.495 99.443 142.848 99.3425 142.206 99.2285L142.293 98.7363Z" fill="#101010"/>
<path d="M159.793 99.2285C159.151 99.3425 158.504 99.4431 157.854 99.5322L157.786 99.0391C158.43 98.9507 159.071 98.8492 159.707 98.7363L159.793 99.2285Z" fill="#101010"/>
<path d="M138.497 97.9072C139.122 98.0699 139.752 98.2208 140.387 98.3594L140.28 98.8477C139.639 98.7077 139.002 98.5549 138.371 98.3906L138.497 97.9072Z" fill="#101010"/>
<path d="M163.628 98.3906C162.997 98.5549 162.361 98.7077 161.72 98.8477L161.695 98.7363L161.613 98.3594C162.248 98.2208 162.878 98.0699 163.503 97.9072L163.628 98.3906Z" fill="#101010"/>
<path d="M134.776 96.7803C135.387 96.9922 136.004 97.1925 136.626 97.3809L136.553 97.6191L136.48 97.8584C135.852 97.6681 135.23 97.4651 134.612 97.251L134.776 96.7803Z" fill="#101010"/>
<path d="M167.387 97.251C166.769 97.4651 166.147 97.6681 165.519 97.8584L165.502 97.8027L165.446 97.6201L165.374 97.3809C165.996 97.1925 166.613 96.9922 167.224 96.7803L167.387 97.251Z" fill="#101010"/>
<path d="M131.158 95.3633C131.75 95.6227 132.349 95.8708 132.953 96.1074L132.771 96.5723C132.16 96.3331 131.557 96.0787 130.958 95.8164L131.058 95.5918L131.158 95.3633Z" fill="#101010"/>
<path d="M171.041 95.8164C170.442 96.0787 169.839 96.3331 169.229 96.5723L169.047 96.1074C169.651 95.8708 170.25 95.6227 170.842 95.3633L171.041 95.8164Z" fill="#101010"/>
<path d="M127.662 93.6641C128.233 93.9697 128.81 94.2643 129.394 94.5479L129.283 94.7725L129.284 94.7734L129.175 94.9961C128.585 94.7096 128.003 94.4103 127.427 94.1016L127.662 93.6641Z" fill="#101010"/>
<path d="M174.572 94.1016C173.996 94.4103 173.414 94.7096 172.824 94.9961L172.716 94.7734L172.606 94.5479C173.19 94.2643 173.767 93.9697 174.338 93.6641L174.572 94.1016Z" fill="#101010"/>
<path d="M124.31 91.6953C124.855 92.0449 125.408 92.3844 125.967 92.7129L125.714 93.1406C125.149 92.8089 124.59 92.4682 124.04 92.1152L124.31 91.6953Z" fill="#101010"/>
<path d="M177.959 92.1152C177.409 92.4682 176.85 92.8089 176.285 93.1406L176.033 92.7129C176.592 92.3844 177.145 92.0449 177.69 91.6953L177.959 92.1152Z" fill="#101010"/>
<path d="M121.123 89.4697C121.639 89.8609 122.163 90.2431 122.694 90.6143L122.551 90.8184L122.524 90.8584L122.41 91.0205C121.873 90.6456 121.343 90.2614 120.822 89.8662L121.123 89.4697Z" fill="#101010"/>
<path d="M181.177 89.8662C180.656 90.2614 180.126 90.6456 179.589 91.0205L179.448 90.8193L179.306 90.6143C179.837 90.2431 180.361 89.8609 180.877 89.4697L181.177 89.8662Z" fill="#101010"/>
<path d="M118.119 87.002C118.603 87.4325 119.097 87.8541 119.598 88.2656L119.28 88.6504C118.774 88.2347 118.278 87.8079 117.789 87.373L118.119 87.002Z" fill="#101010"/>
<path d="M184.21 87.373C183.721 87.8079 183.225 88.2347 182.719 88.6504L182.402 88.2656C182.903 87.8541 183.397 87.4325 183.881 87.002L184.21 87.373Z" fill="#101010"/>
<path d="M115.317 84.3076C115.767 84.7747 116.225 85.2334 116.692 85.6826L116.347 86.041C115.875 85.5872 115.412 85.1242 114.958 84.6523L115.317 84.3076Z" fill="#101010"/>
<path d="M187.041 84.6523C186.587 85.1242 186.124 85.5872 185.652 86.041L185.308 85.6826C185.775 85.2334 186.233 84.7747 186.683 84.3076L187.041 84.6523Z" fill="#101010"/>
<path d="M112.734 81.4023C113.146 81.9033 113.567 82.3967 113.998 82.8809L113.626 83.21C113.191 82.7209 112.764 82.2247 112.349 81.7188L112.734 81.4023Z" fill="#101010"/>
<path d="M189.65 81.7188C189.235 82.2247 188.808 82.7209 188.373 83.21L188.002 82.8809C188.433 82.3967 188.854 81.9033 189.266 81.4023L189.65 81.7188Z" fill="#101010"/>
<path d="M110.386 78.3057C110.757 78.8372 111.139 79.3609 111.53 79.877L111.33 80.0273L111.134 80.1768C110.739 79.6554 110.354 79.126 109.979 78.5889L110.386 78.3057Z" fill="#101010"/>
<path d="M191.818 78.4482L192.021 78.5889C191.645 79.126 191.261 79.6554 190.865 80.1768L190.669 80.0283L190.47 79.877C190.861 79.3609 191.243 78.8372 191.614 78.3057L191.818 78.4482Z" fill="#101010"/>
<path d="M108.287 75.0332C108.616 75.5925 108.955 76.1455 109.305 76.6904L108.884 76.959C108.531 76.4087 108.19 75.8499 107.858 75.2852L108.287 75.0332Z" fill="#101010"/>
<path d="M193.929 75.1602L194.141 75.2852C193.809 75.8499 193.468 76.4087 193.115 76.959L192.695 76.6904C193.045 76.1455 193.384 75.5925 193.713 75.0332L193.929 75.1602Z" fill="#101010"/>
<path d="M106.452 71.6064C106.736 72.1901 107.03 72.7674 107.336 73.3379L106.897 73.5723C106.589 72.9959 106.289 72.4138 106.003 71.8242L106.452 71.6064Z" fill="#101010"/>
<path d="M195.996 71.8242C195.71 72.4138 195.41 72.9959 195.102 73.5723L194.664 73.3379C194.97 72.7674 195.264 72.1901 195.548 71.6064L195.996 71.8242Z" fill="#101010"/>
<path d="M104.893 68.0469C105.129 68.651 105.377 69.2495 105.637 69.8418L105.407 69.9414L105.408 69.9424L105.183 70.041C104.92 69.4424 104.666 68.8391 104.427 68.2285L104.893 68.0469Z" fill="#101010"/>
<path d="M197.572 68.2285C197.333 68.8392 197.079 69.4423 196.816 70.041L196.363 69.8418C196.623 69.2495 196.871 68.651 197.107 68.0469L197.572 68.2285Z" fill="#101010"/>
<path d="M103.619 64.374C103.807 64.9957 104.008 65.6125 104.22 66.2236L103.748 66.3867C103.534 65.7693 103.331 65.1467 103.141 64.5186L103.619 64.374Z" fill="#101010"/>
<path d="M198.619 64.4463L198.858 64.5186C198.668 65.1467 198.465 65.7693 198.251 66.3867L197.78 66.2236C197.992 65.6125 198.193 64.9957 198.381 64.374L198.619 64.4463Z" fill="#101010"/>
<path d="M102.641 60.6133C102.779 61.2477 102.93 61.8779 103.093 62.5029L102.608 62.6279C102.444 61.9966 102.291 61.3605 102.151 60.7197L102.641 60.6133Z" fill="#101010"/>
<path d="M199.848 60.7197C199.708 61.3605 199.555 61.9966 199.391 62.6279L198.907 62.5029C199.07 61.8779 199.221 61.2476 199.359 60.6133L199.848 60.7197Z" fill="#101010"/>
<path d="M101.961 56.7861C102.049 57.4303 102.151 58.071 102.264 58.707L102.016 58.75L102.017 58.751L101.771 58.793C101.657 58.1507 101.556 57.504 101.467 56.8535L101.961 56.7861Z" fill="#101010"/>
<path d="M200.532 56.8535C200.443 57.504 200.342 58.1507 200.229 58.793L199.983 58.751L199.736 58.707C199.849 58.071 199.951 57.4303 200.039 56.7861L200.532 56.8535Z" fill="#101010"/>
<path d="M101.585 52.917C101.623 53.5662 101.673 54.2123 101.735 54.8545L101.237 54.9014C101.174 54.2526 101.124 53.6001 101.086 52.9443L101.585 52.917Z" fill="#101010"/>
<path d="M200.913 52.9443C200.875 53.6002 200.825 54.2526 200.762 54.9014L200.514 54.8789L200.265 54.8545C200.327 54.2123 200.377 53.5662 200.415 52.917L200.913 52.9443Z" fill="#101010"/>
<path d="M101.51 49.0244C101.503 49.3489 101.5 49.674 101.5 50C101.5 50.326 101.503 50.6511 101.51 50.9756L101.01 50.9844C101.003 50.657 101 50.3289 101 50C101 49.6708 101.003 49.3423 101.01 49.0146L101.51 49.0244Z" fill="#101010"/>
<path d="M201 50C201 50.3289 200.996 50.657 200.989 50.9844L200.49 50.9756C200.497 50.6511 200.5 50.326 200.5 50C200.5 49.674 200.497 49.3489 200.49 49.0244L200.989 49.0146C200.996 49.3423 201 49.6708 201 50Z" fill="#101010"/>
<path d="M101.486 45.1211L101.735 45.1455C101.673 45.7877 101.623 46.4338 101.585 47.083L101.086 47.0547C101.124 46.3989 101.174 45.7464 101.237 45.0977L101.486 45.1211Z" fill="#101010"/>
<path d="M200.762 45.0977C200.825 45.7464 200.875 46.3989 200.913 47.0547L200.665 47.0693L200.664 47.0684L200.415 47.083C200.377 46.4338 200.327 45.7877 200.265 45.1455L200.514 45.1211L200.762 45.0977Z" fill="#101010"/>
<path d="M102.017 41.249L102.264 41.293C102.151 41.929 102.049 42.5697 101.961 43.2139L101.467 43.1455C101.556 42.495 101.657 41.8483 101.771 41.2061L102.017 41.249Z" fill="#101010"/>
<path d="M200.229 41.2061C200.342 41.8483 200.443 42.495 200.532 43.1455L200.039 43.2139C199.951 42.5697 199.849 41.929 199.736 41.293L199.983 41.249L200.229 41.2061Z" fill="#101010"/>
<path d="M103.093 37.4971C102.93 38.1221 102.779 38.7524 102.641 39.3867L102.152 39.2803L102.151 39.2793C102.291 38.6385 102.444 38.0024 102.608 37.3711L103.093 37.4971Z" fill="#101010"/>
<path d="M199.391 37.3711C199.555 38.0024 199.708 38.6385 199.848 39.2793L199.359 39.3867C199.221 38.7523 199.07 38.1221 198.907 37.4971L199.391 37.3711Z" fill="#101010"/>
<path d="M104.22 33.7764C104.008 34.3875 103.807 35.0043 103.619 35.626L103.38 35.5527L103.141 35.4805C103.331 34.8524 103.534 34.2297 103.748 33.6123L104.22 33.7764Z" fill="#101010"/>
<path d="M198.251 33.6123C198.465 34.2297 198.668 34.8523 198.858 35.4805L198.62 35.5537L198.619 35.5527L198.381 35.626C198.193 35.0043 197.992 34.3875 197.78 33.7764L198.251 33.6123Z" fill="#101010"/>
<path d="M105.637 30.1582C105.377 30.7505 105.129 31.349 104.893 31.9531L104.427 31.7705C104.666 31.1599 104.92 30.5567 105.183 29.958L105.637 30.1582Z" fill="#101010"/>
<path d="M196.816 29.958C197.079 30.5567 197.333 31.1599 197.572 31.7705L197.107 31.9531C196.871 31.349 196.623 30.7505 196.363 30.1582L196.816 29.958Z" fill="#101010"/>
<path d="M107.336 26.6621C107.03 27.2326 106.736 27.8099 106.452 28.3936L106.227 28.2832L106.003 28.1748C106.289 27.5853 106.589 27.0031 106.897 26.4268L107.336 26.6621Z" fill="#101010"/>
<path d="M195.102 26.4268C195.41 27.0031 195.71 27.5852 195.996 28.1748L195.773 28.2842L195.772 28.2832L195.548 28.3936C195.264 27.8099 194.97 27.2326 194.664 26.6621L195.102 26.4268Z" fill="#101010"/>
<path d="M109.305 23.3096C108.955 23.8545 108.616 24.4075 108.287 24.9668L108.071 24.8389L107.858 24.7139C108.188 24.1528 108.526 23.5976 108.877 23.0508L108.884 23.04L109.305 23.3096Z" fill="#101010"/>
<path d="M193.115 23.04C193.468 23.5903 193.809 24.1491 194.141 24.7139L193.929 24.8398L193.928 24.8389L193.713 24.9668C193.384 24.4075 193.045 23.8545 192.695 23.3096L193.115 23.04Z" fill="#101010"/>
<path d="M111.331 19.9717L111.53 20.123C111.139 20.6391 110.757 21.1628 110.386 21.6943L110.181 21.5508L109.979 21.4102C110.354 20.8731 110.739 20.3436 111.134 19.8223L111.331 19.9717Z" fill="#101010"/>
<path d="M190.865 19.8223C191.261 20.3436 191.645 20.8731 192.021 21.4102L191.819 21.5518L191.818 21.5508L191.614 21.6943C191.243 21.1628 190.861 20.6391 190.47 20.123L190.865 19.8223Z" fill="#101010"/>
<path d="M113.998 17.1191C113.567 17.6033 113.146 18.0967 112.734 18.5977L112.349 18.2803C112.764 17.7744 113.191 17.2781 113.626 16.7891L113.998 17.1191Z" fill="#101010"/>
<path d="M188.373 16.7891C188.808 17.2781 189.235 17.7744 189.65 18.2803L189.266 18.5977C188.854 18.0967 188.433 17.6033 188.002 17.1191L188.373 16.7891Z" fill="#101010"/>
<path d="M116.692 14.3174C116.225 14.7666 115.767 15.2253 115.317 15.6924L114.958 15.3467C115.412 14.8748 115.875 14.4118 116.347 13.958L116.692 14.3174Z" fill="#101010"/>
<path d="M185.652 13.958C186.124 14.4118 186.587 14.8748 187.041 15.3467L186.683 15.6924C186.233 15.2253 185.775 14.7666 185.308 14.3174L185.652 13.958Z" fill="#101010"/>
<path d="M119.598 11.7344C119.097 12.1459 118.603 12.5675 118.119 12.998L117.789 12.626C118.278 12.1911 118.774 11.7643 119.28 11.3486L119.598 11.7344Z" fill="#101010"/>
<path d="M182.719 11.3486C183.225 11.7643 183.721 12.1911 184.21 12.626L183.881 12.998C183.397 12.5675 182.903 12.1459 182.402 11.7344L182.719 11.3486Z" fill="#101010"/>
<path d="M122.694 9.38574C122.163 9.7569 121.639 10.1391 121.123 10.5303L120.972 10.3301L120.822 10.1338C121.344 9.73851 121.873 9.35353 122.41 8.97852L122.694 9.38574Z" fill="#101010"/>
<path d="M179.589 8.97852C180.126 9.35352 180.655 9.73851 181.177 10.1338L181.028 10.3311L181.027 10.3301L180.877 10.5303C180.361 10.1391 179.837 9.7569 179.306 9.38574L179.589 8.97852Z" fill="#101010"/>
<path d="M125.967 7.28711C125.408 7.61562 124.855 7.95511 124.31 8.30469L124.04 7.88379C124.59 7.53079 125.149 7.19013 125.714 6.8584L125.967 7.28711Z" fill="#101010"/>
<path d="M176.285 6.8584C176.85 7.19013 177.409 7.5308 177.959 7.88379L177.69 8.30469C177.145 7.95511 176.592 7.61562 176.033 7.28711L176.285 6.8584Z" fill="#101010"/>
<path d="M129.394 5.45215C128.81 5.73575 128.233 6.03035 127.662 6.33594L127.427 5.89746C128.003 5.58877 128.585 5.28941 129.175 5.00293L129.394 5.45215Z" fill="#101010"/>
<path d="M172.824 5.00293C173.414 5.28941 173.996 5.58877 174.572 5.89746L174.338 6.33594C173.767 6.03035 173.19 5.73574 172.606 5.45215L172.721 5.21777L172.824 5.00293Z" fill="#101010"/>
<path d="M132.953 3.89258C132.349 4.12921 131.75 4.37729 131.158 4.63672L130.958 4.18262C131.557 3.92038 132.16 3.66595 132.771 3.42676L132.953 3.89258Z" fill="#101010"/>
<path d="M169.229 3.42676C169.839 3.66594 170.442 3.92039 171.041 4.18262L170.842 4.63672C170.25 4.37729 169.651 4.12921 169.047 3.89258L169.229 3.42676Z" fill="#101010"/>
<path d="M136.513 2.24805L136.626 2.61914C136.004 2.8075 135.387 3.00783 134.776 3.21973L134.612 2.74805C135.23 2.53396 135.852 2.33093 136.48 2.14062L136.513 2.24805Z" fill="#101010"/>
<path d="M165.519 2.14062C166.147 2.33092 166.769 2.53397 167.387 2.74805L167.224 3.21973C166.613 3.00783 165.996 2.8075 165.374 2.61914L165.519 2.14062Z" fill="#101010"/>
<path d="M140.28 1.15234L140.387 1.64062C139.752 1.7792 139.122 1.93012 138.497 2.09277L138.371 1.6084C139.002 1.4441 139.639 1.29135 140.279 1.15137L140.28 1.15234Z" fill="#101010"/>
<path d="M161.72 1.15137C162.361 1.29134 162.997 1.44411 163.628 1.6084L163.503 2.09277C162.878 1.93013 162.248 1.7792 161.613 1.64062L161.72 1.15137Z" fill="#101010"/>
<path d="M144.214 0.960938C143.57 1.04926 142.929 1.15081 142.293 1.26367L142.229 0.907227L142.206 0.770508C142.848 0.656551 143.495 0.55598 144.146 0.466797L144.214 0.960938Z" fill="#101010"/>
<path d="M157.854 0.466797C158.504 0.555968 159.151 0.656563 159.793 0.770508L159.771 0.907227L159.707 1.26367C159.071 1.15081 158.43 1.04926 157.786 0.960938L157.854 0.466797Z" fill="#101010"/>
<path d="M148.065 0.27832L148.083 0.584961C147.434 0.622683 146.788 0.672849 146.146 0.735352L146.121 0.485352L146.098 0.237305C146.746 0.17417 147.399 0.124033 148.055 0.0859375L148.065 0.27832Z" fill="#101010"/>
<path d="M153.944 0.0859375C154.6 0.124021 155.253 0.174183 155.901 0.237305L155.879 0.486328L155.878 0.485352L155.854 0.735352C155.212 0.672849 154.566 0.622683 153.917 0.584961L153.944 0.0859375Z" fill="#101010"/>
<path d="M151.984 0.00976562L151.976 0.509766C151.651 0.503495 151.326 0.5 151 0.5C150.674 0.5 150.349 0.503495 150.024 0.509766L150.015 0.00976562C150.342 0.0034316 150.671 0 151 0C151.329 0 151.657 0.00344414 151.984 0.00976562Z" fill="#101010"/>
<path d="M141 40.5H150V49.5H141V40.5Z" fill="#101010"/>
<path d="M151 40.5H160V49.5H151V40.5Z" fill="#101010"/>
<path d="M141 50.5H150V59.5H141V50.5Z" fill="#101010"/>
<path d="M151 50.5H160V59.5H151V50.5Z" fill="#101010"/>
</svg>
