<svg width="948" height="316" viewBox="0 0 948 316" fill="none" xmlns="http://www.w3.org/2000/svg">
<path d="M159.52 315.99C159.014 315.995 158.507 316 158 316C157.493 316 156.986 315.995 156.479 315.99L156.489 314.993C156.992 314.998 157.496 315 158 315C158.504 315 159.008 314.998 159.511 314.993L159.52 315.99Z" fill="#2F529E"/>
<path d="M475.52 315.99C475.014 315.995 474.507 316 474 316C473.493 316 472.986 315.995 472.479 315.99L472.489 314.993C472.992 314.998 473.496 315 474 315C474.504 315 475.008 314.998 475.511 314.993L475.52 315.99Z" fill="#2F529E"/>
<path d="M791.52 315.99C791.014 315.995 790.507 316 790 316C789.493 316 788.986 315.995 788.479 315.99L788.489 314.993C788.992 314.998 789.496 315 790 315C790.504 315 791.008 314.998 791.511 314.993L791.52 315.99Z" fill="#2F529E"/>
<path d="M150.479 314.823C151.476 314.87 152.476 314.908 153.478 314.937L153.449 315.933C152.441 315.904 151.436 315.866 150.433 315.818L150.479 314.823Z" fill="#2F529E"/>
<path d="M165.544 315.322L165.566 315.818C164.564 315.866 163.558 315.904 162.551 315.933L162.548 315.794L162.537 315.436L162.523 314.937C163.525 314.908 164.524 314.87 165.521 314.823L165.544 315.322Z" fill="#2F529E"/>
<path d="M466.479 314.823C467.476 314.87 468.476 314.908 469.478 314.937L469.449 315.933C468.441 315.904 467.436 315.866 466.433 315.818L466.479 314.823Z" fill="#2F529E"/>
<path d="M481.544 315.322L481.566 315.818C480.564 315.866 479.558 315.904 478.551 315.933L478.548 315.794L478.537 315.436L478.523 314.937C479.525 314.908 480.524 314.87 481.521 314.823L481.544 315.322Z" fill="#2F529E"/>
<path d="M782.479 314.823C783.476 314.87 784.476 314.908 785.478 314.937L785.449 315.933C784.441 315.904 783.436 315.866 782.433 315.818L782.479 314.823Z" fill="#2F529E"/>
<path d="M797.544 315.322L797.566 315.818C796.564 315.866 795.558 315.904 794.551 315.933L794.548 315.794L794.537 315.436L794.523 314.937C795.525 314.908 796.524 314.87 797.521 314.823L797.544 315.322Z" fill="#2F529E"/>
<path d="M144.471 314.425C145.468 314.51 146.468 314.586 147.471 314.652L147.404 315.647C146.395 315.581 145.389 315.504 144.386 315.418L144.471 314.425Z" fill="#2F529E"/>
<path d="M171.613 315.418C170.61 315.504 169.604 315.581 168.595 315.647L168.529 314.652C169.532 314.586 170.532 314.51 171.529 314.425L171.613 315.418Z" fill="#2F529E"/>
<path d="M460.471 314.425C461.468 314.51 462.468 314.586 463.471 314.652L463.404 315.647C462.395 315.581 461.389 315.504 460.386 315.418L460.471 314.425Z" fill="#2F529E"/>
<path d="M487.613 315.418C486.61 315.504 485.604 315.581 484.595 315.647L484.529 314.652C485.532 314.586 486.532 314.51 487.529 314.425L487.613 315.418Z" fill="#2F529E"/>
<path d="M776.471 314.425C777.468 314.51 778.468 314.586 779.471 314.652L779.404 315.647C778.395 315.581 777.389 315.504 776.386 315.418L776.471 314.425Z" fill="#2F529E"/>
<path d="M803.613 315.418C802.61 315.504 801.604 315.581 800.595 315.647L800.529 314.652C801.532 314.586 802.532 314.51 803.529 314.425L803.613 315.418Z" fill="#2F529E"/>
<path d="M138.487 313.8C139.483 313.923 140.482 314.037 141.483 314.142L141.379 315.134C140.371 315.028 139.367 314.913 138.365 314.789L138.487 313.8Z" fill="#2F529E"/>
<path d="M177.635 314.789C176.633 314.913 175.628 315.028 174.62 315.134L174.518 314.142C175.519 314.037 176.517 313.923 177.513 313.8L177.635 314.789Z" fill="#2F529E"/>
<path d="M454.487 313.8C455.483 313.923 456.482 314.037 457.483 314.142L457.379 315.134C456.371 315.028 455.367 314.913 454.365 314.789L454.487 313.8Z" fill="#2F529E"/>
<path d="M493.635 314.789C492.633 314.913 491.628 315.028 490.62 315.134L490.518 314.142C491.519 314.037 492.517 313.923 493.513 313.8L493.635 314.789Z" fill="#2F529E"/>
<path d="M770.487 313.8C771.483 313.923 772.482 314.037 773.483 314.142L773.379 315.134C772.371 315.028 771.367 314.913 770.365 314.789L770.487 313.8Z" fill="#2F529E"/>
<path d="M809.635 314.789C808.633 314.913 807.628 315.028 806.62 315.134L806.518 314.142C807.519 314.037 808.517 313.923 809.513 313.8L809.635 314.789Z" fill="#2F529E"/>
<path d="M132.537 312.946C133.525 313.107 134.516 313.259 135.51 313.401L135.368 314.388C134.368 314.244 133.37 314.093 132.376 313.931L132.537 312.946Z" fill="#2F529E"/>
<path d="M183.544 313.439L183.623 313.931C182.629 314.093 181.631 314.244 180.631 314.388L180.49 313.401C181.484 313.259 182.475 313.106 183.463 312.945L183.544 313.439Z" fill="#2F529E"/>
<path d="M448.537 312.946C449.525 313.107 450.516 313.259 451.51 313.401L451.368 314.388C450.368 314.244 449.37 314.093 448.376 313.931L448.537 312.946Z" fill="#2F529E"/>
<path d="M499.544 313.439L499.623 313.931C498.629 314.093 497.631 314.244 496.631 314.388L496.49 313.401C497.484 313.259 498.475 313.106 499.463 312.945L499.544 313.439Z" fill="#2F529E"/>
<path d="M764.537 312.946C765.525 313.107 766.516 313.259 767.51 313.401L767.368 314.388C766.368 314.244 765.37 314.093 764.376 313.931L764.537 312.946Z" fill="#2F529E"/>
<path d="M815.544 313.439L815.623 313.931C814.629 314.093 813.631 314.244 812.631 314.388L812.49 313.401C813.484 313.259 814.475 313.106 815.463 312.945L815.544 313.439Z" fill="#2F529E"/>
<path d="M126.624 311.864C127.603 312.063 128.585 312.252 129.57 312.433L129.479 312.924L129.48 312.925L129.434 313.181L129.391 313.413C128.399 313.232 127.41 313.043 126.425 312.843L126.624 311.864Z" fill="#2F529E"/>
<path d="M189.574 312.843C188.589 313.043 187.6 313.232 186.608 313.413L186.566 313.181L186.43 312.433C187.415 312.252 188.397 312.063 189.376 311.864L189.574 312.843Z" fill="#2F529E"/>
<path d="M442.624 311.864C443.603 312.063 444.585 312.252 445.57 312.433L445.479 312.924L445.48 312.925L445.434 313.181L445.391 313.413C444.399 313.232 443.41 313.043 442.425 312.843L442.624 311.864Z" fill="#2F529E"/>
<path d="M505.574 312.843C504.589 313.043 503.6 313.232 502.608 313.413L502.566 313.181L502.43 312.433C503.415 312.252 504.397 312.063 505.376 311.864L505.574 312.843Z" fill="#2F529E"/>
<path d="M758.624 311.864C759.603 312.063 760.585 312.252 761.57 312.433L761.479 312.924L761.48 312.925L761.434 313.181L761.391 313.413C760.399 313.232 759.41 313.043 758.425 312.843L758.624 311.864Z" fill="#2F529E"/>
<path d="M821.574 312.843C820.589 313.043 819.6 313.232 818.608 313.413L818.566 313.181L818.43 312.433C819.415 312.252 820.397 312.063 821.376 311.864L821.574 312.843Z" fill="#2F529E"/>
<path d="M120.748 310.555C121.721 310.791 122.697 311.019 123.677 311.237L123.459 312.21C122.473 311.99 121.491 311.763 120.512 311.524L120.748 310.555Z" fill="#2F529E"/>
<path d="M195.487 311.524C194.509 311.763 193.526 311.99 192.54 312.21L192.323 311.237C193.303 311.019 194.279 310.791 195.252 310.555L195.487 311.524Z" fill="#2F529E"/>
<path d="M436.748 310.555C437.721 310.791 438.697 311.019 439.677 311.237L439.459 312.21C438.473 311.99 437.491 311.763 436.512 311.524L436.748 310.555Z" fill="#2F529E"/>
<path d="M511.487 311.524C510.509 311.763 509.526 311.99 508.54 312.21L508.323 311.237C509.303 311.019 510.279 310.791 511.252 310.555L511.487 311.524Z" fill="#2F529E"/>
<path d="M752.748 310.555C753.721 310.791 754.697 311.019 755.677 311.237L755.459 312.21C754.473 311.99 753.49 311.763 752.512 311.524L752.748 310.555Z" fill="#2F529E"/>
<path d="M827.487 311.524C826.509 311.763 825.526 311.99 824.54 312.21L824.323 311.237C825.303 311.019 826.279 310.791 827.252 310.555L827.487 311.524Z" fill="#2F529E"/>
<path d="M114.932 309.02C115.896 309.294 116.864 309.559 117.836 309.815L117.708 310.299L117.58 310.779C116.603 310.521 115.628 310.257 114.658 309.98L114.932 309.02Z" fill="#2F529E"/>
<path d="M201.341 309.98C200.371 310.257 199.396 310.521 198.419 310.779L198.164 309.815C199.136 309.559 200.104 309.294 201.068 309.02L201.341 309.98Z" fill="#2F529E"/>
<path d="M430.932 309.02C431.896 309.294 432.864 309.559 433.836 309.815L433.708 310.299L433.58 310.779C432.603 310.521 431.628 310.257 430.658 309.98L430.932 309.02Z" fill="#2F529E"/>
<path d="M517.341 309.98C516.371 310.257 515.396 310.521 514.419 310.779L514.164 309.815C515.136 309.559 516.104 309.294 517.068 309.02L517.341 309.98Z" fill="#2F529E"/>
<path d="M746.932 309.02C747.896 309.294 748.864 309.559 749.836 309.815L749.708 310.299L749.58 310.779C748.603 310.521 747.628 310.257 746.658 309.98L746.932 309.02Z" fill="#2F529E"/>
<path d="M833.341 309.98C832.371 310.257 831.396 310.521 830.419 310.779L830.164 309.815C831.136 309.559 832.104 309.294 833.068 309.02L833.341 309.98Z" fill="#2F529E"/>
<path d="M109.181 307.262C110.133 307.573 111.09 307.875 112.051 308.169L111.759 309.122C110.792 308.827 109.829 308.523 108.87 308.21L109.181 307.262Z" fill="#2F529E"/>
<path d="M207.129 308.21C206.17 308.523 205.207 308.827 204.24 309.122L203.949 308.169C204.91 307.875 205.867 307.573 206.819 307.262L207.129 308.21Z" fill="#2F529E"/>
<path d="M425.181 307.262C426.133 307.573 427.09 307.875 428.051 308.169L427.759 309.122C426.792 308.827 425.829 308.523 424.87 308.21L425.181 307.262Z" fill="#2F529E"/>
<path d="M523.129 308.21C522.17 308.523 521.207 308.827 520.24 309.122L519.949 308.169C520.91 307.875 521.867 307.573 522.819 307.262L523.129 308.21Z" fill="#2F529E"/>
<path d="M741.181 307.262C742.133 307.573 743.09 307.875 744.051 308.169L743.759 309.122C742.792 308.827 741.829 308.523 740.87 308.21L741.181 307.262Z" fill="#2F529E"/>
<path d="M839.129 308.21C838.17 308.523 837.207 308.827 836.24 309.122L835.949 308.169C836.91 307.875 837.867 307.573 838.819 307.262L839.129 308.21Z" fill="#2F529E"/>
<path d="M103.503 305.284C104.441 305.632 105.384 305.97 106.331 306.3L106.063 307.066L106.002 307.241C105.049 306.909 104.101 306.569 103.156 306.22L103.503 305.284Z" fill="#2F529E"/>
<path d="M212.843 306.22C211.898 306.569 210.95 306.909 209.997 307.241L209.937 307.066L209.669 306.3C210.616 305.97 211.559 305.632 212.497 305.284L212.843 306.22Z" fill="#2F529E"/>
<path d="M419.503 305.284C420.441 305.632 421.384 305.97 422.331 306.3L422.063 307.066L422.002 307.241C421.049 306.909 420.101 306.569 419.156 306.22L419.503 305.284Z" fill="#2F529E"/>
<path d="M528.843 306.22C527.898 306.569 526.95 306.909 525.997 307.241L525.937 307.066L525.669 306.3C526.616 305.97 527.559 305.632 528.497 305.284L528.843 306.22Z" fill="#2F529E"/>
<path d="M735.503 305.284C736.441 305.632 737.384 305.97 738.331 306.3L738.063 307.066L738.002 307.241C737.049 306.909 736.101 306.569 735.156 306.22L735.503 305.284Z" fill="#2F529E"/>
<path d="M844.843 306.22C843.898 306.569 842.95 306.909 841.997 307.241L841.937 307.066L841.669 306.3C842.616 305.97 843.559 305.632 844.497 305.284L844.843 306.22Z" fill="#2F529E"/>
<path d="M97.9023 303.087C98.8269 303.47 99.7561 303.846 100.689 304.212L100.325 305.142C99.3856 304.773 98.4512 304.394 97.5205 304.008L97.9023 303.087Z" fill="#2F529E"/>
<path d="M413.902 303.087C414.827 303.47 415.756 303.846 416.689 304.212L416.325 305.142C415.386 304.773 414.451 304.394 413.521 304.008L413.902 303.087Z" fill="#2F529E"/>
<path d="M729.902 303.087C730.827 303.47 731.756 303.846 732.689 304.212L732.325 305.142C731.386 304.773 730.451 304.394 729.521 304.008L729.902 303.087Z" fill="#2F529E"/>
<path d="M218.479 304.008C217.548 304.394 216.614 304.772 215.675 305.141L215.311 304.212C216.244 303.846 217.173 303.47 218.098 303.087L218.479 304.008Z" fill="#2F529E"/>
<path d="M534.479 304.008C533.548 304.394 532.614 304.772 531.675 305.141L531.311 304.212C532.244 303.846 533.173 303.47 534.098 303.087L534.479 304.008Z" fill="#2F529E"/>
<path d="M850.479 304.008C849.548 304.394 848.614 304.772 847.675 305.141L847.311 304.212C848.244 303.846 849.173 303.47 850.098 303.087L850.479 304.008Z" fill="#2F529E"/>
<path d="M92.3906 300.676C93.3007 301.095 94.2154 301.506 95.1348 301.908L94.7344 302.823C93.8091 302.418 92.8895 302.003 91.9736 301.581L92.3906 300.676Z" fill="#2F529E"/>
<path d="M224.026 301.581C223.11 302.003 222.19 302.418 221.265 302.823L220.865 301.908C221.785 301.506 222.699 301.095 223.609 300.676L224.026 301.581Z" fill="#2F529E"/>
<path d="M408.391 300.676C409.301 301.095 410.215 301.506 411.135 301.908L410.734 302.823C409.809 302.418 408.89 302.003 407.974 301.581L408.391 300.676Z" fill="#2F529E"/>
<path d="M540.026 301.581C539.11 302.003 538.19 302.418 537.265 302.823L536.865 301.908C537.785 301.506 538.699 301.095 539.609 300.676L540.026 301.581Z" fill="#2F529E"/>
<path d="M724.391 300.676C725.301 301.095 726.215 301.506 727.135 301.908L726.734 302.823C725.809 302.418 724.89 302.003 723.974 301.581L724.391 300.676Z" fill="#2F529E"/>
<path d="M856.026 301.581C855.11 302.003 854.19 302.418 853.265 302.823L852.865 301.908C853.785 301.506 854.699 301.095 855.609 300.676L856.026 301.581Z" fill="#2F529E"/>
<path d="M86.9766 298.055C87.8706 298.509 88.7701 298.955 89.6738 299.393L89.2373 300.291C88.3279 299.851 87.424 299.4 86.5244 298.943L86.9766 298.055Z" fill="#2F529E"/>
<path d="M229.25 298.5L229.475 298.943C228.575 299.4 227.671 299.851 226.762 300.291L226.326 299.393C227.23 298.955 228.129 298.509 229.023 298.055L229.25 298.5Z" fill="#2F529E"/>
<path d="M402.977 298.055C403.871 298.509 404.77 298.955 405.674 299.393L405.237 300.291C404.328 299.851 403.424 299.4 402.524 298.943L402.977 298.055Z" fill="#2F529E"/>
<path d="M545.25 298.5L545.475 298.943C544.575 299.4 543.671 299.851 542.762 300.291L542.326 299.393C543.23 298.955 544.129 298.509 545.023 298.055L545.25 298.5Z" fill="#2F529E"/>
<path d="M718.977 298.055C719.871 298.509 720.77 298.955 721.674 299.393L721.237 300.291C720.328 299.851 719.424 299.4 718.524 298.943L718.977 298.055Z" fill="#2F529E"/>
<path d="M861.25 298.5L861.475 298.943C860.575 299.4 859.671 299.851 858.762 300.291L858.326 299.393C859.23 298.955 860.129 298.509 861.023 298.055L861.25 298.5Z" fill="#2F529E"/>
<path d="M81.668 295.228C82.5432 295.715 83.4241 296.195 84.3096 296.667L83.8408 297.547C82.9497 297.072 82.0625 296.592 81.1816 296.101L81.668 295.228Z" fill="#2F529E"/>
<path d="M234.575 295.664L234.817 296.101C233.937 296.592 233.049 297.072 232.158 297.547L231.69 296.667C232.576 296.195 233.457 295.715 234.332 295.228L234.575 295.664Z" fill="#2F529E"/>
<path d="M397.668 295.228C398.543 295.715 399.424 296.195 400.31 296.667L399.841 297.547C398.95 297.072 398.062 296.592 397.182 296.101L397.668 295.228Z" fill="#2F529E"/>
<path d="M550.575 295.664L550.817 296.101C549.937 296.592 549.049 297.072 548.158 297.547L547.69 296.667C548.576 296.195 549.457 295.715 550.332 295.228L550.575 295.664Z" fill="#2F529E"/>
<path d="M713.668 295.228C714.543 295.715 715.424 296.195 716.31 296.667L715.841 297.547C714.95 297.072 714.062 296.592 713.182 296.101L713.668 295.228Z" fill="#2F529E"/>
<path d="M866.575 295.664L866.817 296.101C865.937 296.592 865.049 297.072 864.158 297.547L863.69 296.667C864.576 296.195 865.457 295.715 866.332 295.228L866.575 295.664Z" fill="#2F529E"/>
<path d="M76.4727 292.199C77.3281 292.72 78.1887 293.233 79.0547 293.738L78.5527 294.599C77.681 294.091 76.8131 293.577 75.9521 293.053L76 292.975L76.4727 292.199Z" fill="#2F529E"/>
<path d="M240.047 293.053C239.186 293.577 238.319 294.091 237.447 294.599L236.945 293.738C237.811 293.233 238.672 292.72 239.527 292.199L240.047 293.053Z" fill="#2F529E"/>
<path d="M392.473 292.199C393.328 292.72 394.189 293.233 395.055 293.738L394.553 294.599C393.681 294.091 392.813 293.577 391.952 293.053L392 292.975L392.473 292.199Z" fill="#2F529E"/>
<path d="M556.047 293.053C555.186 293.577 554.319 294.091 553.447 294.599L552.945 293.738C553.811 293.233 554.672 292.72 555.527 292.199L556.047 293.053Z" fill="#2F529E"/>
<path d="M708.473 292.199C709.328 292.72 710.189 293.233 711.055 293.738L710.553 294.599C709.681 294.091 708.813 293.577 707.952 293.053L708 292.975L708.473 292.199Z" fill="#2F529E"/>
<path d="M872.047 293.053C871.186 293.577 870.319 294.091 869.447 294.599L868.945 293.738C869.811 293.233 870.672 292.72 871.527 292.199L872.047 293.053Z" fill="#2F529E"/>
<path d="M71.3945 288.973C72.2298 289.526 73.0706 290.073 73.917 290.61L73.6484 291.031L73.6006 291.108L73.3818 291.451C72.5299 290.91 71.6835 290.361 70.8428 289.804L71.3945 288.973Z" fill="#2F529E"/>
<path d="M245.156 289.804C244.316 290.361 243.469 290.91 242.617 291.451L242.083 290.609C242.929 290.072 243.77 289.526 244.605 288.973L245.156 289.804Z" fill="#2F529E"/>
<path d="M387.395 288.973C388.23 289.526 389.071 290.073 389.917 290.61L389.648 291.031L389.601 291.108L389.382 291.451C388.53 290.91 387.684 290.361 386.843 289.804L387.395 288.973Z" fill="#2F529E"/>
<path d="M561.156 289.804C560.315 290.361 559.469 290.91 558.617 291.451L558.083 290.609C558.929 290.072 559.77 289.526 560.605 288.973L561.156 289.804Z" fill="#2F529E"/>
<path d="M703.395 288.973C704.23 289.526 705.071 290.073 705.917 290.61L705.648 291.031L705.601 291.108L705.382 291.451C704.53 290.91 703.684 290.361 702.843 289.804L703.395 288.973Z" fill="#2F529E"/>
<path d="M877.156 289.804C876.315 290.361 875.469 290.91 874.617 291.451L874.083 290.609C874.929 290.072 875.77 289.526 876.605 288.973L877.156 289.804Z" fill="#2F529E"/>
<path d="M66.4443 285.555C67.2582 286.14 68.0779 286.718 68.9033 287.288L68.335 288.108C67.5047 287.535 66.681 286.953 65.8623 286.364L66.4443 285.555Z" fill="#2F529E"/>
<path d="M250.137 286.364C249.318 286.953 248.494 287.535 247.664 288.108L247.097 287.288C247.922 286.718 248.742 286.14 249.556 285.555L250.137 286.364Z" fill="#2F529E"/>
<path d="M382.444 285.555C383.258 286.14 384.078 286.718 384.903 287.288L384.335 288.108C383.505 287.535 382.681 286.953 381.862 286.364L382.444 285.555Z" fill="#2F529E"/>
<path d="M566.137 286.364C565.318 286.953 564.494 287.535 563.664 288.108L563.097 287.288C563.922 286.718 564.742 286.14 565.556 285.555L566.137 286.364Z" fill="#2F529E"/>
<path d="M698.444 285.555C699.258 286.14 700.078 286.718 700.903 287.288L700.335 288.108C699.505 287.535 698.681 286.953 697.862 286.364L698.444 285.555Z" fill="#2F529E"/>
<path d="M882.137 286.364C881.318 286.953 880.494 287.535 879.664 288.108L879.097 287.288C879.922 286.718 880.742 286.14 881.556 285.555L882.137 286.364Z" fill="#2F529E"/>
<path d="M61.6279 281.95C62.419 282.566 63.2164 283.175 64.0195 283.776L63.7197 284.176L63.4209 284.577C62.6124 283.972 61.8111 283.356 61.0146 282.736L61.6279 281.95Z" fill="#2F529E"/>
<path d="M254.984 282.736C254.188 283.356 253.388 283.972 252.579 284.577L252.279 284.177L251.98 283.776C252.784 283.175 253.581 282.566 254.372 281.95L254.984 282.736Z" fill="#2F529E"/>
<path d="M377.628 281.95C378.419 282.566 379.216 283.175 380.02 283.776L379.72 284.176L379.421 284.577C378.612 283.972 377.811 283.356 377.015 282.736L377.628 281.95Z" fill="#2F529E"/>
<path d="M570.984 282.736C570.188 283.356 569.388 283.972 568.579 284.577L568.279 284.177L567.98 283.776C568.784 283.175 569.581 282.566 570.372 281.95L570.984 282.736Z" fill="#2F529E"/>
<path d="M693.628 281.95C694.419 282.566 695.216 283.175 696.02 283.776L695.72 284.176L695.421 284.577C694.612 283.972 693.811 283.356 693.015 282.736L693.628 281.95Z" fill="#2F529E"/>
<path d="M886.984 282.736C886.188 283.356 885.388 283.972 884.579 284.577L884.279 284.177L883.98 283.776C884.784 283.175 885.581 282.566 886.372 281.95L886.984 282.736Z" fill="#2F529E"/>
<path d="M56.9531 278.165C57.7199 278.81 58.4933 279.449 59.2725 280.08L58.6445 280.855C57.8603 280.22 57.0822 279.578 56.3105 278.929L56.9531 278.165Z" fill="#2F529E"/>
<path d="M259.688 278.929C258.917 279.578 258.139 280.22 257.354 280.855L256.728 280.08C257.507 279.449 258.28 278.81 259.047 278.165L259.688 278.929Z" fill="#2F529E"/>
<path d="M372.953 278.165C373.72 278.81 374.493 279.449 375.272 280.08L374.645 280.855C373.86 280.22 373.082 279.578 372.311 278.929L372.953 278.165Z" fill="#2F529E"/>
<path d="M575.688 278.929C574.917 279.578 574.139 280.22 573.354 280.855L572.728 280.08C573.507 279.449 574.28 278.81 575.047 278.165L575.688 278.929Z" fill="#2F529E"/>
<path d="M688.953 278.165C689.72 278.81 690.493 279.449 691.272 280.08L690.645 280.855C689.86 280.22 689.082 279.578 688.311 278.929L688.953 278.165Z" fill="#2F529E"/>
<path d="M891.688 278.929C890.917 279.578 890.139 280.22 889.354 280.855L888.728 280.08C889.507 279.449 890.28 278.81 891.047 278.165L891.688 278.929Z" fill="#2F529E"/>
<path d="M52.4268 274.205C53.1683 274.879 53.9165 275.546 54.6709 276.206L54.0137 276.957C53.2542 276.293 52.5004 275.622 51.7539 274.943L52.0898 274.575L52.4268 274.205Z" fill="#2F529E"/>
<path d="M263.91 274.574L264.245 274.943C263.499 275.622 262.745 276.293 261.985 276.957L261.329 276.206C262.084 275.546 262.833 274.879 263.574 274.205L263.91 274.574Z" fill="#2F529E"/>
<path d="M368.427 274.205C369.168 274.879 369.917 275.546 370.671 276.206L370.014 276.957C369.254 276.293 368.5 275.622 367.754 274.943L368.09 274.575L368.427 274.205Z" fill="#2F529E"/>
<path d="M579.91 274.574L580.245 274.943C579.499 275.622 578.745 276.293 577.985 276.957L577.329 276.206C578.084 275.546 578.833 274.879 579.574 274.205L579.91 274.574Z" fill="#2F529E"/>
<path d="M684.427 274.205C685.168 274.879 685.917 275.546 686.671 276.206L686.014 276.957C685.254 276.293 684.5 275.622 683.754 274.943L684.09 274.575L684.427 274.205Z" fill="#2F529E"/>
<path d="M895.91 274.574L896.245 274.943C895.499 275.622 894.745 276.293 893.985 276.957L893.329 276.206C894.084 275.546 894.833 274.879 895.574 274.205L895.91 274.574Z" fill="#2F529E"/>
<path d="M48.0527 270.074C48.7684 270.776 49.4908 271.472 50.2197 272.16L49.5342 272.885C48.8007 272.192 48.0736 271.493 47.3535 270.786L47.7021 270.431L48.0527 270.074Z" fill="#2F529E"/>
<path d="M268.646 270.786C267.925 271.493 267.198 272.192 266.465 272.885L265.78 272.16C266.509 271.472 267.232 270.776 267.947 270.074L268.646 270.786Z" fill="#2F529E"/>
<path d="M364.053 270.074C364.768 270.776 365.491 271.472 366.22 272.16L365.534 272.885C364.801 272.192 364.074 271.493 363.354 270.786L363.702 270.431L364.053 270.074Z" fill="#2F529E"/>
<path d="M584.646 270.786C583.925 271.493 583.198 272.192 582.465 272.885L581.78 272.16C582.509 271.472 583.232 270.776 583.947 270.074L584.646 270.786Z" fill="#2F529E"/>
<path d="M680.053 270.074C680.768 270.776 681.491 271.472 682.22 272.16L681.534 272.885C680.801 272.192 680.074 271.493 679.354 270.786L679.702 270.431L680.053 270.074Z" fill="#2F529E"/>
<path d="M900.646 270.786C899.925 271.493 899.198 272.192 898.465 272.885L897.78 272.16C898.509 271.472 899.232 270.776 899.947 270.074L900.646 270.786Z" fill="#2F529E"/>
<path d="M43.8398 265.78C44.5283 266.509 45.2236 267.232 45.9258 267.947L45.5684 268.297L45.2129 268.646C44.5064 267.925 43.807 267.198 43.1143 266.465L43.8398 265.78Z" fill="#2F529E"/>
<path d="M272.885 266.465C272.192 267.198 271.493 267.925 270.786 268.646L270.431 268.298L270.074 267.947C270.776 267.232 271.472 266.509 272.16 265.78L272.885 266.465Z" fill="#2F529E"/>
<path d="M359.84 265.78C360.528 266.509 361.224 267.232 361.926 267.947L361.568 268.297L361.213 268.646C360.506 267.925 359.807 267.198 359.114 266.465L359.84 265.78Z" fill="#2F529E"/>
<path d="M588.885 266.465C588.192 267.198 587.493 267.925 586.786 268.646L586.431 268.298L586.074 267.947C586.776 267.232 587.472 266.509 588.16 265.78L588.885 266.465Z" fill="#2F529E"/>
<path d="M675.84 265.78C676.528 266.509 677.224 267.232 677.926 267.947L677.568 268.297L677.213 268.646C676.506 267.925 675.807 267.198 675.114 266.465L675.84 265.78Z" fill="#2F529E"/>
<path d="M904.885 266.465C904.192 267.198 903.493 267.925 902.786 268.646L902.431 268.298L902.074 267.947C902.776 267.232 903.472 266.509 904.16 265.78L904.885 266.465Z" fill="#2F529E"/>
<path d="M39.7939 261.329C40.4541 262.084 41.1207 262.833 41.7949 263.574L41.4248 263.909L41.0557 264.245C40.3771 263.499 39.7064 262.745 39.042 261.985L39.7939 261.329Z" fill="#2F529E"/>
<path d="M276.582 261.658L276.957 261.985C276.293 262.745 275.622 263.499 274.943 264.245L274.205 263.573C274.879 262.832 275.546 262.083 276.206 261.329L276.582 261.658Z" fill="#2F529E"/>
<path d="M355.794 261.329C356.454 262.084 357.121 262.833 357.795 263.574L357.425 263.909L357.056 264.245C356.377 263.499 355.706 262.745 355.042 261.985L355.794 261.329Z" fill="#2F529E"/>
<path d="M592.582 261.658L592.957 261.985C592.293 262.745 591.622 263.499 590.943 264.245L590.205 263.573C590.879 262.832 591.546 262.083 592.206 261.329L592.582 261.658Z" fill="#2F529E"/>
<path d="M671.794 261.329C672.454 262.084 673.121 262.833 673.795 263.574L673.425 263.909L673.056 264.245C672.377 263.499 671.706 262.745 671.042 261.985L671.794 261.329Z" fill="#2F529E"/>
<path d="M908.582 261.658L908.957 261.985C908.293 262.745 907.622 263.499 906.943 264.245L906.205 263.573C906.879 262.832 907.546 262.083 908.206 261.329L908.582 261.658Z" fill="#2F529E"/>
<path d="M35.9199 256.728C36.5509 257.507 37.1895 258.28 37.835 259.047L37.0703 259.688C36.4207 258.917 35.7785 258.139 35.1436 257.354L35.9199 256.728Z" fill="#2F529E"/>
<path d="M280.855 257.354C280.22 258.139 279.578 258.917 278.929 259.688L278.165 259.047C278.81 258.28 279.449 257.507 280.08 256.728L280.855 257.354Z" fill="#2F529E"/>
<path d="M351.92 256.728C352.551 257.507 353.19 258.28 353.835 259.047L353.07 259.688C352.421 258.917 351.779 258.139 351.144 257.354L351.92 256.728Z" fill="#2F529E"/>
<path d="M596.855 257.354C596.22 258.139 595.578 258.917 594.929 259.688L594.165 259.047C594.81 258.28 595.449 257.507 596.08 256.728L596.855 257.354Z" fill="#2F529E"/>
<path d="M667.92 256.728C668.551 257.507 669.19 258.28 669.835 259.047L669.07 259.688C668.421 258.917 667.779 258.139 667.144 257.354L667.92 256.728Z" fill="#2F529E"/>
<path d="M912.855 257.354C912.22 258.139 911.578 258.917 910.929 259.688L910.165 259.047C910.81 258.28 911.449 257.507 912.08 256.728L912.855 257.354Z" fill="#2F529E"/>
<path d="M32.2236 251.98C32.8247 252.784 33.4338 253.581 34.0498 254.372L33.2627 254.984C32.6426 254.188 32.027 253.388 31.4219 252.579L32.2236 251.98Z" fill="#2F529E"/>
<path d="M284.577 252.579C283.972 253.388 283.356 254.188 282.736 254.984L281.95 254.372C282.566 253.581 283.175 252.784 283.776 251.98L284.577 252.579Z" fill="#2F529E"/>
<path d="M348.224 251.98C348.825 252.784 349.434 253.581 350.05 254.372L349.263 254.984C348.643 254.188 348.027 253.388 347.422 252.579L348.224 251.98Z" fill="#2F529E"/>
<path d="M600.577 252.579C599.972 253.388 599.356 254.188 598.736 254.984L597.95 254.372C598.566 253.581 599.175 252.784 599.776 251.98L600.577 252.579Z" fill="#2F529E"/>
<path d="M664.224 251.98C664.825 252.784 665.434 253.581 666.05 254.372L665.263 254.984C664.643 254.188 664.027 253.388 663.422 252.579L664.224 251.98Z" fill="#2F529E"/>
<path d="M916.577 252.579C915.972 253.388 915.356 254.188 914.736 254.984L913.95 254.372C914.566 253.581 915.175 252.784 915.776 251.98L916.577 252.579Z" fill="#2F529E"/>
<path d="M28.7119 247.097C29.2818 247.922 29.8601 248.742 30.4453 249.556L29.6348 250.137C29.0461 249.318 28.4639 248.494 27.8906 247.664L28.7119 247.097Z" fill="#2F529E"/>
<path d="M288.108 247.664C287.535 248.494 286.953 249.318 286.364 250.137L285.555 249.556C286.14 248.742 286.718 247.922 287.288 247.097L288.108 247.664Z" fill="#2F529E"/>
<path d="M344.712 247.097C345.282 247.922 345.86 248.742 346.445 249.556L345.635 250.137C345.046 249.318 344.464 248.494 343.891 247.664L344.712 247.097Z" fill="#2F529E"/>
<path d="M604.108 247.664C603.535 248.494 602.953 249.318 602.364 250.137L601.555 249.556C602.14 248.742 602.718 247.922 603.288 247.097L604.108 247.664Z" fill="#2F529E"/>
<path d="M660.712 247.097C661.282 247.922 661.86 248.742 662.445 249.556L661.635 250.137C661.046 249.318 660.464 248.494 659.891 247.664L660.712 247.097Z" fill="#2F529E"/>
<path d="M920.108 247.664C919.535 248.494 918.953 249.318 918.364 250.137L917.555 249.556C918.14 248.742 918.718 247.922 919.288 247.097L920.108 247.664Z" fill="#2F529E"/>
<path d="M294.599 237.446C294.091 238.318 293.577 239.186 293.053 240.047L292.199 239.527C292.72 238.672 293.233 237.811 293.738 236.945L294.599 237.446Z" fill="#2F529E"/>
<path d="M338.262 236.945C338.767 237.811 339.28 238.672 339.801 239.527L338.946 240.047C338.422 239.186 337.908 238.319 337.4 237.447L337.83 237.197L338.262 236.945Z" fill="#2F529E"/>
<path d="M297.547 232.158C297.072 233.049 296.592 233.937 296.101 234.817L295.228 234.332C295.715 233.457 296.195 232.576 296.667 231.69L297.547 232.158Z" fill="#2F529E"/>
<path d="M335.333 231.69C335.805 232.576 336.285 233.457 336.772 234.332L336.335 234.574L335.898 234.817C335.407 233.937 334.927 233.049 334.452 232.158L335.333 231.69Z" fill="#2F529E"/>
<path d="M300.291 226.762C299.851 227.671 299.4 228.575 298.943 229.475L298.5 229.25L298.055 229.023C298.509 228.129 298.955 227.23 299.393 226.326L300.291 226.762Z" fill="#2F529E"/>
<path d="M332.607 226.326C333.045 227.23 333.491 228.129 333.945 229.023L333.499 229.249L333.056 229.475C332.599 228.575 332.148 227.671 331.708 226.762L332.607 226.326Z" fill="#2F529E"/>
<path d="M330.092 220.865C330.494 221.785 330.905 222.699 331.324 223.609L330.418 224.026C329.996 223.11 329.581 222.19 329.176 221.265L330.092 220.865Z" fill="#2F529E"/>
<path d="M302.366 221.065L302.823 221.265C302.418 222.19 302.003 223.109 301.581 224.025L301.13 223.818L300.676 223.609C301.095 222.699 301.506 221.785 301.908 220.865L302.366 221.065Z" fill="#2F529E"/>
<path d="M305.142 215.674C304.773 216.613 304.394 217.548 304.008 218.479L303.087 218.098C303.47 217.173 303.846 216.244 304.212 215.311L305.142 215.674Z" fill="#2F529E"/>
<path d="M327.788 215.311C328.154 216.244 328.53 217.173 328.913 218.098L327.991 218.479C327.605 217.548 327.227 216.614 326.858 215.675L327.788 215.311Z" fill="#2F529E"/>
<path d="M307.241 209.997C306.909 210.95 306.569 211.898 306.22 212.843L305.284 212.497C305.632 211.559 305.97 210.616 306.3 209.669L307.241 209.997Z" fill="#2F529E"/>
<path d="M325.7 209.669C326.03 210.616 326.368 211.559 326.716 212.497L325.779 212.843C325.43 211.898 325.09 210.95 324.758 209.997L325.7 209.669Z" fill="#2F529E"/>
<path d="M309.122 204.24C308.827 205.207 308.523 206.17 308.21 207.129L307.262 206.819C307.573 205.867 307.875 204.91 308.169 203.949L309.122 204.24Z" fill="#2F529E"/>
<path d="M323.831 203.949C324.125 204.91 324.427 205.867 324.738 206.819L323.789 207.129C323.476 206.17 323.172 205.207 322.877 204.24L323.353 204.096L323.831 203.949Z" fill="#2F529E"/>
<path d="M310.779 198.419C310.521 199.396 310.257 200.371 309.98 201.341L309.676 201.255L309.5 201.205L309.02 201.068C309.294 200.104 309.559 199.136 309.815 198.164L310.779 198.419Z" fill="#2F529E"/>
<path d="M322.185 198.164C322.441 199.136 322.706 200.104 322.98 201.068L322.499 201.204L322.5 201.205L322.324 201.255L322.019 201.341C321.742 200.371 321.478 199.396 321.22 198.419L322.185 198.164Z" fill="#2F529E"/>
<path d="M312.21 192.54C311.99 193.526 311.763 194.509 311.524 195.487L310.555 195.252C310.791 194.279 311.019 193.303 311.237 192.323L312.21 192.54Z" fill="#2F529E"/>
<path d="M320.763 192.323C320.981 193.303 321.209 194.279 321.445 195.252L320.475 195.487C320.236 194.509 320.009 193.526 319.789 192.54L320.763 192.323Z" fill="#2F529E"/>
<path d="M312.924 186.52L313.413 186.608C313.232 187.6 313.043 188.589 312.843 189.574L312.354 189.476L311.864 189.376C312.063 188.397 312.252 187.415 312.433 186.43L312.924 186.52Z" fill="#2F529E"/>
<path d="M319.567 186.43C319.748 187.415 319.937 188.397 320.136 189.376L319.156 189.574C318.956 188.589 318.767 187.6 318.586 186.608L319.567 186.43Z" fill="#2F529E"/>
<path d="M314.388 180.631C314.244 181.631 314.093 182.629 313.931 183.623L313.439 183.544L312.946 183.463C313.107 182.475 313.259 181.484 313.401 180.49L314.388 180.631Z" fill="#2F529E"/>
<path d="M318.599 180.49C318.741 181.484 318.894 182.475 319.055 183.463L318.56 183.543L318.561 183.544L318.068 183.623C317.906 182.629 317.755 181.631 317.611 180.631L318.599 180.49Z" fill="#2F529E"/>
<path d="M317.858 174.518C317.963 175.519 318.077 176.517 318.2 177.513L317.21 177.635C317.086 176.633 316.971 175.628 316.865 174.62L317.361 174.569L317.858 174.518Z" fill="#2F529E"/>
<path d="M315.134 174.62C315.028 175.628 314.913 176.632 314.789 177.634L314.296 177.574L313.8 177.513C313.923 176.517 314.037 175.518 314.142 174.517L315.134 174.62Z" fill="#2F529E"/>
<path d="M315.647 168.595C315.581 169.604 315.504 170.61 315.418 171.613L314.425 171.529C314.51 170.532 314.586 169.532 314.652 168.529L315.647 168.595Z" fill="#2F529E"/>
<path d="M317.348 168.529C317.414 169.532 317.49 170.532 317.575 171.529L316.581 171.613C316.495 170.61 316.418 169.604 316.352 168.595L317.348 168.529Z" fill="#2F529E"/>
<path d="M315.933 162.55C315.904 163.558 315.866 164.563 315.818 165.566L314.823 165.521C314.87 164.524 314.908 163.524 314.937 162.522L315.933 162.55Z" fill="#2F529E"/>
<path d="M317.063 162.523C317.092 163.525 317.13 164.524 317.177 165.521L316.677 165.543L316.678 165.544L316.181 165.566C316.133 164.564 316.095 163.558 316.066 162.551L317.063 162.523Z" fill="#2F529E"/>
<path d="M316 158C316 158.507 315.995 159.014 315.99 159.52L314.993 159.511C314.998 159.008 315 158.504 315 158C315 157.496 314.998 156.992 314.993 156.489L315.99 156.479C315.995 156.986 316 157.493 316 158Z" fill="#2F529E"/>
<path d="M317.007 156.489C317.002 156.992 317 157.496 317 158C317 158.504 317.002 159.008 317.007 159.511L316.009 159.52C316.004 159.014 316 158.507 316 158C316 157.493 316.004 156.986 316.009 156.479L317.007 156.489Z" fill="#2F529E"/>
<path d="M317.177 150.479C317.13 151.476 317.092 152.476 317.063 153.478L316.066 153.449C316.095 152.441 316.133 151.436 316.181 150.433L317.177 150.479Z" fill="#2F529E"/>
<path d="M315.818 150.433C315.866 151.435 315.904 152.441 315.933 153.448L315.436 153.463L315.435 153.462L314.937 153.477C314.908 152.475 314.87 151.476 314.823 150.479L315.818 150.433Z" fill="#2F529E"/>
<path d="M315.418 144.386C315.504 145.389 315.581 146.395 315.647 147.404L314.652 147.471C314.586 146.468 314.51 145.468 314.425 144.471L315.418 144.386Z" fill="#2F529E"/>
<path d="M317.575 144.471C317.49 145.468 317.414 146.468 317.348 147.471L316.352 147.404C316.418 146.395 316.495 145.389 316.581 144.386L317.575 144.471Z" fill="#2F529E"/>
<path d="M317.704 138.426L318.2 138.487C318.077 139.483 317.963 140.482 317.858 141.483L316.865 141.379C316.971 140.371 317.086 139.367 317.21 138.365L317.704 138.426Z" fill="#2F529E"/>
<path d="M314.789 138.364C314.913 139.366 315.028 140.371 315.134 141.379L314.142 141.482C314.037 140.481 313.923 139.483 313.8 138.487L314.789 138.364Z" fill="#2F529E"/>
<path d="M313.931 132.376C314.093 133.37 314.244 134.368 314.388 135.368L313.401 135.51C313.259 134.516 313.106 133.525 312.945 132.537L313.931 132.376Z" fill="#2F529E"/>
<path d="M318.561 132.456L319.054 132.537C318.893 133.525 318.741 134.516 318.599 135.51L317.611 135.368C317.755 134.368 317.906 133.37 318.068 132.376L318.561 132.456Z" fill="#2F529E"/>
<path d="M312.843 126.425C313.043 127.41 313.232 128.399 313.413 129.391L312.433 129.57C312.252 128.585 312.063 127.603 311.864 126.624L312.843 126.425Z" fill="#2F529E"/>
<path d="M320.136 126.624C319.937 127.603 319.748 128.585 319.567 129.57L318.586 129.391C318.767 128.399 318.956 127.41 319.156 126.425L320.136 126.624Z" fill="#2F529E"/>
<path d="M311.524 120.512C311.763 121.491 311.99 122.473 312.21 123.459L311.237 123.677C311.019 122.697 310.791 121.721 310.555 120.748L311.524 120.512Z" fill="#2F529E"/>
<path d="M321.445 120.748C321.209 121.721 320.981 122.697 320.763 123.677L320.275 123.567L319.789 123.459C320.009 122.473 320.236 121.49 320.475 120.512L321.445 120.748Z" fill="#2F529E"/>
<path d="M309.98 114.658C310.257 115.628 310.521 116.603 310.779 117.58L309.815 117.836C309.559 116.864 309.294 115.896 309.02 114.932L309.98 114.658Z" fill="#2F529E"/>
<path d="M322.98 114.932C322.706 115.896 322.441 116.864 322.185 117.836L321.22 117.58C321.478 116.603 321.742 115.628 322.019 114.658L322.98 114.932Z" fill="#2F529E"/>
<path d="M308.21 108.87C308.523 109.829 308.827 110.792 309.122 111.759L308.169 112.051C307.875 111.09 307.573 110.133 307.262 109.181L308.21 108.87Z" fill="#2F529E"/>
<path d="M324.738 109.181C324.427 110.133 324.125 111.09 323.831 112.051L322.877 111.759C323.172 110.792 323.476 109.829 323.789 108.87L324.738 109.181Z" fill="#2F529E"/>
<path d="M306.22 103.156C306.569 104.101 306.909 105.049 307.241 106.002L306.3 106.331C305.97 105.384 305.632 104.441 305.284 103.503L306.22 103.156Z" fill="#2F529E"/>
<path d="M326.716 103.503C326.368 104.441 326.03 105.384 325.7 106.331L324.758 106.002C325.09 105.049 325.43 104.101 325.779 103.156L326.716 103.503Z" fill="#2F529E"/>
<path d="M304.008 97.5205C304.394 98.4508 304.772 99.385 305.141 100.324L304.212 100.689C303.846 99.7561 303.47 98.8269 303.087 97.9023L304.008 97.5205Z" fill="#2F529E"/>
<path d="M328.913 97.9023C328.53 98.8269 328.154 99.7561 327.788 100.689L326.857 100.325C327.226 99.3856 327.605 98.4512 327.991 97.5205L328.913 97.9023Z" fill="#2F529E"/>
<path d="M301.581 91.9727C302.003 92.8888 302.418 93.8089 302.823 94.7344L301.908 95.1348C301.506 94.2154 301.095 93.3007 300.676 92.3906L301.581 91.9727Z" fill="#2F529E"/>
<path d="M331.324 92.3906C330.905 93.3007 330.494 94.2154 330.092 95.1348L329.176 94.7344C329.581 93.8091 329.996 92.8895 330.418 91.9736L331.324 92.3906Z" fill="#2F529E"/>
<path d="M298.943 86.5244C299.4 87.424 299.851 88.3279 300.291 89.2373L299.393 89.6738C298.955 88.7701 298.509 87.8706 298.055 86.9766L298.943 86.5244Z" fill="#2F529E"/>
<path d="M333.945 86.9766C333.491 87.8706 333.045 88.7701 332.607 89.6738L331.708 89.2373C332.148 88.3279 332.599 87.424 333.056 86.5244L333.945 86.9766Z" fill="#2F529E"/>
<path d="M296.101 81.1816C296.592 82.0625 297.072 82.9497 297.547 83.8408L296.667 84.3096C296.195 83.4241 295.715 82.5433 295.228 81.668L296.101 81.1816Z" fill="#2F529E"/>
<path d="M336.772 81.668C336.285 82.5432 335.805 83.4241 335.333 84.3096L334.452 83.8408C334.927 82.9497 335.407 82.0625 335.898 81.1816L336.772 81.668Z" fill="#2F529E"/>
<path d="M293.053 75.9521C293.577 76.8129 294.091 77.6803 294.599 78.5518L293.738 79.0547C293.233 78.1887 292.72 77.3281 292.199 76.4727L293.053 75.9521Z" fill="#2F529E"/>
<path d="M339.801 76.4727C339.28 77.3281 338.767 78.1887 338.262 79.0547L337.4 78.5527C337.908 77.681 338.422 76.8131 338.946 75.9521L339.801 76.4727Z" fill="#2F529E"/>
<path d="M610.599 237.446C610.091 238.318 609.577 239.186 609.053 240.047L608.199 239.527C608.72 238.672 609.234 237.811 609.738 236.945L610.599 237.446Z" fill="#2F529E"/>
<path d="M654.262 236.945C654.766 237.811 655.28 238.672 655.801 239.527L654.946 240.047C654.422 239.186 653.908 238.319 653.4 237.447L653.83 237.197L654.262 236.945Z" fill="#2F529E"/>
<path d="M613.547 232.158C613.072 233.049 612.592 233.937 612.101 234.817L611.228 234.332C611.715 233.457 612.195 232.576 612.667 231.69L613.547 232.158Z" fill="#2F529E"/>
<path d="M651.333 231.69C651.805 232.576 652.285 233.457 652.772 234.332L652.335 234.574L651.898 234.817C651.407 233.937 650.927 233.049 650.452 232.158L651.333 231.69Z" fill="#2F529E"/>
<path d="M616.291 226.762C615.851 227.671 615.4 228.575 614.943 229.475L614.5 229.25L614.055 229.023C614.509 228.129 614.955 227.23 615.393 226.326L616.291 226.762Z" fill="#2F529E"/>
<path d="M648.607 226.326C649.045 227.23 649.491 228.129 649.945 229.023L649.499 229.249L649.056 229.475C648.599 228.575 648.148 227.671 647.708 226.762L648.607 226.326Z" fill="#2F529E"/>
<path d="M646.092 220.865C646.494 221.785 646.905 222.699 647.324 223.609L646.418 224.026C645.996 223.11 645.581 222.19 645.176 221.265L646.092 220.865Z" fill="#2F529E"/>
<path d="M618.366 221.065L618.823 221.265C618.418 222.19 618.003 223.109 617.581 224.025L617.13 223.818L616.676 223.609C617.095 222.699 617.506 221.785 617.908 220.865L618.366 221.065Z" fill="#2F529E"/>
<path d="M621.142 215.674C620.773 216.613 620.394 217.548 620.008 218.479L619.087 218.098C619.47 217.173 619.846 216.244 620.212 215.311L621.142 215.674Z" fill="#2F529E"/>
<path d="M643.788 215.311C644.154 216.244 644.53 217.173 644.913 218.098L643.991 218.479C643.605 217.548 643.227 216.614 642.858 215.675L643.788 215.311Z" fill="#2F529E"/>
<path d="M623.241 209.997C622.909 210.95 622.569 211.898 622.22 212.843L621.284 212.497C621.632 211.559 621.97 210.616 622.3 209.669L623.241 209.997Z" fill="#2F529E"/>
<path d="M641.7 209.669C642.03 210.616 642.368 211.559 642.716 212.497L641.779 212.843C641.43 211.898 641.09 210.95 640.758 209.997L641.7 209.669Z" fill="#2F529E"/>
<path d="M625.122 204.24C624.827 205.207 624.523 206.17 624.21 207.129L623.262 206.819C623.573 205.867 623.875 204.91 624.169 203.949L625.122 204.24Z" fill="#2F529E"/>
<path d="M639.831 203.949C640.125 204.91 640.427 205.867 640.738 206.819L639.789 207.129C639.476 206.17 639.172 205.207 638.877 204.24L639.353 204.096L639.831 203.949Z" fill="#2F529E"/>
<path d="M626.779 198.419C626.521 199.396 626.257 200.371 625.98 201.341L625.676 201.255L625.5 201.205L625.02 201.068C625.294 200.104 625.559 199.136 625.815 198.164L626.779 198.419Z" fill="#2F529E"/>
<path d="M638.185 198.164C638.441 199.136 638.706 200.104 638.98 201.068L638.499 201.204L638.5 201.205L638.324 201.255L638.019 201.341C637.742 200.371 637.478 199.396 637.22 198.419L638.185 198.164Z" fill="#2F529E"/>
<path d="M628.21 192.54C627.99 193.526 627.763 194.509 627.524 195.487L626.555 195.252C626.791 194.279 627.019 193.303 627.237 192.323L628.21 192.54Z" fill="#2F529E"/>
<path d="M636.763 192.323C636.981 193.303 637.209 194.279 637.445 195.252L636.475 195.487C636.236 194.509 636.009 193.526 635.789 192.54L636.763 192.323Z" fill="#2F529E"/>
<path d="M628.924 186.52L629.413 186.608C629.232 187.6 629.043 188.589 628.843 189.574L628.354 189.476L627.864 189.376C628.063 188.397 628.252 187.415 628.433 186.43L628.924 186.52Z" fill="#2F529E"/>
<path d="M635.567 186.43C635.748 187.415 635.937 188.397 636.136 189.376L635.156 189.574C634.956 188.589 634.767 187.6 634.586 186.608L635.567 186.43Z" fill="#2F529E"/>
<path d="M630.388 180.631C630.244 181.631 630.093 182.629 629.931 183.623L629.439 183.544L628.946 183.463C629.107 182.475 629.259 181.484 629.401 180.49L630.388 180.631Z" fill="#2F529E"/>
<path d="M634.599 180.49C634.741 181.484 634.894 182.475 635.055 183.463L634.56 183.543L634.561 183.544L634.068 183.623C633.906 182.629 633.755 181.631 633.611 180.631L634.599 180.49Z" fill="#2F529E"/>
<path d="M633.858 174.518C633.963 175.519 634.077 176.517 634.2 177.513L633.21 177.635C633.086 176.633 632.971 175.628 632.865 174.62L633.361 174.569L633.858 174.518Z" fill="#2F529E"/>
<path d="M631.134 174.62C631.028 175.628 630.913 176.632 630.789 177.634L630.296 177.574L629.8 177.513C629.923 176.517 630.037 175.518 630.142 174.517L631.134 174.62Z" fill="#2F529E"/>
<path d="M631.647 168.595C631.581 169.604 631.504 170.61 631.418 171.613L630.425 171.529C630.51 170.532 630.586 169.532 630.652 168.529L631.647 168.595Z" fill="#2F529E"/>
<path d="M633.348 168.529C633.414 169.532 633.49 170.532 633.575 171.529L632.581 171.613C632.495 170.61 632.418 169.604 632.352 168.595L633.348 168.529Z" fill="#2F529E"/>
<path d="M631.933 162.55C631.904 163.558 631.866 164.563 631.818 165.566L630.823 165.521C630.87 164.524 630.908 163.524 630.937 162.522L631.933 162.55Z" fill="#2F529E"/>
<path d="M633.063 162.523C633.092 163.525 633.13 164.524 633.177 165.521L632.677 165.543L632.678 165.544L632.181 165.566C632.133 164.564 632.095 163.558 632.066 162.551L633.063 162.523Z" fill="#2F529E"/>
<path d="M632 158C632 158.507 631.995 159.014 631.99 159.52L630.993 159.511C630.998 159.008 631 158.504 631 158C631 157.496 630.998 156.992 630.993 156.489L631.99 156.479C631.995 156.986 632 157.493 632 158Z" fill="#2F529E"/>
<path d="M633.007 156.489C633.002 156.992 633 157.496 633 158C633 158.504 633.002 159.008 633.007 159.511L632.009 159.52C632.004 159.014 632 158.507 632 158C632 157.493 632.004 156.986 632.009 156.479L633.007 156.489Z" fill="#2F529E"/>
<path d="M633.177 150.479C633.13 151.476 633.092 152.476 633.063 153.478L632.066 153.449C632.095 152.441 632.133 151.436 632.181 150.433L633.177 150.479Z" fill="#2F529E"/>
<path d="M631.818 150.433C631.866 151.435 631.904 152.441 631.933 153.448L631.436 153.463L631.435 153.462L630.937 153.477C630.908 152.475 630.87 151.476 630.823 150.479L631.818 150.433Z" fill="#2F529E"/>
<path d="M631.418 144.386C631.504 145.389 631.581 146.395 631.647 147.404L630.652 147.471C630.586 146.468 630.51 145.468 630.425 144.471L631.418 144.386Z" fill="#2F529E"/>
<path d="M633.575 144.471C633.49 145.468 633.414 146.468 633.348 147.471L632.352 147.404C632.418 146.395 632.495 145.389 632.581 144.386L633.575 144.471Z" fill="#2F529E"/>
<path d="M633.704 138.426L634.2 138.487C634.077 139.483 633.963 140.482 633.858 141.483L632.865 141.379C632.971 140.371 633.086 139.367 633.21 138.365L633.704 138.426Z" fill="#2F529E"/>
<path d="M630.789 138.364C630.913 139.366 631.028 140.371 631.134 141.379L630.142 141.482C630.037 140.481 629.923 139.483 629.8 138.487L630.789 138.364Z" fill="#2F529E"/>
<path d="M629.931 132.376C630.093 133.37 630.244 134.368 630.388 135.368L629.401 135.51C629.259 134.516 629.106 133.525 628.945 132.537L629.931 132.376Z" fill="#2F529E"/>
<path d="M634.561 132.456L635.054 132.537C634.893 133.525 634.741 134.516 634.599 135.51L633.611 135.368C633.755 134.368 633.906 133.37 634.068 132.376L634.561 132.456Z" fill="#2F529E"/>
<path d="M628.843 126.425C629.043 127.41 629.232 128.399 629.413 129.391L628.433 129.57C628.252 128.585 628.063 127.603 627.864 126.624L628.843 126.425Z" fill="#2F529E"/>
<path d="M636.136 126.624C635.937 127.603 635.748 128.585 635.567 129.57L634.586 129.391C634.767 128.399 634.956 127.41 635.156 126.425L636.136 126.624Z" fill="#2F529E"/>
<path d="M627.524 120.512C627.763 121.491 627.99 122.473 628.21 123.459L627.237 123.677C627.019 122.697 626.791 121.721 626.555 120.748L627.524 120.512Z" fill="#2F529E"/>
<path d="M637.445 120.748C637.209 121.721 636.981 122.697 636.763 123.677L636.275 123.567L635.789 123.459C636.009 122.473 636.236 121.49 636.475 120.512L637.445 120.748Z" fill="#2F529E"/>
<path d="M625.98 114.658C626.257 115.628 626.521 116.603 626.779 117.58L625.815 117.836C625.559 116.864 625.294 115.896 625.02 114.932L625.98 114.658Z" fill="#2F529E"/>
<path d="M638.98 114.932C638.706 115.896 638.441 116.864 638.185 117.836L637.22 117.58C637.478 116.603 637.742 115.628 638.019 114.658L638.98 114.932Z" fill="#2F529E"/>
<path d="M624.21 108.87C624.523 109.829 624.827 110.792 625.122 111.759L624.169 112.051C623.875 111.09 623.573 110.133 623.262 109.181L624.21 108.87Z" fill="#2F529E"/>
<path d="M640.738 109.181C640.427 110.133 640.125 111.09 639.831 112.051L638.877 111.759C639.172 110.792 639.476 109.829 639.789 108.87L640.738 109.181Z" fill="#2F529E"/>
<path d="M622.22 103.156C622.569 104.101 622.909 105.049 623.241 106.002L622.3 106.331C621.97 105.384 621.632 104.441 621.284 103.503L622.22 103.156Z" fill="#2F529E"/>
<path d="M642.716 103.503C642.368 104.441 642.03 105.384 641.7 106.331L640.758 106.002C641.09 105.049 641.43 104.101 641.779 103.156L642.716 103.503Z" fill="#2F529E"/>
<path d="M620.008 97.5205C620.394 98.4508 620.772 99.385 621.141 100.324L620.212 100.689C619.846 99.7561 619.47 98.8269 619.087 97.9023L620.008 97.5205Z" fill="#2F529E"/>
<path d="M644.913 97.9023C644.53 98.8269 644.154 99.7561 643.788 100.689L642.857 100.325C643.226 99.3856 643.605 98.4512 643.991 97.5205L644.913 97.9023Z" fill="#2F529E"/>
<path d="M617.581 91.9727C618.003 92.8888 618.418 93.8089 618.823 94.7344L617.908 95.1348C617.506 94.2154 617.095 93.3007 616.676 92.3906L617.581 91.9727Z" fill="#2F529E"/>
<path d="M647.324 92.3906C646.905 93.3007 646.494 94.2154 646.092 95.1348L645.176 94.7344C645.581 93.8091 645.996 92.8895 646.418 91.9736L647.324 92.3906Z" fill="#2F529E"/>
<path d="M614.943 86.5244C615.401 87.424 615.851 88.3279 616.291 89.2373L615.393 89.6738C614.955 88.7701 614.509 87.8706 614.055 86.9766L614.943 86.5244Z" fill="#2F529E"/>
<path d="M649.945 86.9766C649.491 87.8706 649.045 88.7701 648.607 89.6738L647.708 89.2373C648.148 88.3279 648.599 87.424 649.056 86.5244L649.945 86.9766Z" fill="#2F529E"/>
<path d="M612.101 81.1816C612.592 82.0625 613.072 82.9497 613.547 83.8408L612.667 84.3096C612.195 83.4241 611.715 82.5433 611.228 81.668L612.101 81.1816Z" fill="#2F529E"/>
<path d="M652.772 81.668C652.285 82.5432 651.805 83.4241 651.333 84.3096L650.452 83.8408C650.927 82.9497 651.407 82.0625 651.898 81.1816L652.772 81.668Z" fill="#2F529E"/>
<path d="M609.053 75.9521C609.577 76.8129 610.091 77.6803 610.599 78.5518L609.738 79.0547C609.234 78.1887 608.72 77.3281 608.199 76.4727L609.053 75.9521Z" fill="#2F529E"/>
<path d="M655.801 76.4727C655.28 77.3281 654.766 78.1887 654.262 79.0547L653.4 78.5527C653.908 77.681 654.422 76.8131 654.946 75.9521L655.801 76.4727Z" fill="#2F529E"/>
<path fill-rule="evenodd" clip-rule="evenodd" d="M790 68C839.706 68 880 108.294 880 158C880 207.706 839.706 248 790 248C757.012 248 728.17 230.252 712.5 203.784C700.716 223.689 681.481 238.662 658.637 244.863L658.195 245.156C658.162 245.107 658.13 245.057 658.097 245.007C650.726 246.958 642.985 248 635 248C625.177 248 615.722 246.425 606.873 243.517C606.519 244.065 606.164 244.612 605.804 245.156L604.973 244.605C605.284 244.135 605.593 243.663 605.899 243.189C583.456 235.525 565.008 219.242 554.5 198.287C539.718 227.766 509.223 248 474 248C439.553 248 409.628 228.647 394.5 200.222C383.577 220.746 364.939 236.539 342.455 243.733C342.645 244.025 342.835 244.316 343.027 244.605L342.195 245.156C341.95 244.787 341.708 244.416 341.466 244.044C333.098 246.615 324.211 248 315 248C306.401 248 298.083 246.793 290.207 244.541C290.073 244.746 289.939 244.952 289.804 245.156L288.973 244.605C289.051 244.487 289.128 244.368 289.206 244.249C267.309 237.71 248.912 223.059 237.5 203.784C221.83 230.252 192.988 248 160 248C110.294 248 70 207.706 70 158C70 108.294 110.294 68 160 68C192.988 68 221.83 85.7474 237.5 112.215C248.912 92.94 267.309 78.289 289.206 71.75C289.128 71.6316 289.051 71.5127 288.973 71.3945L289.804 70.8428C289.939 71.0472 290.073 71.2529 290.207 71.458C298.083 69.2059 306.401 68 315 68C324.21 68 333.097 69.3845 341.465 71.9551C341.707 71.5832 341.95 71.2125 342.195 70.8428L343.027 71.3945C342.835 71.6841 342.645 71.9748 342.455 72.2656C364.939 79.4599 383.577 95.2533 394.5 115.777C409.628 87.3524 439.554 68 474 68C509.222 68 539.718 88.2339 554.5 117.712C565.008 96.7572 583.456 80.474 605.898 72.8096C605.592 72.3363 605.284 71.8643 604.973 71.3945L605.804 70.8428C606.164 71.3867 606.52 71.9337 606.874 72.4824C615.723 69.5738 625.178 68 635 68C642.984 68 650.726 69.0407 658.097 70.9922C658.13 70.9424 658.162 70.8925 658.195 70.8428L658.638 71.1357C681.482 77.3374 700.716 92.3105 712.5 112.215C728.17 85.7474 757.012 68 790 68ZM790 69C757.179 69 728.508 86.7663 713.078 113.206C720.662 126.397 725 141.692 725 158C725 174.308 720.662 189.602 713.078 202.793C728.508 229.233 757.179 247 790 247C839.153 247 879 207.153 879 158C879 108.847 839.153 69 790 69ZM160 69C110.847 69 71 108.847 71 158C71 207.153 110.847 247 160 247C192.821 247 221.491 229.233 236.921 202.793C229.337 189.602 225 174.308 225 158C225 141.692 229.337 126.397 236.921 113.206C221.491 86.7665 192.821 69 160 69ZM315 69C306.604 69 298.48 70.1621 290.779 72.335C291.004 72.6831 291.229 73.0318 291.451 73.3818L290.609 73.917C290.335 73.4849 290.058 73.0543 289.779 72.625C267.817 79.1026 249.39 93.8233 238.078 113.206C245.662 126.397 250 141.692 250 158C250 174.308 245.662 189.602 238.078 202.793C249.39 222.176 267.818 236.897 289.78 243.375C290.059 242.946 290.336 242.515 290.61 242.083L291.451 242.617C291.229 242.967 291.003 243.315 290.778 243.663C298.479 245.836 306.604 247 315 247C324.01 247 332.706 245.659 340.902 243.17C340.784 242.986 340.665 242.802 340.548 242.617L341.391 242.083C341.556 242.344 341.723 242.604 341.891 242.863C364.462 235.718 383.139 219.817 393.936 199.146C387.585 186.815 384 172.826 384 158C384 143.174 387.585 129.185 393.936 116.853C383.139 96.1824 364.462 80.2813 341.891 73.1357C341.723 73.3958 341.556 73.6559 341.39 73.917L340.968 73.6484L340.548 73.3818C340.665 73.1972 340.783 73.0132 340.901 72.8291C332.705 70.3399 324.009 69 315 69ZM474 69C439.692 69 409.919 88.4127 395.063 116.853C401.414 129.185 405 143.173 405 158C405 172.826 401.414 186.815 395.063 199.146C409.919 227.587 439.692 247 474 247C509.102 247 539.456 226.677 553.942 197.157C548.213 185.318 545 172.035 545 158C545 143.965 548.213 130.681 553.942 118.842C539.455 89.3221 509.102 69 474 69ZM635 69C625.377 69 616.112 70.5275 607.432 73.3525C607.438 73.3624 607.445 73.3719 607.451 73.3818L606.609 73.917C606.558 73.8363 606.506 73.7564 606.454 73.6758C583.913 81.304 565.423 97.7187 555.057 118.842C560.787 130.681 564 143.965 564 158C564 172.035 560.786 185.318 555.057 197.157C565.423 218.281 583.913 234.696 606.455 242.324C606.507 242.244 606.559 242.164 606.61 242.083L607.451 242.617C607.445 242.627 607.438 242.637 607.432 242.646C616.112 245.472 625.377 247 635 247C642.78 247 650.326 246 657.519 244.125C657.192 243.624 656.869 243.122 656.548 242.617L657.391 242.083C657.768 242.676 658.15 243.266 658.534 243.854C681.239 237.644 700.321 222.67 711.921 202.793C704.337 189.602 700 174.308 700 158C700 141.692 704.337 126.397 711.921 113.206C700.321 93.3291 681.238 78.3547 658.533 72.1455C658.148 72.7334 657.767 73.3237 657.39 73.917L656.968 73.6484L656.548 73.3818C656.868 72.8773 657.192 72.3746 657.518 71.874C650.326 69.9989 642.779 69 635 69ZM237.5 114.212C230.179 127.141 226 142.082 226 158C226 173.918 230.18 188.859 237.5 201.787C244.82 188.859 249 173.918 249 158C249 142.082 244.821 127.141 237.5 114.212ZM712.5 114.212C705.18 127.141 701 142.082 701 158C701 173.918 705.18 188.859 712.5 201.787C719.82 188.859 724 173.918 724 158C724 142.082 719.82 127.141 712.5 114.212ZM394.5 117.951C388.424 129.989 385 143.595 385 158C385 172.405 388.424 186.01 394.5 198.048C400.576 186.01 404 172.405 404 158C404 143.595 400.576 129.989 394.5 117.951ZM554.5 119.997C549.05 131.522 546 144.405 546 158C546 171.595 549.05 184.477 554.5 196.002C559.95 184.477 563 171.595 563 158C563 144.405 559.95 131.522 554.5 119.997Z" fill="#2F529E"/>
<path d="M25.3906 242.083C25.9284 242.929 26.4739 243.77 27.0273 244.605L26.1953 245.156C25.6383 244.316 25.0891 243.469 24.5479 242.617L25.3906 242.083Z" fill="#2F529E"/>
<path d="M923.451 242.617C922.91 243.469 922.361 244.316 921.804 245.156L920.973 244.605C921.526 243.77 922.073 242.929 922.61 242.083L923.451 242.617Z" fill="#2F529E"/>
<path d="M22.2617 236.945C22.7665 237.811 23.28 238.672 23.8008 239.527L22.9463 240.047C22.4222 239.186 21.9083 238.319 21.4004 237.447L21.8301 237.197L22.2617 236.945Z" fill="#2F529E"/>
<path d="M926.599 237.446C926.091 238.318 925.577 239.186 925.053 240.047L924.199 239.527C924.72 238.672 925.234 237.811 925.738 236.945L926.599 237.446Z" fill="#2F529E"/>
<path d="M19.333 231.69C19.8046 232.576 20.2845 233.457 20.7725 234.332L20.335 234.574L19.8984 234.817C19.4074 233.937 18.9267 233.049 18.4521 232.158L19.333 231.69Z" fill="#2F529E"/>
<path d="M929.547 232.158C929.072 233.049 928.592 233.937 928.101 234.817L927.228 234.332C927.715 233.457 928.195 232.576 928.667 231.69L929.547 232.158Z" fill="#2F529E"/>
<path d="M16.6074 226.326C17.045 227.23 17.491 228.129 17.9453 229.023L17.499 229.249L17.0557 229.475C16.5985 228.575 16.1483 227.671 15.708 226.762L16.6074 226.326Z" fill="#2F529E"/>
<path d="M932.291 226.762C931.851 227.671 931.4 228.575 930.943 229.475L930.5 229.25L930.055 229.023C930.509 228.129 930.955 227.23 931.393 226.326L932.291 226.762Z" fill="#2F529E"/>
<path d="M14.0918 220.865C14.494 221.785 14.905 222.699 15.3242 223.609L14.418 224.026C13.996 223.11 13.5807 222.19 13.1758 221.265L14.0918 220.865Z" fill="#2F529E"/>
<path d="M934.366 221.065L934.823 221.265C934.418 222.19 934.003 223.109 933.581 224.025L933.13 223.818L932.676 223.609C933.095 222.699 933.506 221.785 933.908 220.865L934.366 221.065Z" fill="#2F529E"/>
<path d="M11.7881 215.311C12.1542 216.244 12.5297 217.173 12.9131 218.098L11.9912 218.479C11.6054 217.548 11.2268 216.614 10.8584 215.675L11.7881 215.311Z" fill="#2F529E"/>
<path d="M937.142 215.674C936.773 216.613 936.394 217.548 936.008 218.479L935.087 218.098C935.47 217.173 935.846 216.244 936.212 215.311L937.142 215.674Z" fill="#2F529E"/>
<path d="M9.7002 209.669C10.03 210.616 10.3685 211.559 10.7158 212.497L9.7793 212.843C9.42978 211.898 9.0897 210.95 8.75781 209.997L9.7002 209.669Z" fill="#2F529E"/>
<path d="M939.241 209.997C938.909 210.95 938.569 211.898 938.22 212.843L937.284 212.497C937.632 211.559 937.97 210.616 938.3 209.669L939.241 209.997Z" fill="#2F529E"/>
<path d="M7.83105 203.949C8.1246 204.91 8.4269 205.867 8.73828 206.819L7.78906 207.129C7.47568 206.17 7.17239 205.207 6.87695 204.24L7.35254 204.096L7.83105 203.949Z" fill="#2F529E"/>
<path d="M941.122 204.24C940.827 205.207 940.523 206.17 940.21 207.129L939.262 206.819C939.573 205.867 939.875 204.91 940.169 203.949L941.122 204.24Z" fill="#2F529E"/>
<path d="M6.18457 198.164C6.44095 199.136 6.70603 200.104 6.98047 201.068L6.49902 201.204L6.5 201.205L6.32422 201.255L6.01855 201.341C5.74247 200.371 5.47764 199.396 5.21973 198.419L6.18457 198.164Z" fill="#2F529E"/>
<path d="M942.779 198.419C942.521 199.396 942.257 200.371 941.98 201.341L941.676 201.255L941.5 201.205L941.02 201.068C941.294 200.104 941.559 199.136 941.815 198.164L942.779 198.419Z" fill="#2F529E"/>
<path d="M4.7627 192.323C4.98114 193.303 5.20866 194.279 5.44531 195.252L4.47461 195.487C4.23645 194.509 4.0089 193.526 3.78906 192.54L4.7627 192.323Z" fill="#2F529E"/>
<path d="M944.21 192.54C943.99 193.526 943.763 194.509 943.524 195.487L942.555 195.252C942.791 194.279 943.019 193.303 943.237 192.323L944.21 192.54Z" fill="#2F529E"/>
<path d="M3.56738 186.43C3.7476 187.415 3.93722 188.397 4.13574 189.376L3.15625 189.574C2.95643 188.589 2.76733 187.6 2.58594 186.608L3.56738 186.43Z" fill="#2F529E"/>
<path d="M944.924 186.52L945.413 186.608C945.232 187.6 945.043 188.589 944.843 189.574L944.354 189.476L943.864 189.376C944.063 188.397 944.252 187.415 944.433 186.43L944.924 186.52Z" fill="#2F529E"/>
<path d="M2.59863 180.49C2.7412 181.484 2.89359 182.475 3.05469 183.463L2.55957 183.543L2.56055 183.544L2.06836 183.623C1.90622 182.629 1.75481 181.631 1.61133 180.631L2.59863 180.49Z" fill="#2F529E"/>
<path d="M946.388 180.631C946.244 181.631 946.093 182.629 945.931 183.623L945.439 183.544L944.946 183.463C945.107 182.475 945.259 181.484 945.401 180.49L946.388 180.631Z" fill="#2F529E"/>
<path d="M1.8584 174.518C1.96306 175.519 2.07681 176.517 2.2002 177.513L1.20996 177.635C1.08576 176.633 0.970585 175.628 0.865234 174.62L1.36133 174.569L1.8584 174.518Z" fill="#2F529E"/>
<path d="M947.134 174.62C947.028 175.628 946.913 176.632 946.789 177.634L946.296 177.574L945.8 177.513C945.923 176.517 946.037 175.518 946.142 174.517L947.134 174.62Z" fill="#2F529E"/>
<path d="M1.34766 168.529C1.41403 169.532 1.49009 170.532 1.5752 171.529L0.581055 171.613C0.495411 170.61 0.418357 169.604 0.351562 168.595L1.34766 168.529Z" fill="#2F529E"/>
<path d="M947.647 168.595C947.581 169.604 947.504 170.61 947.418 171.613L946.425 171.529C946.51 170.532 946.586 169.532 946.652 168.529L947.647 168.595Z" fill="#2F529E"/>
<path d="M1.06348 162.523C1.09181 163.525 1.12976 164.524 1.17676 165.521L0.676758 165.543L0.677734 165.544L0.180664 165.566C0.133383 164.564 0.0949052 163.558 0.0664062 162.551L1.06348 162.523Z" fill="#2F529E"/>
<path d="M947.933 162.55C947.904 163.558 947.866 164.563 947.818 165.566L946.823 165.521C946.87 164.524 946.908 163.524 946.937 162.522L947.933 162.55Z" fill="#2F529E"/>
<path d="M1.00684 156.489C1.00209 156.992 1 157.496 1 158C1 158.504 1.00209 159.008 1.00684 159.511L0.00878906 159.52C0.00402223 159.014 0 158.507 0 158C0 157.493 0.00401612 156.986 0.00878906 156.479L1.00684 156.489Z" fill="#2F529E"/>
<path d="M948 158C948 158.507 947.995 159.014 947.99 159.52L946.993 159.511C946.998 159.008 947 158.504 947 158C947 157.496 946.998 156.992 946.993 156.489L947.99 156.479C947.995 156.986 948 157.493 948 158Z" fill="#2F529E"/>
<path d="M1.17676 150.479C1.12975 151.476 1.09181 152.476 1.06348 153.478L0.0664062 153.449C0.0949144 152.441 0.133361 151.436 0.180664 150.433L1.17676 150.479Z" fill="#2F529E"/>
<path d="M947.818 150.433C947.866 151.435 947.904 152.441 947.933 153.448L947.436 153.463L947.435 153.462L946.937 153.477C946.908 152.475 946.87 151.476 946.823 150.479L947.818 150.433Z" fill="#2F529E"/>
<path d="M1.5752 144.471C1.49009 145.468 1.41403 146.468 1.34766 147.471L0.351562 147.404C0.418363 146.395 0.495405 145.389 0.581055 144.386L1.5752 144.471Z" fill="#2F529E"/>
<path d="M947.418 144.386C947.504 145.389 947.581 146.395 947.647 147.404L946.652 147.471C946.586 146.468 946.51 145.468 946.425 144.471L947.418 144.386Z" fill="#2F529E"/>
<path d="M1.7041 138.426L2.2002 138.487C2.07679 139.483 1.96307 140.482 1.8584 141.483L0.865234 141.379C0.970557 140.371 1.0858 139.367 1.20996 138.365L1.7041 138.426Z" fill="#2F529E"/>
<path d="M946.789 138.364C946.913 139.366 947.028 140.371 947.134 141.379L946.142 141.482C946.037 140.481 945.923 139.483 945.8 138.487L946.789 138.364Z" fill="#2F529E"/>
<path d="M2.56055 132.456L3.05371 132.537C2.89262 133.525 2.74119 134.516 2.59863 135.51L1.61133 135.368C1.75482 134.368 1.90622 133.37 2.06836 132.376L2.56055 132.456Z" fill="#2F529E"/>
<path d="M945.931 132.376C946.093 133.37 946.244 134.368 946.388 135.368L945.401 135.51C945.259 134.516 945.106 133.525 944.945 132.537L945.931 132.376Z" fill="#2F529E"/>
<path d="M4.13574 126.624C3.93722 127.603 3.7476 128.585 3.56738 129.57L2.58594 129.391C2.76734 128.399 2.95643 127.41 3.15625 126.425L4.13574 126.624Z" fill="#2F529E"/>
<path d="M944.843 126.425C945.043 127.41 945.232 128.399 945.413 129.391L944.433 129.57C944.252 128.585 944.063 127.603 943.864 126.624L944.843 126.425Z" fill="#2F529E"/>
<path d="M5.44531 120.748C5.20866 121.721 4.98114 122.697 4.7627 123.677L4.27539 123.567L3.78906 123.459C4.0089 122.473 4.23644 121.49 4.47461 120.512L5.44531 120.748Z" fill="#2F529E"/>
<path d="M943.524 120.512C943.763 121.491 943.99 122.473 944.21 123.459L943.237 123.677C943.019 122.697 942.791 121.721 942.555 120.748L943.524 120.512Z" fill="#2F529E"/>
<path d="M6.98047 114.932C6.70603 115.896 6.44095 116.864 6.18457 117.836L5.21973 117.58C5.47765 116.603 5.74246 115.628 6.01855 114.658L6.98047 114.932Z" fill="#2F529E"/>
<path d="M941.98 114.658C942.257 115.628 942.521 116.603 942.779 117.58L941.815 117.836C941.559 116.864 941.294 115.896 941.02 114.932L941.98 114.658Z" fill="#2F529E"/>
<path d="M8.73828 109.181C8.42691 110.133 8.1246 111.09 7.83105 112.051L6.87695 111.759C7.1724 110.792 7.47567 109.829 7.78906 108.87L8.73828 109.181Z" fill="#2F529E"/>
<path d="M940.21 108.87C940.523 109.829 940.827 110.792 941.122 111.759L940.169 112.051C939.875 111.09 939.573 110.133 939.262 109.181L940.21 108.87Z" fill="#2F529E"/>
<path d="M10.7158 103.503C10.3685 104.441 10.03 105.384 9.7002 106.331L8.75781 106.002C9.08971 105.049 9.42977 104.101 9.7793 103.156L10.7158 103.503Z" fill="#2F529E"/>
<path d="M938.22 103.156C938.569 104.101 938.909 105.049 939.241 106.002L938.3 106.331C937.97 105.384 937.632 104.441 937.284 103.503L938.22 103.156Z" fill="#2F529E"/>
<path d="M12.9131 97.9023C12.5297 98.8269 12.1542 99.7561 11.7881 100.689L10.8574 100.325C11.226 99.3856 11.6053 98.4512 11.9912 97.5205L12.9131 97.9023Z" fill="#2F529E"/>
<path d="M936.008 97.5205C936.394 98.4508 936.772 99.385 937.141 100.324L936.212 100.689C935.846 99.7561 935.47 98.8269 935.087 97.9023L936.008 97.5205Z" fill="#2F529E"/>
<path d="M15.3242 92.3906C14.905 93.3007 14.494 94.2154 14.0918 95.1348L13.1758 94.7344C13.5805 93.8091 13.9961 92.8895 14.418 91.9736L15.3242 92.3906Z" fill="#2F529E"/>
<path d="M933.581 91.9727C934.003 92.8888 934.418 93.8089 934.823 94.7344L933.908 95.1348C933.506 94.2154 933.095 93.3007 932.676 92.3906L933.581 91.9727Z" fill="#2F529E"/>
<path d="M17.9453 86.9766C17.491 87.8706 17.045 88.7701 16.6074 89.6738L15.708 89.2373C16.1483 88.3279 16.5985 87.424 17.0557 86.5244L17.9453 86.9766Z" fill="#2F529E"/>
<path d="M930.943 86.5244C931.401 87.424 931.851 88.3279 932.291 89.2373L931.393 89.6738C930.955 88.7701 930.509 87.8706 930.055 86.9766L930.943 86.5244Z" fill="#2F529E"/>
<path d="M20.7725 81.668C20.2845 82.5432 19.8046 83.4241 19.333 84.3096L18.4521 83.8408C18.9267 82.9497 19.4074 82.0625 19.8984 81.1816L20.7725 81.668Z" fill="#2F529E"/>
<path d="M928.101 81.1816C928.592 82.0625 929.072 82.9497 929.547 83.8408L928.667 84.3096C928.195 83.4241 927.715 82.5433 927.228 81.668L928.101 81.1816Z" fill="#2F529E"/>
<path d="M23.8008 76.4727C23.28 77.3281 22.7665 78.1887 22.2617 79.0547L21.4004 78.5527C21.9085 77.681 22.4221 76.8131 22.9463 75.9521L23.8008 76.4727Z" fill="#2F529E"/>
<path d="M925.053 75.9521C925.577 76.8129 926.091 77.6803 926.599 78.5518L925.738 79.0547C925.234 78.1887 924.72 77.3281 924.199 76.4727L925.053 75.9521Z" fill="#2F529E"/>
<path d="M27.0273 71.3945C26.4739 72.2298 25.9274 73.0706 25.3896 73.917L24.9678 73.6484L24.5479 73.3818C25.0892 72.5299 25.6383 71.6835 26.1953 70.8428L27.0273 71.3945Z" fill="#2F529E"/>
<path d="M921.804 70.8428C922.361 71.6835 922.91 72.5299 923.451 73.3818L922.609 73.917C922.072 73.0707 921.526 72.2298 920.973 71.3945L921.804 70.8428Z" fill="#2F529E"/>
<path d="M30.4453 66.4443C29.8601 67.2582 29.2818 68.0779 28.7119 68.9033L27.8906 68.335C28.4639 67.5047 29.0461 66.681 29.6348 65.8623L30.4453 66.4443Z" fill="#2F529E"/>
<path d="M286.364 65.8623C286.953 66.681 287.535 67.5047 288.108 68.335L287.288 68.9033C286.718 68.0779 286.14 67.2582 285.555 66.4443L286.364 65.8623Z" fill="#2F529E"/>
<path d="M346.445 66.4443C345.86 67.2582 345.282 68.0779 344.712 68.9033L343.891 68.335C344.464 67.5047 345.046 66.681 345.635 65.8623L346.445 66.4443Z" fill="#2F529E"/>
<path d="M602.364 65.8623C602.953 66.681 603.535 67.5047 604.108 68.335L603.288 68.9033C602.718 68.0779 602.14 67.2582 601.555 66.4443L602.364 65.8623Z" fill="#2F529E"/>
<path d="M662.445 66.4443C661.86 67.2582 661.282 68.0779 660.712 68.9033L659.891 68.335C660.464 67.5047 661.046 66.681 661.635 65.8623L662.445 66.4443Z" fill="#2F529E"/>
<path d="M918.364 65.8623C918.953 66.681 919.535 67.5047 920.108 68.335L919.288 68.9033C918.718 68.0779 918.14 67.2582 917.555 66.4443L918.364 65.8623Z" fill="#2F529E"/>
<path d="M34.0498 61.6279C33.4338 62.419 32.8247 63.2164 32.2236 64.0195L31.8232 63.7197L31.4229 63.4209L31.4219 63.4199C32.027 62.6114 32.6426 61.8111 33.2627 61.0146L34.0498 61.6279Z" fill="#2F529E"/>
<path d="M282.736 61.0146C283.356 61.8111 283.972 62.6114 284.577 63.4199L284.177 63.7207L284.176 63.7197L283.776 64.0195C283.175 63.2164 282.566 62.4191 281.95 61.6279L282.736 61.0146Z" fill="#2F529E"/>
<path d="M350.05 61.6279C349.434 62.419 348.825 63.2164 348.224 64.0195L347.823 63.7197L347.423 63.4209L347.422 63.4199C348.027 62.6114 348.643 61.8111 349.263 61.0146L350.05 61.6279Z" fill="#2F529E"/>
<path d="M598.736 61.0146C599.356 61.8111 599.972 62.6114 600.577 63.4199L600.177 63.7207L600.176 63.7197L599.776 64.0195C599.175 63.2164 598.566 62.4191 597.95 61.6279L598.736 61.0146Z" fill="#2F529E"/>
<path d="M666.05 61.6279C665.434 62.419 664.825 63.2164 664.224 64.0195L663.823 63.7197L663.423 63.4209L663.422 63.4199C664.027 62.6114 664.643 61.8111 665.263 61.0146L666.05 61.6279Z" fill="#2F529E"/>
<path d="M914.736 61.0146C915.356 61.8111 915.972 62.6114 916.577 63.4199L916.177 63.7207L916.176 63.7197L915.776 64.0195C915.175 63.2164 914.566 62.4191 913.95 61.6279L914.736 61.0146Z" fill="#2F529E"/>
<path d="M37.835 56.9531C37.1895 57.7199 36.5508 58.4933 35.9199 59.2725L35.1436 58.6445C35.7785 57.8603 36.4207 57.0822 37.0703 56.3105L37.835 56.9531Z" fill="#2F529E"/>
<path d="M278.929 56.3105C279.578 57.0822 280.22 57.8603 280.855 58.6445L280.08 59.2725C279.449 58.4933 278.81 57.7199 278.165 56.9531L278.929 56.3105Z" fill="#2F529E"/>
<path d="M353.835 56.9531C353.19 57.7199 352.551 58.4933 351.92 59.2725L351.144 58.6445C351.779 57.8603 352.421 57.0822 353.07 56.3105L353.835 56.9531Z" fill="#2F529E"/>
<path d="M594.929 56.3105C595.578 57.0822 596.22 57.8603 596.855 58.6445L596.08 59.2725C595.449 58.4933 594.81 57.7199 594.165 56.9531L594.929 56.3105Z" fill="#2F529E"/>
<path d="M669.835 56.9531C669.19 57.7199 668.551 58.4933 667.92 59.2725L667.144 58.6445C667.779 57.8603 668.421 57.0822 669.07 56.3105L669.835 56.9531Z" fill="#2F529E"/>
<path d="M910.929 56.3105C911.578 57.0822 912.22 57.8603 912.855 58.6445L912.08 59.2725C911.449 58.4933 910.81 57.7199 910.165 56.9531L910.929 56.3105Z" fill="#2F529E"/>
<path d="M41.7949 52.4268C41.1208 53.1683 40.4539 53.9165 39.7939 54.6709L39.042 54.0137C39.7032 53.2579 40.3706 52.5076 41.0459 51.7646L41.0557 51.7539L41.7949 52.4268Z" fill="#2F529E"/>
<path d="M274.943 51.7539C275.622 52.5004 276.293 53.2542 276.957 54.0137L276.206 54.6709C275.546 53.9163 274.879 53.1675 274.205 52.4258L274.943 51.7539Z" fill="#2F529E"/>
<path d="M357.795 52.4268C357.121 53.1683 356.454 53.9165 355.794 54.6709L355.042 54.0137C355.703 53.2579 356.371 52.5076 357.046 51.7646L357.056 51.7539L357.795 52.4268Z" fill="#2F529E"/>
<path d="M590.943 51.7539C591.622 52.5004 592.293 53.2542 592.957 54.0137L592.206 54.6709C591.546 53.9163 590.879 53.1675 590.205 52.4258L590.943 51.7539Z" fill="#2F529E"/>
<path d="M673.795 52.4268C673.121 53.1683 672.454 53.9165 671.794 54.6709L671.042 54.0137C671.703 53.2579 672.371 52.5076 673.046 51.7646L673.056 51.7539L673.795 52.4268Z" fill="#2F529E"/>
<path d="M906.943 51.7539C907.622 52.5004 908.293 53.2542 908.957 54.0137L908.206 54.6709C907.546 53.9163 906.879 53.1675 906.205 52.4258L906.943 51.7539Z" fill="#2F529E"/>
<path d="M45.5693 47.7021L45.9258 48.0527C45.2236 48.7684 44.5283 49.4908 43.8398 50.2197L43.1143 49.5342C43.807 48.8007 44.5064 48.0736 45.2129 47.3535L45.5693 47.7021Z" fill="#2F529E"/>
<path d="M270.786 47.3535C271.493 48.0736 272.192 48.8007 272.885 49.5342L272.16 50.2197C271.472 49.4908 270.776 48.7684 270.074 48.0527L270.431 47.7021L270.786 47.3535Z" fill="#2F529E"/>
<path d="M361.569 47.7021L361.926 48.0527C361.224 48.7684 360.528 49.4908 359.84 50.2197L359.114 49.5342C359.807 48.8007 360.506 48.0736 361.213 47.3535L361.569 47.7021Z" fill="#2F529E"/>
<path d="M586.786 47.3535C587.493 48.0736 588.192 48.8007 588.885 49.5342L588.16 50.2197C587.472 49.4908 586.776 48.7684 586.074 48.0527L586.431 47.7021L586.786 47.3535Z" fill="#2F529E"/>
<path d="M677.569 47.7021L677.926 48.0527C677.224 48.7684 676.528 49.4908 675.84 50.2197L675.114 49.5342C675.807 48.8007 676.506 48.0736 677.213 47.3535L677.569 47.7021Z" fill="#2F529E"/>
<path d="M902.786 47.3535C903.493 48.0736 904.192 48.8007 904.885 49.5342L904.16 50.2197C903.472 49.4908 902.776 48.7684 902.074 48.0527L902.431 47.7021L902.786 47.3535Z" fill="#2F529E"/>
<path d="M50.2197 43.8398C49.4908 44.5283 48.7684 45.2236 48.0527 45.9258L47.3535 45.2129C48.0736 44.5064 48.8007 43.807 49.5342 43.1143L50.2197 43.8398Z" fill="#2F529E"/>
<path d="M266.465 43.1143C267.198 43.807 267.925 44.5064 268.646 45.2129L268.298 45.5693L268.297 45.5684L267.947 45.9258C267.232 45.2236 266.509 44.5283 265.78 43.8398L266.465 43.1143Z" fill="#2F529E"/>
<path d="M366.22 43.8398C365.491 44.5283 364.768 45.2236 364.053 45.9258L363.354 45.2129C364.074 44.5064 364.801 43.807 365.534 43.1143L366.22 43.8398Z" fill="#2F529E"/>
<path d="M582.465 43.1143C583.198 43.807 583.925 44.5064 584.646 45.2129L584.298 45.5693L584.297 45.5684L583.947 45.9258C583.232 45.2236 582.509 44.5283 581.78 43.8398L582.465 43.1143Z" fill="#2F529E"/>
<path d="M682.22 43.8398C681.491 44.5283 680.768 45.2236 680.053 45.9258L679.354 45.2129C680.074 44.5064 680.801 43.807 681.534 43.1143L682.22 43.8398Z" fill="#2F529E"/>
<path d="M898.465 43.1143C899.198 43.807 899.925 44.5064 900.646 45.2129L900.298 45.5693L900.297 45.5684L899.947 45.9258C899.232 45.2236 898.509 44.5283 897.78 43.8398L898.465 43.1143Z" fill="#2F529E"/>
<path d="M54.6709 39.7939C53.9163 40.4541 53.1675 41.1207 52.4258 41.7949L52.0889 41.4248L51.7539 41.0557C52.5004 40.3771 53.2542 39.7064 54.0137 39.042L54.6709 39.7939Z" fill="#2F529E"/>
<path d="M261.985 39.042C262.745 39.7064 263.499 40.3771 264.245 41.0557L263.573 41.7949C262.832 41.1208 262.083 40.4539 261.329 39.7939L261.985 39.042Z" fill="#2F529E"/>
<path d="M370.671 39.7939C369.916 40.4541 369.167 41.1207 368.426 41.7949L368.089 41.4248L367.754 41.0557C368.5 40.3771 369.254 39.7064 370.014 39.042L370.671 39.7939Z" fill="#2F529E"/>
<path d="M577.985 39.042C578.745 39.7064 579.499 40.3771 580.245 41.0557L579.573 41.7949C578.832 41.1208 578.083 40.4539 577.329 39.7939L577.985 39.042Z" fill="#2F529E"/>
<path d="M686.671 39.7939C685.916 40.4541 685.167 41.1207 684.426 41.7949L684.089 41.4248L683.754 41.0557C684.5 40.3771 685.254 39.7064 686.014 39.042L686.671 39.7939Z" fill="#2F529E"/>
<path d="M893.985 39.042C894.745 39.7064 895.499 40.3771 896.245 41.0557L895.573 41.7949C894.832 41.1208 894.083 40.4539 893.329 39.7939L893.985 39.042Z" fill="#2F529E"/>
<path d="M59.2725 35.9199C58.4933 36.5509 57.7199 37.1895 56.9531 37.835L56.3105 37.0703C57.0822 36.4207 57.8603 35.7785 58.6445 35.1436L59.2725 35.9199Z" fill="#2F529E"/>
<path d="M257.354 35.1436C258.139 35.7785 258.917 36.4207 259.688 37.0703L259.047 37.835C258.28 37.1895 257.507 36.5508 256.728 35.9199L257.354 35.1436Z" fill="#2F529E"/>
<path d="M375.272 35.9199C374.493 36.5509 373.72 37.1895 372.953 37.835L372.311 37.0703C373.082 36.4207 373.86 35.7785 374.645 35.1436L375.272 35.9199Z" fill="#2F529E"/>
<path d="M573.354 35.1436C574.139 35.7785 574.917 36.4207 575.688 37.0703L575.047 37.835C574.28 37.1895 573.507 36.5508 572.728 35.9199L573.354 35.1436Z" fill="#2F529E"/>
<path d="M691.272 35.9199C690.493 36.5509 689.72 37.1895 688.953 37.835L688.311 37.0703C689.082 36.4207 689.86 35.7785 690.645 35.1436L691.272 35.9199Z" fill="#2F529E"/>
<path d="M889.354 35.1436C890.139 35.7785 890.917 36.4207 891.688 37.0703L891.047 37.835C890.28 37.1895 889.507 36.5508 888.728 35.9199L889.354 35.1436Z" fill="#2F529E"/>
<path d="M63.4209 31.4229L63.5088 31.541L64.0195 32.2236C63.2164 32.8247 62.4191 33.4338 61.6279 34.0498L61.0146 33.2627C61.8111 32.6426 62.6114 32.027 63.4199 31.4219L63.4209 31.4229Z" fill="#2F529E"/>
<path d="M252.579 31.4219C253.388 32.027 254.188 32.6426 254.984 33.2627L254.372 34.0498C253.581 33.4338 252.784 32.8247 251.98 32.2236L252.579 31.4219Z" fill="#2F529E"/>
<path d="M379.421 31.4229L379.509 31.541L380.02 32.2236C379.216 32.8247 378.419 33.4338 377.628 34.0498L377.015 33.2627C377.811 32.6426 378.611 32.027 379.42 31.4219L379.421 31.4229Z" fill="#2F529E"/>
<path d="M568.579 31.4219C569.388 32.027 570.188 32.6426 570.984 33.2627L570.372 34.0498C569.581 33.4338 568.784 32.8247 567.98 32.2236L568.579 31.4219Z" fill="#2F529E"/>
<path d="M695.421 31.4229L695.509 31.541L696.02 32.2236C695.216 32.8247 694.419 33.4338 693.628 34.0498L693.015 33.2627C693.811 32.6426 694.611 32.027 695.42 31.4219L695.421 31.4229Z" fill="#2F529E"/>
<path d="M884.579 31.4219C885.388 32.027 886.188 32.6426 886.984 33.2627L886.372 34.0498C885.581 33.4338 884.784 32.8247 883.98 32.2236L884.579 31.4219Z" fill="#2F529E"/>
<path d="M68.9033 28.7119C68.0779 29.2818 67.2582 29.8601 66.4443 30.4453L65.8623 29.6348C66.681 29.0461 67.5047 28.4639 68.335 27.8906L68.9033 28.7119Z" fill="#2F529E"/>
<path d="M247.664 27.8906C248.494 28.4639 249.318 29.0461 250.137 29.6348L249.556 30.4453C248.742 29.8601 247.922 29.2818 247.097 28.7119L247.664 27.8906Z" fill="#2F529E"/>
<path d="M384.903 28.7119C384.078 29.2818 383.258 29.8601 382.444 30.4453L381.862 29.6348C382.681 29.0461 383.505 28.4639 384.335 27.8906L384.903 28.7119Z" fill="#2F529E"/>
<path d="M563.664 27.8906C564.494 28.4639 565.318 29.0461 566.137 29.6348L565.556 30.4453C564.742 29.8601 563.922 29.2818 563.097 28.7119L563.664 27.8906Z" fill="#2F529E"/>
<path d="M700.903 28.7119C700.078 29.2818 699.258 29.8601 698.444 30.4453L697.862 29.6348C698.681 29.0461 699.505 28.4639 700.335 27.8906L700.903 28.7119Z" fill="#2F529E"/>
<path d="M879.664 27.8906C880.494 28.4639 881.318 29.0461 882.137 29.6348L881.556 30.4453C880.742 29.8601 879.922 29.2818 879.097 28.7119L879.664 27.8906Z" fill="#2F529E"/>
<path d="M73.917 25.3906C73.0707 25.9284 72.2298 26.4739 71.3945 27.0273L70.8428 26.1953C71.6835 25.6383 72.5299 25.0892 73.3818 24.5479L73.917 25.3906Z" fill="#2F529E"/>
<path d="M242.617 24.5479C243.469 25.0891 244.316 25.6383 245.156 26.1953L244.605 27.0273C243.77 26.4739 242.929 25.9274 242.083 25.3896L242.366 24.9443L242.617 24.5479Z" fill="#2F529E"/>
<path d="M389.917 25.3906C389.071 25.9284 388.23 26.4739 387.395 27.0273L386.843 26.1953C387.684 25.6383 388.53 25.0892 389.382 24.5479L389.917 25.3906Z" fill="#2F529E"/>
<path d="M558.617 24.5479C559.469 25.0891 560.315 25.6383 561.156 26.1953L560.605 27.0273C559.77 26.4739 558.929 25.9274 558.083 25.3896L558.366 24.9443L558.617 24.5479Z" fill="#2F529E"/>
<path d="M705.917 25.3906C705.071 25.9284 704.23 26.4739 703.395 27.0273L702.843 26.1953C703.684 25.6383 704.53 25.0892 705.382 24.5479L705.917 25.3906Z" fill="#2F529E"/>
<path d="M874.617 24.5479C875.469 25.0891 876.315 25.6383 877.156 26.1953L876.605 27.0273C875.77 26.4739 874.929 25.9274 874.083 25.3896L874.366 24.9443L874.617 24.5479Z" fill="#2F529E"/>
<path d="M79.0547 22.2617C78.1887 22.7665 77.3281 23.28 76.4727 23.8008L75.9521 22.9463C76.8129 22.4222 77.6803 21.9083 78.5518 21.4004L79.0547 22.2617Z" fill="#2F529E"/>
<path d="M237.446 21.4004C238.318 21.9085 239.186 22.4221 240.047 22.9463L239.527 23.8008C238.672 23.28 237.811 22.7665 236.945 22.2617L237.446 21.4004Z" fill="#2F529E"/>
<path d="M395.055 22.2617C394.189 22.7665 393.328 23.28 392.473 23.8008L391.952 22.9463C392.813 22.4222 393.68 21.9083 394.552 21.4004L395.055 22.2617Z" fill="#2F529E"/>
<path d="M553.446 21.4004C554.318 21.9085 555.186 22.4221 556.047 22.9463L555.527 23.8008C554.672 23.28 553.811 22.7665 552.945 22.2617L553.446 21.4004Z" fill="#2F529E"/>
<path d="M711.055 22.2617C710.189 22.7665 709.328 23.28 708.473 23.8008L707.952 22.9463C708.813 22.4222 709.68 21.9083 710.552 21.4004L711.055 22.2617Z" fill="#2F529E"/>
<path d="M869.446 21.4004C870.318 21.9085 871.186 22.4221 872.047 22.9463L871.527 23.8008C870.672 23.28 869.811 22.7665 868.945 22.2617L869.446 21.4004Z" fill="#2F529E"/>
<path d="M84.3096 19.333C83.4241 19.8046 82.5433 20.2845 81.668 20.7725L81.4238 20.335L81.1816 19.8984C82.0625 19.4074 82.9497 18.9267 83.8408 18.4521L84.3096 19.333Z" fill="#2F529E"/>
<path d="M232.158 18.4521C233.049 18.9267 233.937 19.4074 234.817 19.8984L234.332 20.7725C233.457 20.2845 232.576 19.8046 231.69 19.333L232.158 18.4521Z" fill="#2F529E"/>
<path d="M400.31 19.333C399.424 19.8046 398.543 20.2845 397.668 20.7725L397.424 20.335L397.182 19.8984C398.062 19.4074 398.95 18.9267 399.841 18.4521L400.31 19.333Z" fill="#2F529E"/>
<path d="M548.158 18.4521C549.049 18.9267 549.937 19.4074 550.817 19.8984L550.332 20.7725C549.457 20.2845 548.576 19.8046 547.69 19.333L548.158 18.4521Z" fill="#2F529E"/>
<path d="M716.31 19.333C715.424 19.8046 714.543 20.2845 713.668 20.7725L713.424 20.335L713.182 19.8984C714.062 19.4074 714.95 18.9267 715.841 18.4521L716.31 19.333Z" fill="#2F529E"/>
<path d="M864.158 18.4521C865.049 18.9267 865.937 19.4074 866.817 19.8984L866.332 20.7725C865.457 20.2845 864.576 19.8046 863.69 19.333L864.158 18.4521Z" fill="#2F529E"/>
<path d="M89.6738 16.6074C88.7701 17.045 87.8706 17.491 86.9766 17.9453L86.5244 17.0557C87.424 16.5985 88.3279 16.1483 89.2373 15.708L89.6738 16.6074Z" fill="#2F529E"/>
<path d="M226.762 15.708C227.671 16.1483 228.575 16.5985 229.475 17.0557L229.023 17.9453C228.129 17.491 227.23 17.045 226.326 16.6074L226.762 15.708Z" fill="#2F529E"/>
<path d="M405.674 16.6074C404.77 17.045 403.871 17.491 402.977 17.9453L402.524 17.0557C403.424 16.5985 404.328 16.1483 405.237 15.708L405.674 16.6074Z" fill="#2F529E"/>
<path d="M542.762 15.708C543.671 16.1483 544.575 16.5985 545.475 17.0557L545.023 17.9453C544.129 17.491 543.23 17.045 542.326 16.6074L542.762 15.708Z" fill="#2F529E"/>
<path d="M721.674 16.6074C720.77 17.045 719.871 17.491 718.977 17.9453L718.524 17.0557C719.424 16.5985 720.328 16.1483 721.237 15.708L721.674 16.6074Z" fill="#2F529E"/>
<path d="M858.762 15.708C859.671 16.1483 860.575 16.5985 861.475 17.0557L861.023 17.9453C860.129 17.491 859.23 17.045 858.326 16.6074L858.762 15.708Z" fill="#2F529E"/>
<path d="M95.1348 14.0918C94.2154 14.494 93.3007 14.905 92.3906 15.3242L91.9727 14.418C92.8882 13.9963 93.8076 13.5814 94.7324 13.1768L94.7344 13.1758L95.1348 14.0918Z" fill="#2F529E"/>
<path d="M221.265 13.1758C222.19 13.5805 223.109 13.9961 224.025 14.418L223.609 15.3242C222.699 14.905 221.785 14.494 220.865 14.0918L221.265 13.1758Z" fill="#2F529E"/>
<path d="M411.135 14.0918C410.215 14.494 409.301 14.905 408.391 15.3242L407.973 14.418C408.888 13.9963 409.808 13.5814 410.732 13.1768L410.734 13.1758L411.135 14.0918Z" fill="#2F529E"/>
<path d="M537.265 13.1758C538.19 13.5805 539.109 13.9961 540.025 14.418L539.609 15.3242C538.699 14.905 537.785 14.494 536.865 14.0918L537.265 13.1758Z" fill="#2F529E"/>
<path d="M727.135 14.0918C726.215 14.494 725.301 14.905 724.391 15.3242L723.973 14.418C724.888 13.9963 725.808 13.5814 726.732 13.1768L726.734 13.1758L727.135 14.0918Z" fill="#2F529E"/>
<path d="M853.265 13.1758C854.19 13.5805 855.109 13.9961 856.025 14.418L855.609 15.3242C854.699 14.905 853.785 14.494 852.865 14.0918L853.265 13.1758Z" fill="#2F529E"/>
<path d="M100.689 11.7881C99.7561 12.1542 98.8269 12.5297 97.9023 12.9131L97.5205 11.9912C98.4508 11.6054 99.385 11.2268 100.324 10.8584L100.689 11.7881Z" fill="#2F529E"/>
<path d="M215.674 10.8574C216.613 11.226 217.548 11.6053 218.479 11.9912L218.098 12.9131C217.173 12.5297 216.244 12.1542 215.311 11.7881L215.674 10.8574Z" fill="#2F529E"/>
<path d="M416.689 11.7881C415.756 12.1542 414.827 12.5297 413.902 12.9131L413.521 11.9912C414.451 11.6054 415.385 11.2268 416.324 10.8584L416.689 11.7881Z" fill="#2F529E"/>
<path d="M531.674 10.8574C532.613 11.226 533.548 11.6053 534.479 11.9912L534.098 12.9131C533.173 12.5297 532.244 12.1542 531.311 11.7881L531.674 10.8574Z" fill="#2F529E"/>
<path d="M732.689 11.7881C731.756 12.1542 730.827 12.5297 729.902 12.9131L729.521 11.9912C730.451 11.6054 731.385 11.2268 732.324 10.8584L732.689 11.7881Z" fill="#2F529E"/>
<path d="M847.674 10.8574C848.613 11.226 849.548 11.6053 850.479 11.9912L850.098 12.9131C849.173 12.5297 848.244 12.1542 847.311 11.7881L847.674 10.8574Z" fill="#2F529E"/>
<path d="M106.331 9.7002C105.384 10.03 104.441 10.3685 103.503 10.7158L103.156 9.7793C104.101 9.42977 105.049 9.08971 106.002 8.75781L106.331 9.7002Z" fill="#2F529E"/>
<path d="M209.997 8.75781C210.95 9.0897 211.898 9.42978 212.843 9.7793L212.497 10.7158C211.559 10.3685 210.616 10.03 209.669 9.7002L209.997 8.75781Z" fill="#2F529E"/>
<path d="M422.331 9.7002C421.384 10.03 420.441 10.3685 419.503 10.7158L419.156 9.7793C420.101 9.42977 421.049 9.08971 422.002 8.75781L422.331 9.7002Z" fill="#2F529E"/>
<path d="M525.997 8.75781C526.95 9.0897 527.898 9.42978 528.843 9.7793L528.497 10.7158C527.559 10.3685 526.616 10.03 525.669 9.7002L525.997 8.75781Z" fill="#2F529E"/>
<path d="M738.331 9.7002C737.384 10.03 736.441 10.3685 735.503 10.7158L735.156 9.7793C736.101 9.42977 737.049 9.08971 738.002 8.75781L738.331 9.7002Z" fill="#2F529E"/>
<path d="M841.997 8.75781C842.95 9.0897 843.898 9.42978 844.843 9.7793L844.497 10.7158C843.559 10.3685 842.616 10.03 841.669 9.7002L841.997 8.75781Z" fill="#2F529E"/>
<path d="M112.051 7.83105C111.09 8.1246 110.133 8.4269 109.181 8.73828L108.87 7.78906C109.829 7.47567 110.792 7.1724 111.759 6.87695L112.051 7.83105Z" fill="#2F529E"/>
<path d="M204.24 6.87695C205.207 7.17239 206.17 7.47568 207.129 7.78906L206.819 8.73828C205.867 8.42691 204.91 8.1246 203.949 7.83105L204.24 6.87695Z" fill="#2F529E"/>
<path d="M428.051 7.83105C427.09 8.1246 426.133 8.4269 425.181 8.73828L424.87 7.78906C425.829 7.47567 426.792 7.1724 427.759 6.87695L428.051 7.83105Z" fill="#2F529E"/>
<path d="M520.24 6.87695C521.207 7.17239 522.17 7.47568 523.129 7.78906L522.819 8.73828C521.867 8.42691 520.91 8.1246 519.949 7.83105L520.24 6.87695Z" fill="#2F529E"/>
<path d="M744.051 7.83105C743.09 8.1246 742.133 8.4269 741.181 8.73828L740.87 7.78906C741.829 7.47567 742.792 7.1724 743.759 6.87695L744.051 7.83105Z" fill="#2F529E"/>
<path d="M836.24 6.87695C837.207 7.17239 838.17 7.47568 839.129 7.78906L838.819 8.73828C837.867 8.42691 836.91 8.1246 835.949 7.83105L836.24 6.87695Z" fill="#2F529E"/>
<path d="M117.836 6.18457C116.864 6.44095 115.896 6.70603 114.932 6.98047L114.658 6.01855C115.628 5.74246 116.603 5.47765 117.58 5.21973L117.836 6.18457Z" fill="#2F529E"/>
<path d="M198.419 5.21973C199.396 5.47764 200.371 5.74247 201.341 6.01855L201.068 6.98047C200.104 6.70603 199.136 6.44095 198.164 6.18457L198.419 5.21973Z" fill="#2F529E"/>
<path d="M433.836 6.18457C432.864 6.44095 431.896 6.70603 430.932 6.98047L430.658 6.01855C431.628 5.74246 432.603 5.47765 433.58 5.21973L433.836 6.18457Z" fill="#2F529E"/>
<path d="M514.419 5.21973C515.396 5.47764 516.371 5.74247 517.341 6.01855L517.068 6.98047C516.104 6.70603 515.136 6.44095 514.164 6.18457L514.419 5.21973Z" fill="#2F529E"/>
<path d="M749.836 6.18457C748.864 6.44095 747.896 6.70603 746.932 6.98047L746.658 6.01855C747.628 5.74246 748.603 5.47765 749.58 5.21973L749.836 6.18457Z" fill="#2F529E"/>
<path d="M830.419 5.21973C831.396 5.47764 832.371 5.74247 833.341 6.01855L833.068 6.98047C832.104 6.70603 831.136 6.44095 830.164 6.18457L830.419 5.21973Z" fill="#2F529E"/>
<path d="M123.677 4.7627C122.697 4.98114 121.721 5.20866 120.748 5.44531L120.512 4.47461C121.49 4.23644 122.473 4.0089 123.459 3.78906L123.677 4.7627Z" fill="#2F529E"/>
<path d="M192.54 3.78906C193.526 4.0089 194.509 4.23645 195.487 4.47461L195.252 5.44531C194.279 5.20866 193.303 4.98114 192.323 4.7627L192.54 3.78906Z" fill="#2F529E"/>
<path d="M439.677 4.7627C438.697 4.98114 437.721 5.20866 436.748 5.44531L436.512 4.47461C437.491 4.23644 438.473 4.0089 439.459 3.78906L439.677 4.7627Z" fill="#2F529E"/>
<path d="M508.54 3.78906C509.526 4.0089 510.509 4.23645 511.487 4.47461L511.252 5.44531C510.279 5.20866 509.303 4.98114 508.323 4.7627L508.54 3.78906Z" fill="#2F529E"/>
<path d="M755.677 4.7627C754.697 4.98114 753.721 5.20866 752.748 5.44531L752.512 4.47461C753.49 4.23644 754.473 4.0089 755.459 3.78906L755.677 4.7627Z" fill="#2F529E"/>
<path d="M824.54 3.78906C825.526 4.0089 826.509 4.23645 827.487 4.47461L827.252 5.44531C826.279 5.20866 825.303 4.98114 824.323 4.7627L824.54 3.78906Z" fill="#2F529E"/>
<path d="M129.435 2.82715L129.57 3.56738C128.585 3.7476 127.603 3.93722 126.624 4.13574L126.425 3.15625C127.41 2.95643 128.399 2.76734 129.391 2.58594L129.435 2.82715Z" fill="#2F529E"/>
<path d="M186.608 2.58594C187.6 2.76733 188.589 2.95643 189.574 3.15625L189.376 4.13574C188.397 3.93722 187.415 3.7476 186.43 3.56738L186.565 2.82715L186.608 2.58594Z" fill="#2F529E"/>
<path d="M445.435 2.82715L445.57 3.56738C444.585 3.7476 443.603 3.93722 442.624 4.13574L442.425 3.15625C443.41 2.95643 444.399 2.76734 445.391 2.58594L445.435 2.82715Z" fill="#2F529E"/>
<path d="M502.608 2.58594C503.6 2.76733 504.589 2.95643 505.574 3.15625L505.376 4.13574C504.397 3.93722 503.415 3.7476 502.43 3.56738L502.565 2.82715L502.608 2.58594Z" fill="#2F529E"/>
<path d="M761.435 2.82715L761.57 3.56738C760.585 3.7476 759.603 3.93722 758.624 4.13574L758.425 3.15625C759.41 2.95643 760.399 2.76734 761.391 2.58594L761.435 2.82715Z" fill="#2F529E"/>
<path d="M818.608 2.58594C819.6 2.76733 820.589 2.95643 821.574 3.15625L821.376 4.13574C820.397 3.93722 819.415 3.7476 818.43 3.56738L818.565 2.82715L818.608 2.58594Z" fill="#2F529E"/>
<path d="M135.51 2.59863C134.516 2.7412 133.525 2.89359 132.537 3.05469L132.376 2.06836C133.37 1.90622 134.368 1.75482 135.368 1.61133L135.51 2.59863Z" fill="#2F529E"/>
<path d="M451.51 2.59863C450.516 2.7412 449.525 2.89359 448.537 3.05469L448.376 2.06836C449.37 1.90622 450.368 1.75482 451.368 1.61133L451.51 2.59863Z" fill="#2F529E"/>
<path d="M767.51 2.59863C766.516 2.7412 765.525 2.89359 764.537 3.05469L764.376 2.06836C765.37 1.90622 766.368 1.75482 767.368 1.61133L767.51 2.59863Z" fill="#2F529E"/>
<path d="M180.631 1.61133C181.631 1.75481 182.629 1.90622 183.623 2.06836L183.544 2.56055L183.543 2.55957L183.463 3.05371C182.475 2.89262 181.484 2.74119 180.49 2.59863L180.631 1.61133Z" fill="#2F529E"/>
<path d="M496.631 1.61133C497.631 1.75481 498.629 1.90622 499.623 2.06836L499.544 2.56055L499.543 2.55957L499.463 3.05371C498.475 2.89262 497.484 2.74119 496.49 2.59863L496.631 1.61133Z" fill="#2F529E"/>
<path d="M812.631 1.61133C813.631 1.75481 814.629 1.90622 815.623 2.06836L815.544 2.56055L815.543 2.55957L815.463 3.05371C814.475 2.89262 813.484 2.74119 812.49 2.59863L812.631 1.61133Z" fill="#2F529E"/>
<path d="M141.482 1.8584C140.481 1.96306 139.483 2.07681 138.487 2.2002L138.364 1.20996C139.366 1.08575 140.371 0.970591 141.379 0.865234L141.482 1.8584Z" fill="#2F529E"/>
<path d="M174.62 0.865234C175.628 0.970551 176.632 1.0858 177.634 1.20996L177.574 1.7041L177.573 1.70312L177.513 2.2002C176.517 2.07679 175.518 1.96307 174.517 1.8584L174.62 0.865234Z" fill="#2F529E"/>
<path d="M457.482 1.8584C456.481 1.96306 455.483 2.07681 454.487 2.2002L454.364 1.20996C455.366 1.08575 456.371 0.970591 457.379 0.865234L457.482 1.8584Z" fill="#2F529E"/>
<path d="M490.62 0.865234C491.628 0.970551 492.632 1.0858 493.634 1.20996L493.574 1.7041L493.573 1.70312L493.513 2.2002C492.517 2.07679 491.518 1.96307 490.517 1.8584L490.62 0.865234Z" fill="#2F529E"/>
<path d="M773.482 1.8584C772.481 1.96306 771.483 2.07681 770.487 2.2002L770.364 1.20996C771.366 1.08575 772.371 0.970591 773.379 0.865234L773.482 1.8584Z" fill="#2F529E"/>
<path d="M806.62 0.865234C807.628 0.970551 808.632 1.0858 809.634 1.20996L809.574 1.7041L809.573 1.70312L809.513 2.2002C808.517 2.07679 807.518 1.96307 806.517 1.8584L806.62 0.865234Z" fill="#2F529E"/>
<path d="M147.471 1.34766C146.468 1.41403 145.468 1.49009 144.471 1.5752L144.386 0.581055C145.389 0.495405 146.395 0.418363 147.404 0.351562L147.471 1.34766Z" fill="#2F529E"/>
<path d="M168.595 0.351562C169.604 0.418357 170.61 0.495411 171.613 0.581055L171.529 1.5752C170.532 1.49009 169.532 1.41403 168.529 1.34766L168.595 0.351562Z" fill="#2F529E"/>
<path d="M463.471 1.34766C462.468 1.41403 461.468 1.49009 460.471 1.5752L460.386 0.581055C461.389 0.495405 462.395 0.418363 463.404 0.351562L463.471 1.34766Z" fill="#2F529E"/>
<path d="M484.595 0.351562C485.604 0.418357 486.61 0.495411 487.613 0.581055L487.529 1.5752C486.532 1.49009 485.532 1.41403 484.529 1.34766L484.595 0.351562Z" fill="#2F529E"/>
<path d="M779.471 1.34766C778.468 1.41403 777.468 1.49009 776.471 1.5752L776.386 0.581055C777.389 0.495405 778.395 0.418363 779.404 0.351562L779.471 1.34766Z" fill="#2F529E"/>
<path d="M800.595 0.351562C801.604 0.418357 802.61 0.495411 803.613 0.581055L803.529 1.5752C802.532 1.49009 801.532 1.41403 800.529 1.34766L800.595 0.351562Z" fill="#2F529E"/>
<path d="M153.456 0.349609L153.477 1.06348C152.475 1.09181 151.476 1.12976 150.479 1.17676L150.433 0.180664C151.435 0.133377 152.441 0.0949113 153.448 0.0664062L153.456 0.349609Z" fill="#2F529E"/>
<path d="M162.55 0.0664062C163.558 0.0949083 164.563 0.133367 165.566 0.180664L165.521 1.17676C164.524 1.12975 163.524 1.09181 162.522 1.06348L162.55 0.0664062Z" fill="#2F529E"/>
<path d="M469.456 0.349609L469.477 1.06348C468.475 1.09181 467.476 1.12976 466.479 1.17676L466.433 0.180664C467.435 0.133377 468.441 0.0949113 469.448 0.0664062L469.456 0.349609Z" fill="#2F529E"/>
<path d="M478.55 0.0664062C479.558 0.0949083 480.563 0.133367 481.566 0.180664L481.521 1.17676C480.524 1.12975 479.524 1.09181 478.522 1.06348L478.55 0.0664062Z" fill="#2F529E"/>
<path d="M785.456 0.349609L785.477 1.06348C784.475 1.09181 783.476 1.12976 782.479 1.17676L782.433 0.180664C783.435 0.133377 784.441 0.0949113 785.448 0.0664062L785.456 0.349609Z" fill="#2F529E"/>
<path d="M794.55 0.0664062C795.558 0.0949083 796.563 0.133367 797.566 0.180664L797.521 1.17676C796.524 1.12975 795.524 1.09181 794.522 1.06348L794.55 0.0664062Z" fill="#2F529E"/>
<path d="M159.52 0.00878906L159.511 1.00684C159.008 1.00209 158.504 1 158 1C157.496 1 156.992 1.00209 156.489 1.00684L156.479 0.00878906C156.986 0.0040161 157.493 0 158 0C158.507 0 159.014 0.00402225 159.52 0.00878906Z" fill="#2F529E"/>
<path d="M475.52 0.00878906L475.511 1.00684C475.008 1.00209 474.504 1 474 1C473.496 1 472.992 1.00209 472.489 1.00684L472.479 0.00878906C472.986 0.0040161 473.493 0 474 0C474.507 0 475.014 0.00402225 475.52 0.00878906Z" fill="#2F529E"/>
<path d="M791.52 0.00878906L791.511 1.00684C791.008 1.00209 790.504 1 790 1C789.496 1 788.992 1.00209 788.489 1.00684L788.479 0.00878906C788.986 0.0040161 789.493 0 790 0C790.507 0 791.014 0.00402225 791.52 0.00878906Z" fill="#2F529E"/>
</svg>
