<svg width="1920" height="798" viewBox="0 0 1920 798" fill="none" xmlns="http://www.w3.org/2000/svg">
<path d="M965 792H967.971V793H965V798H955V793H953.028V792H955V788H965V792Z" fill="#8F91AF"/>
<path d="M319 792H320.49V793H318V790.507H319V792Z" fill="#8F91AF"/>
<path d="M330.451 793H325.471V792H330.451V793Z" fill="#8F91AF"/>
<path d="M340.413 793H335.433V792H340.413V793Z" fill="#8F91AF"/>
<path d="M350.374 793H345.394V792H350.374V793Z" fill="#8F91AF"/>
<path d="M360.335 793H355.354V792H360.335V793Z" fill="#8F91AF"/>
<path d="M370.297 793H365.315V792H370.297V793Z" fill="#8F91AF"/>
<path d="M380.258 793H375.277V792H380.258V793Z" fill="#8F91AF"/>
<path d="M390.219 793H385.238V792H390.219V793Z" fill="#8F91AF"/>
<path d="M400.181 793H395.199V792H400.181V793Z" fill="#8F91AF"/>
<path d="M410.142 793H405.161V792H410.142V793Z" fill="#8F91AF"/>
<path d="M420.103 793H415.122V792H420.103V793Z" fill="#8F91AF"/>
<path d="M430.064 793H425.083V792H430.064V793Z" fill="#8F91AF"/>
<path d="M440.025 793H435.045V792H440.025V793Z" fill="#8F91AF"/>
<path d="M449.986 793H445.006V792H449.986V793Z" fill="#8F91AF"/>
<path d="M459.947 793H454.967V792H459.947V793Z" fill="#8F91AF"/>
<path d="M469.909 793H464.929V792H469.909V793Z" fill="#8F91AF"/>
<path d="M479.87 793H474.89V792H479.87V793Z" fill="#8F91AF"/>
<path d="M489.831 793H484.851V792H489.831V793Z" fill="#8F91AF"/>
<path d="M499.793 793H494.812V792H499.793V793Z" fill="#8F91AF"/>
<path d="M509.754 793H504.773V792H509.754V793Z" fill="#8F91AF"/>
<path d="M519.715 793H514.734V792H519.715V793Z" fill="#8F91AF"/>
<path d="M529.677 793H524.695V792H529.677V793Z" fill="#8F91AF"/>
<path d="M539.638 793H534.657V792H539.638V793Z" fill="#8F91AF"/>
<path d="M549.599 793H544.618V792H549.599V793Z" fill="#8F91AF"/>
<path d="M559.561 793H554.579V792H559.561V793Z" fill="#8F91AF"/>
<path d="M569.521 793H564.541V792H569.521V793Z" fill="#8F91AF"/>
<path d="M579.482 793H574.502V792H579.482V793Z" fill="#8F91AF"/>
<path d="M589.444 793H584.463V792H589.444V793Z" fill="#8F91AF"/>
<path d="M599.405 793H594.425V792H599.405V793Z" fill="#8F91AF"/>
<path d="M609.366 793H604.386V792H609.366V793Z" fill="#8F91AF"/>
<path d="M619.327 793H614.347V792H619.327V793Z" fill="#8F91AF"/>
<path d="M629.289 793H624.309V792H629.289V793Z" fill="#8F91AF"/>
<path d="M639.25 793H634.27V792H639.25V793Z" fill="#8F91AF"/>
<path d="M649.211 793H644.23V792H649.211V793Z" fill="#8F91AF"/>
<path d="M659.173 793H654.192V792H659.173V793Z" fill="#8F91AF"/>
<path d="M669.134 793H664.153V792H669.134V793Z" fill="#8F91AF"/>
<path d="M679.095 793H674.114V792H679.095V793Z" fill="#8F91AF"/>
<path d="M689.057 793H684.075V792H689.057V793Z" fill="#8F91AF"/>
<path d="M699.018 793H694.037V792H699.018V793Z" fill="#8F91AF"/>
<path d="M708.979 793H703.998V792H708.979V793Z" fill="#8F91AF"/>
<path d="M718.94 793H713.959V792H718.94V793Z" fill="#8F91AF"/>
<path d="M728.901 793H723.921V792H728.901V793Z" fill="#8F91AF"/>
<path d="M738.862 793H733.882V792H738.862V793Z" fill="#8F91AF"/>
<path d="M748.824 793H743.843V792H748.824V793Z" fill="#8F91AF"/>
<path d="M758.785 793H753.805V792H758.785V793Z" fill="#8F91AF"/>
<path d="M768.746 793H763.766V792H768.746V793Z" fill="#8F91AF"/>
<path d="M778.707 793H773.727V792H778.707V793Z" fill="#8F91AF"/>
<path d="M788.669 793H783.688V792H788.669V793Z" fill="#8F91AF"/>
<path d="M798.63 793H793.649V792H798.63V793Z" fill="#8F91AF"/>
<path d="M808.591 793H803.61V792H808.591V793Z" fill="#8F91AF"/>
<path d="M818.553 793H813.572V792H818.553V793Z" fill="#8F91AF"/>
<path d="M828.514 793H823.533V792H828.514V793Z" fill="#8F91AF"/>
<path d="M838.475 793H833.494V792H838.475V793Z" fill="#8F91AF"/>
<path d="M848.436 793H843.455V792H848.436V793Z" fill="#8F91AF"/>
<path d="M858.397 793H853.417V792H858.397V793Z" fill="#8F91AF"/>
<path d="M868.358 793H863.378V792H868.358V793Z" fill="#8F91AF"/>
<path d="M878.319 793H873.339V792H878.319V793Z" fill="#8F91AF"/>
<path d="M888.28 793H883.3V792H888.28V793Z" fill="#8F91AF"/>
<path d="M898.242 793H893.262V792H898.242V793Z" fill="#8F91AF"/>
<path d="M908.203 793H903.223V792H908.203V793Z" fill="#8F91AF"/>
<path d="M918.164 793H913.184V792H918.164V793Z" fill="#8F91AF"/>
<path d="M928.126 793H923.145V792H928.126V793Z" fill="#8F91AF"/>
<path d="M938.087 793H933.106V792H938.087V793Z" fill="#8F91AF"/>
<path d="M948.048 793H943.067V792H948.048V793Z" fill="#8F91AF"/>
<path d="M977.932 793H972.951V792H977.932V793Z" fill="#8F91AF"/>
<path d="M987.893 793H982.912V792H987.893V793Z" fill="#8F91AF"/>
<path d="M997.854 793H992.873V792H997.854V793Z" fill="#8F91AF"/>
<path d="M1007.81 793H1002.83V792H1007.81V793Z" fill="#8F91AF"/>
<path d="M1017.78 793H1012.8V792H1017.78V793Z" fill="#8F91AF"/>
<path d="M1027.74 793H1022.76V792H1027.74V793Z" fill="#8F91AF"/>
<path d="M1037.7 793H1032.72V792H1037.7V793Z" fill="#8F91AF"/>
<path d="M1047.66 793H1042.68V792H1047.66V793Z" fill="#8F91AF"/>
<path d="M1057.62 793H1052.64V792H1057.62V793Z" fill="#8F91AF"/>
<path d="M1067.58 793H1062.6V792H1067.58V793Z" fill="#8F91AF"/>
<path d="M1077.54 793H1072.56V792H1077.54V793Z" fill="#8F91AF"/>
<path d="M1087.5 793H1082.52V792H1087.5V793Z" fill="#8F91AF"/>
<path d="M1097.47 793H1092.49V792H1097.47V793Z" fill="#8F91AF"/>
<path d="M1107.43 793H1102.45V792H1107.43V793Z" fill="#8F91AF"/>
<path d="M1117.39 793H1112.41V792H1117.39V793Z" fill="#8F91AF"/>
<path d="M1127.35 793H1122.37V792H1127.35V793Z" fill="#8F91AF"/>
<path d="M1137.31 793H1132.33V792H1137.31V793Z" fill="#8F91AF"/>
<path d="M1147.27 793H1142.29V792H1147.27V793Z" fill="#8F91AF"/>
<path d="M1157.23 793H1152.25V792H1157.23V793Z" fill="#8F91AF"/>
<path d="M1167.19 793H1162.21V792H1167.19V793Z" fill="#8F91AF"/>
<path d="M1177.16 793H1172.17V792H1177.16V793Z" fill="#8F91AF"/>
<path d="M1187.12 793H1182.14V792H1187.12V793Z" fill="#8F91AF"/>
<path d="M1197.08 793H1192.1V792H1197.08V793Z" fill="#8F91AF"/>
<path d="M1207.04 793H1202.06V792H1207.04V793Z" fill="#8F91AF"/>
<path d="M1217 793H1212.02V792H1217V793Z" fill="#8F91AF"/>
<path d="M1226.96 793H1221.98V792H1226.96V793Z" fill="#8F91AF"/>
<path d="M1236.92 793H1231.94V792H1236.92V793Z" fill="#8F91AF"/>
<path d="M1246.88 793H1241.9V792H1246.88V793Z" fill="#8F91AF"/>
<path d="M1256.84 793H1251.86V792H1256.84V793Z" fill="#8F91AF"/>
<path d="M1266.81 793H1261.83V792H1266.81V793Z" fill="#8F91AF"/>
<path d="M1276.77 793H1271.79V792H1276.77V793Z" fill="#8F91AF"/>
<path d="M1286.73 793H1281.75V792H1286.73V793Z" fill="#8F91AF"/>
<path d="M1296.69 793H1291.71V792H1296.69V793Z" fill="#8F91AF"/>
<path d="M1306.65 793H1301.67V792H1306.65V793Z" fill="#8F91AF"/>
<path d="M1316.61 793H1311.63V792H1316.61V793Z" fill="#8F91AF"/>
<path d="M1326.57 793H1321.59V792H1326.57V793Z" fill="#8F91AF"/>
<path d="M1336.53 793H1331.55V792H1336.53V793Z" fill="#8F91AF"/>
<path d="M1346.5 793H1341.51V792H1346.5V793Z" fill="#8F91AF"/>
<path d="M1356.46 793H1351.48V792H1356.46V793Z" fill="#8F91AF"/>
<path d="M1366.42 793H1361.44V792H1366.42V793Z" fill="#8F91AF"/>
<path d="M1376.38 793H1371.4V792H1376.38V793Z" fill="#8F91AF"/>
<path d="M1386.34 793H1381.36V792H1386.34V793Z" fill="#8F91AF"/>
<path d="M1396.3 793H1391.32V792H1396.3V793Z" fill="#8F91AF"/>
<path d="M1406.26 793H1401.28V792H1406.26V793Z" fill="#8F91AF"/>
<path d="M1416.22 793H1411.24V792H1416.22V793Z" fill="#8F91AF"/>
<path d="M1426.18 793H1421.2V792H1426.18V793Z" fill="#8F91AF"/>
<path d="M1436.15 793H1431.17V792H1436.15V793Z" fill="#8F91AF"/>
<path d="M1446.11 793H1441.13V792H1446.11V793Z" fill="#8F91AF"/>
<path d="M1456.07 793H1451.09V792H1456.07V793Z" fill="#8F91AF"/>
<path d="M1466.03 793H1461.05V792H1466.03V793Z" fill="#8F91AF"/>
<path d="M1475.99 793H1471.01V792H1475.99V793Z" fill="#8F91AF"/>
<path d="M1485.95 793H1480.97V792H1485.95V793Z" fill="#8F91AF"/>
<path d="M1495.91 793H1490.93V792H1495.91V793Z" fill="#8F91AF"/>
<path d="M1505.87 793H1500.89V792H1505.87V793Z" fill="#8F91AF"/>
<path d="M1515.83 793H1510.85V792H1515.83V793Z" fill="#8F91AF"/>
<path d="M1525.8 793H1520.82V792H1525.8V793Z" fill="#8F91AF"/>
<path d="M1535.76 793H1530.78V792H1535.76V793Z" fill="#8F91AF"/>
<path d="M1545.72 793H1540.74V792H1545.72V793Z" fill="#8F91AF"/>
<path d="M1555.68 793H1550.7V792H1555.68V793Z" fill="#8F91AF"/>
<path d="M1565.64 793H1560.66V792H1565.64V793Z" fill="#8F91AF"/>
<path d="M1575.6 793H1570.62V792H1575.6V793Z" fill="#8F91AF"/>
<path d="M1585.56 793H1580.58V792H1585.56V793Z" fill="#8F91AF"/>
<path d="M1595.52 793H1590.54V792H1595.52V793Z" fill="#8F91AF"/>
<path d="M1603 793H1600.5V792H1602V790.506H1603V793Z" fill="#8F91AF"/>
<path d="M319 785.52H318V780.532H319V785.52Z" fill="#8F91AF"/>
<path d="M1603 785.519H1602V780.531H1603V785.519Z" fill="#8F91AF"/>
<path d="M319 775.545H318V770.558H319V775.545Z" fill="#8F91AF"/>
<path d="M1603 775.544H1602V770.557H1603V775.544Z" fill="#8F91AF"/>
<path d="M319 765.57H318V760.583H319V765.57Z" fill="#8F91AF"/>
<path d="M1603 765.569H1602V760.582H1603V765.569Z" fill="#8F91AF"/>
<path d="M319 755.596H318V750.608H319V755.596Z" fill="#8F91AF"/>
<path d="M1603 755.595H1602V750.607H1603V755.595Z" fill="#8F91AF"/>
<path d="M319 745.621H318V740.634H319V745.621Z" fill="#8F91AF"/>
<path d="M1603 745.62H1602V740.633H1603V745.62Z" fill="#8F91AF"/>
<path d="M319 735.646H318V730.659H319V735.646Z" fill="#8F91AF"/>
<path d="M1603 735.646H1602V730.658H1603V735.646Z" fill="#8F91AF"/>
<path d="M319 725.671H318V720.684H319V725.671Z" fill="#8F91AF"/>
<path d="M1603 725.671H1602V720.684H1603V725.671Z" fill="#8F91AF"/>
<path d="M319 715.696H318V710.709H319V715.696Z" fill="#8F91AF"/>
<path d="M1603 715.696H1602V710.709H1603V715.696Z" fill="#8F91AF"/>
<path d="M319 705.722H318V700.734H319V705.722Z" fill="#8F91AF"/>
<path d="M1603 705.722H1602V700.734H1603V705.722Z" fill="#8F91AF"/>
<path d="M319 695.747H318V690.76H319V695.747Z" fill="#8F91AF"/>
<path d="M1603 695.747H1602V690.76H1603V695.747Z" fill="#8F91AF"/>
<path d="M319 685.772H318V680.785H319V685.772Z" fill="#8F91AF"/>
<path d="M1603 685.772H1602V680.785H1603V685.772Z" fill="#8F91AF"/>
<path d="M319 675.798H318V670.811H319V675.798Z" fill="#8F91AF"/>
<path d="M1603 675.798H1602V670.811H1603V675.798Z" fill="#8F91AF"/>
<path d="M319 665.823H318V660.836H319V665.823Z" fill="#8F91AF"/>
<path d="M1603 665.823H1602V660.835H1603V665.823Z" fill="#8F91AF"/>
<path d="M319 655.849H318V650.861H319V655.849Z" fill="#8F91AF"/>
<path d="M1603 655.848H1602V650.86H1603V655.848Z" fill="#8F91AF"/>
<path d="M319 645.874H318V640.886H319V645.874Z" fill="#8F91AF"/>
<path d="M1603 645.873H1602V640.886H1603V645.873Z" fill="#8F91AF"/>
<path d="M319 635.898H318V630.911H319V635.898Z" fill="#8F91AF"/>
<path d="M1603 635.898H1602V630.911H1603V635.898Z" fill="#8F91AF"/>
<path d="M319 625.924H318V620.937H319V625.924Z" fill="#8F91AF"/>
<path d="M1603 625.924H1602V620.937H1603V625.924Z" fill="#8F91AF"/>
<path d="M319 615.949H318V610.962H319V615.949Z" fill="#8F91AF"/>
<path d="M1603 615.949H1602V610.962H1603V615.949Z" fill="#8F91AF"/>
<path d="M319 605.975H318V600.987H319V605.975Z" fill="#8F91AF"/>
<path d="M1603 605.975H1602V600.987H1603V605.975Z" fill="#8F91AF"/>
<path d="M319 596H318V591.013H319V596Z" fill="#8F91AF"/>
<path d="M1603 596H1602V591.013H1603V596Z" fill="#8F91AF"/>
<path d="M319 586.025H318V581.038H319V586.025Z" fill="#8F91AF"/>
<path d="M1603 586.025H1602V581.038H1603V586.025Z" fill="#8F91AF"/>
<path d="M319 576.051H318V571.063H319V576.051Z" fill="#8F91AF"/>
<path d="M1603 576.051H1602V571.063H1603V576.051Z" fill="#8F91AF"/>
<path d="M319 566.076H318V561.088H319V566.076Z" fill="#8F91AF"/>
<path d="M1603 566.076H1602V561.089H1603V566.076Z" fill="#8F91AF"/>
<path d="M1603 556.102H1602V551.114H1603V556.102Z" fill="#8F91AF"/>
<path d="M319 556.101H318V551.113H319V556.101Z" fill="#8F91AF"/>
<path d="M1603 546.127H1602V541.14H1603V546.127Z" fill="#8F91AF"/>
<path d="M319 546.126H318V541.139H319V546.126Z" fill="#8F91AF"/>
<path d="M1603 536.152H1602V531.165H1603V536.152Z" fill="#8F91AF"/>
<path d="M319 536.151H318V531.164H319V536.151Z" fill="#8F91AF"/>
<path d="M1603 526.178H1602V521.19H1603V526.178Z" fill="#8F91AF"/>
<path d="M319 526.177H318V521.189H319V526.177Z" fill="#8F91AF"/>
<path d="M1603 516.203H1602V511.216H1603V516.203Z" fill="#8F91AF"/>
<path d="M319 516.202H318V511.215H319V516.202Z" fill="#8F91AF"/>
<path d="M1603 506.229H1602V501.24H1603V506.229Z" fill="#8F91AF"/>
<path d="M319 506.228H318V501.24H319V506.228Z" fill="#8F91AF"/>
<path d="M319 496.253H318V491.266H319V496.253Z" fill="#8F91AF"/>
<path d="M1603 496.253H1602V491.266H1603V496.253Z" fill="#8F91AF"/>
<path d="M319 486.278H318V481.291H319V486.278Z" fill="#8F91AF"/>
<path d="M1603 486.278H1602V481.291H1603V486.278Z" fill="#8F91AF"/>
<path d="M319 476.304H318V471.316H319V476.304Z" fill="#8F91AF"/>
<path d="M1603 476.304H1602V471.316H1603V476.304Z" fill="#8F91AF"/>
<path d="M319 466.329H318V461.342H319V466.329Z" fill="#8F91AF"/>
<path d="M1603 466.329H1602V461.342H1603V466.329Z" fill="#8F91AF"/>
<path d="M319 456.354H318V451.366H319V456.354Z" fill="#8F91AF"/>
<path d="M1603 456.354H1602V451.367H1603V456.354Z" fill="#8F91AF"/>
<path d="M1603 446.38H1602V441.393H1603V446.38Z" fill="#8F91AF"/>
<path d="M319 446.379H318V441.392H319V446.379Z" fill="#8F91AF"/>
<path d="M1603 436.405H1602V431.418H1603V436.405Z" fill="#8F91AF"/>
<path d="M319 436.404H318V431.417H319V436.404Z" fill="#8F91AF"/>
<path d="M1603 426.431H1602V421.443H1603V426.431Z" fill="#8F91AF"/>
<path d="M319 426.43H318V421.442H319V426.43Z" fill="#8F91AF"/>
<path d="M1603 416.456H1602V411.469H1603V416.456Z" fill="#8F91AF"/>
<path d="M319 416.455H318V411.468H319V416.455Z" fill="#8F91AF"/>
<path d="M1603 394H1608V398.5H1610.52V399.5H1608V404H1603V406.481H1602V404H1598V394H1602V391.52H1603V394Z" fill="#8F91AF"/>
<path d="M319 394H323V404H319V406.48H318V404H313V394H318V391.519H319V394Z" fill="#8F91AF"/>
<path d="M2.5166 399.5H0V398.5H2.5166V399.5Z" fill="#8F91AF"/>
<path d="M12.5811 399.5H7.54883V398.5H12.5811V399.5Z" fill="#8F91AF"/>
<path d="M22.6455 399.5H17.6133V398.5H22.6455V399.5Z" fill="#8F91AF"/>
<path d="M32.71 399.5H27.6777V398.5H32.71V399.5Z" fill="#8F91AF"/>
<path d="M42.7744 399.5H37.7422V398.5H42.7744V399.5Z" fill="#8F91AF"/>
<path d="M52.8389 399.5H47.8066V398.5H52.8389V399.5Z" fill="#8F91AF"/>
<path d="M62.9033 399.5H57.8711V398.5H62.9033V399.5Z" fill="#8F91AF"/>
<path d="M72.9678 399.5H67.9355V398.5H72.9678V399.5Z" fill="#8F91AF"/>
<path d="M83.0322 399.5H78V398.5H83.0322V399.5Z" fill="#8F91AF"/>
<path d="M93.0967 399.5H88.0645V398.5H93.0967V399.5Z" fill="#8F91AF"/>
<path d="M103.161 399.5H98.1289V398.5H103.161V399.5Z" fill="#8F91AF"/>
<path d="M113.226 399.5H108.193V398.5H113.226V399.5Z" fill="#8F91AF"/>
<path d="M123.29 399.5H118.258V398.5H123.29V399.5Z" fill="#8F91AF"/>
<path d="M133.354 399.5H128.322V398.5H133.354V399.5Z" fill="#8F91AF"/>
<path d="M143.419 399.5H138.387V398.5H143.419V399.5Z" fill="#8F91AF"/>
<path d="M153.483 399.5H148.451V398.5H153.483V399.5Z" fill="#8F91AF"/>
<path d="M163.549 399.5H158.516V398.5H163.549V399.5Z" fill="#8F91AF"/>
<path d="M173.613 399.5H168.581V398.5H173.613V399.5Z" fill="#8F91AF"/>
<path d="M183.678 399.5H178.646V398.5H183.678V399.5Z" fill="#8F91AF"/>
<path d="M193.742 399.5H188.71V398.5H193.742V399.5Z" fill="#8F91AF"/>
<path d="M203.807 399.5H198.774V398.5H203.807V399.5Z" fill="#8F91AF"/>
<path d="M213.871 399.5H208.839V398.5H213.871V399.5Z" fill="#8F91AF"/>
<path d="M223.936 399.5H218.903V398.5H223.936V399.5Z" fill="#8F91AF"/>
<path d="M234 399.5H228.968V398.5H234V399.5Z" fill="#8F91AF"/>
<path d="M244.064 399.5H239.032V398.5H244.064V399.5Z" fill="#8F91AF"/>
<path d="M254.129 399.5H249.097V398.5H254.129V399.5Z" fill="#8F91AF"/>
<path d="M264.193 399.5H259.161V398.5H264.193V399.5Z" fill="#8F91AF"/>
<path d="M274.258 399.5H269.226V398.5H274.258V399.5Z" fill="#8F91AF"/>
<path d="M284.322 399.5H279.29V398.5H284.322V399.5Z" fill="#8F91AF"/>
<path d="M294.387 399.5H289.354V398.5H294.387V399.5Z" fill="#8F91AF"/>
<path d="M304.451 399.5H299.419V398.5H304.451V399.5Z" fill="#8F91AF"/>
<path d="M312 399.5H309.483V398.5H312V399.5Z" fill="#8F91AF"/>
<path d="M1620.58 399.5H1615.55V398.5H1620.58V399.5Z" fill="#8F91AF"/>
<path d="M1630.65 399.5H1625.61V398.5H1630.65V399.5Z" fill="#8F91AF"/>
<path d="M1640.71 399.5H1635.68V398.5H1640.71V399.5Z" fill="#8F91AF"/>
<path d="M1650.77 399.5H1645.74V398.5H1650.77V399.5Z" fill="#8F91AF"/>
<path d="M1660.84 399.5H1655.81V398.5H1660.84V399.5Z" fill="#8F91AF"/>
<path d="M1670.9 399.5H1665.87V398.5H1670.9V399.5Z" fill="#8F91AF"/>
<path d="M1680.97 399.5H1675.94V398.5H1680.97V399.5Z" fill="#8F91AF"/>
<path d="M1691.03 399.5H1686V398.5H1691.03V399.5Z" fill="#8F91AF"/>
<path d="M1701.1 399.5H1696.06V398.5H1701.1V399.5Z" fill="#8F91AF"/>
<path d="M1711.16 399.5H1706.13V398.5H1711.16V399.5Z" fill="#8F91AF"/>
<path d="M1721.23 399.5H1716.19V398.5H1721.23V399.5Z" fill="#8F91AF"/>
<path d="M1731.29 399.5H1726.26V398.5H1731.29V399.5Z" fill="#8F91AF"/>
<path d="M1741.35 399.5H1736.32V398.5H1741.35V399.5Z" fill="#8F91AF"/>
<path d="M1751.42 399.5H1746.39V398.5H1751.42V399.5Z" fill="#8F91AF"/>
<path d="M1761.48 399.5H1756.45V398.5H1761.48V399.5Z" fill="#8F91AF"/>
<path d="M1771.55 399.5H1766.52V398.5H1771.55V399.5Z" fill="#8F91AF"/>
<path d="M1781.61 399.5H1776.58V398.5H1781.61V399.5Z" fill="#8F91AF"/>
<path d="M1791.68 399.5H1786.65V398.5H1791.68V399.5Z" fill="#8F91AF"/>
<path d="M1801.74 399.5H1796.71V398.5H1801.74V399.5Z" fill="#8F91AF"/>
<path d="M1811.81 399.5H1806.77V398.5H1811.81V399.5Z" fill="#8F91AF"/>
<path d="M1821.87 399.5H1816.84V398.5H1821.87V399.5Z" fill="#8F91AF"/>
<path d="M1831.94 399.5H1826.9V398.5H1831.94V399.5Z" fill="#8F91AF"/>
<path d="M1842 399.5H1836.97V398.5H1842V399.5Z" fill="#8F91AF"/>
<path d="M1852.06 399.5H1847.03V398.5H1852.06V399.5Z" fill="#8F91AF"/>
<path d="M1862.13 399.5H1857.1V398.5H1862.13V399.5Z" fill="#8F91AF"/>
<path d="M1872.19 399.5H1867.16V398.5H1872.19V399.5Z" fill="#8F91AF"/>
<path d="M1882.26 399.5H1877.23V398.5H1882.26V399.5Z" fill="#8F91AF"/>
<path d="M1892.32 399.5H1887.29V398.5H1892.32V399.5Z" fill="#8F91AF"/>
<path d="M1902.39 399.5H1897.35V398.5H1902.39V399.5Z" fill="#8F91AF"/>
<path d="M1912.45 399.5H1907.42V398.5H1912.45V399.5Z" fill="#8F91AF"/>
<path d="M1920 399.5H1917.48V398.5H1920V399.5Z" fill="#8F91AF"/>
<path d="M1603 386.532H1602V381.545H1603V386.532Z" fill="#8F91AF"/>
<path d="M319 386.531H318V381.544H319V386.531Z" fill="#8F91AF"/>
<path d="M1603 376.558H1602V371.57H1603V376.558Z" fill="#8F91AF"/>
<path d="M319 376.557H318V371.569H319V376.557Z" fill="#8F91AF"/>
<path d="M1603 366.583H1602V361.596H1603V366.583Z" fill="#8F91AF"/>
<path d="M319 366.582H318V361.595H319V366.582Z" fill="#8F91AF"/>
<path d="M1603 356.608H1602V351.621H1603V356.608Z" fill="#8F91AF"/>
<path d="M319 356.607H318V351.62H319V356.607Z" fill="#8F91AF"/>
<path d="M1603 346.634H1602V341.646H1603V346.634Z" fill="#8F91AF"/>
<path d="M319 346.633H318V341.646H319V346.633Z" fill="#8F91AF"/>
<path d="M319 336.658H318V331.671H319V336.658Z" fill="#8F91AF"/>
<path d="M1603 336.658H1602V331.671H1603V336.658Z" fill="#8F91AF"/>
<path d="M319 326.684H318V321.696H319V326.684Z" fill="#8F91AF"/>
<path d="M1603 326.684H1602V321.696H1603V326.684Z" fill="#8F91AF"/>
<path d="M319 316.709H318V311.722H319V316.709Z" fill="#8F91AF"/>
<path d="M1603 316.709H1602V311.722H1603V316.709Z" fill="#8F91AF"/>
<path d="M319 306.734H318V301.747H319V306.734Z" fill="#8F91AF"/>
<path d="M1603 306.734H1602V301.747H1603V306.734Z" fill="#8F91AF"/>
<path d="M319 296.76H318V291.771H319V296.76Z" fill="#8F91AF"/>
<path d="M1603 296.76H1602V291.772H1603V296.76Z" fill="#8F91AF"/>
<path d="M1603 286.785H1602V281.798H1603V286.785Z" fill="#8F91AF"/>
<path d="M319 286.784H318V281.797H319V286.784Z" fill="#8F91AF"/>
<path d="M1603 276.811H1602V271.823H1603V276.811Z" fill="#8F91AF"/>
<path d="M319 276.81H318V271.822H319V276.81Z" fill="#8F91AF"/>
<path d="M1603 266.836H1602V261.849H1603V266.836Z" fill="#8F91AF"/>
<path d="M319 266.835H318V261.848H319V266.835Z" fill="#8F91AF"/>
<path d="M1603 256.861H1602V251.874H1603V256.861Z" fill="#8F91AF"/>
<path d="M319 256.86H318V251.873H319V256.86Z" fill="#8F91AF"/>
<path d="M1603 246.887H1602V241.899H1603V246.887Z" fill="#8F91AF"/>
<path d="M319 246.886H318V241.898H319V246.886Z" fill="#8F91AF"/>
<path d="M1603 236.912H1602V231.924H1603V236.912Z" fill="#8F91AF"/>
<path d="M319 236.911H318V231.924H319V236.911Z" fill="#8F91AF"/>
<path d="M319 226.937H318V221.949H319V226.937Z" fill="#8F91AF"/>
<path d="M1603 226.937H1602V221.949H1603V226.937Z" fill="#8F91AF"/>
<path d="M319 216.962H318V211.975H319V216.962Z" fill="#8F91AF"/>
<path d="M1603 216.962H1602V211.975H1603V216.962Z" fill="#8F91AF"/>
<path d="M319 206.987H318V202H319V206.987Z" fill="#8F91AF"/>
<path d="M1603 206.987H1602V202H1603V206.987Z" fill="#8F91AF"/>
<path d="M319 197.013H318V192.025H319V197.013Z" fill="#8F91AF"/>
<path d="M1603 197.013H1602V192.025H1603V197.013Z" fill="#8F91AF"/>
<path d="M319 187.038H318V182.051H319V187.038Z" fill="#8F91AF"/>
<path d="M1603 187.038H1602V182.051H1603V187.038Z" fill="#8F91AF"/>
<path d="M319 177.063H318V172.076H319V177.063Z" fill="#8F91AF"/>
<path d="M1603 177.063H1602V172.076H1603V177.063Z" fill="#8F91AF"/>
<path d="M319 167.089H318V162.102H319V167.089Z" fill="#8F91AF"/>
<path d="M1603 167.089H1602V162.102H1603V167.089Z" fill="#8F91AF"/>
<path d="M319 157.114H318V152.127H319V157.114Z" fill="#8F91AF"/>
<path d="M1603 157.114H1602V152.126H1603V157.114Z" fill="#8F91AF"/>
<path d="M319 147.14H318V142.152H319V147.14Z" fill="#8F91AF"/>
<path d="M1603 147.139H1602V142.151H1603V147.139Z" fill="#8F91AF"/>
<path d="M319 137.165H318V132.177H319V137.165Z" fill="#8F91AF"/>
<path d="M1603 137.164H1602V132.177H1603V137.164Z" fill="#8F91AF"/>
<path d="M319 127.189H318V122.202H319V127.189Z" fill="#8F91AF"/>
<path d="M1603 127.189H1602V122.202H1603V127.189Z" fill="#8F91AF"/>
<path d="M319 117.215H318V112.228H319V117.215Z" fill="#8F91AF"/>
<path d="M1603 117.215H1602V112.228H1603V117.215Z" fill="#8F91AF"/>
<path d="M319 107.24H318V102.253H319V107.24Z" fill="#8F91AF"/>
<path d="M1603 107.24H1602V102.253H1603V107.24Z" fill="#8F91AF"/>
<path d="M319 97.2656H318V92.2783H319V97.2656Z" fill="#8F91AF"/>
<path d="M1603 97.2656H1602V92.2783H1603V97.2656Z" fill="#8F91AF"/>
<path d="M319 87.291H318V82.3037H319V87.291Z" fill="#8F91AF"/>
<path d="M1603 87.291H1602V82.3037H1603V87.291Z" fill="#8F91AF"/>
<path d="M319 77.3164H318V72.3291H319V77.3164Z" fill="#8F91AF"/>
<path d="M1603 77.3164H1602V72.3291H1603V77.3164Z" fill="#8F91AF"/>
<path d="M319 67.3418H318V62.3545H319V67.3418Z" fill="#8F91AF"/>
<path d="M1603 67.3408H1602V62.3535H1603V67.3408Z" fill="#8F91AF"/>
<path d="M319 57.3672H318V52.3799H319V57.3672Z" fill="#8F91AF"/>
<path d="M1603 57.3662H1602V52.3789H1603V57.3662Z" fill="#8F91AF"/>
<path d="M319 47.3926H318V42.4053H319V47.3926Z" fill="#8F91AF"/>
<path d="M1603 47.3916H1602V42.4043H1603V47.3916Z" fill="#8F91AF"/>
<path d="M319 37.418H318V32.4307H319V37.418Z" fill="#8F91AF"/>
<path d="M1603 37.417H1602V32.4297H1603V37.417Z" fill="#8F91AF"/>
<path d="M319 27.4434H318V22.4561H319V27.4434Z" fill="#8F91AF"/>
<path d="M1603 27.4424H1602V22.4551H1603V27.4424Z" fill="#8F91AF"/>
<path d="M319 17.4688H318V12.4814H319V17.4688Z" fill="#8F91AF"/>
<path d="M1603 17.4678H1602V12.4805H1603V17.4678Z" fill="#8F91AF"/>
<path d="M965 5H967.972V6H965V10H955V6H953.029V5H955V0H965V5Z" fill="#8F91AF"/>
<path d="M320.495 6H319V7.49414H318V5H320.495V6Z" fill="#8F91AF"/>
<path d="M1603 7.49316H1602V6H1600.51V5H1603V7.49316Z" fill="#8F91AF"/>
<path d="M330.456 6H325.476V5H330.456V6Z" fill="#8F91AF"/>
<path d="M340.417 6H335.437V5H340.417V6Z" fill="#8F91AF"/>
<path d="M350.378 6H345.397V5H350.378V6Z" fill="#8F91AF"/>
<path d="M360.34 6H355.358V5H360.34V6Z" fill="#8F91AF"/>
<path d="M370.301 6H365.32V5H370.301V6Z" fill="#8F91AF"/>
<path d="M380.262 6H375.281V5H380.262V6Z" fill="#8F91AF"/>
<path d="M390.223 6H385.242V5H390.223V6Z" fill="#8F91AF"/>
<path d="M400.185 6H395.204V5H400.185V6Z" fill="#8F91AF"/>
<path d="M410.146 6H405.165V5H410.146V6Z" fill="#8F91AF"/>
<path d="M420.106 6H415.126V5H420.106V6Z" fill="#8F91AF"/>
<path d="M430.067 6H425.087V5H430.067V6Z" fill="#8F91AF"/>
<path d="M440.029 6H435.048V5H440.029V6Z" fill="#8F91AF"/>
<path d="M449.99 6H445.01V5H449.99V6Z" fill="#8F91AF"/>
<path d="M459.951 6H454.971V5H459.951V6Z" fill="#8F91AF"/>
<path d="M469.912 6H464.932V5H469.912V6Z" fill="#8F91AF"/>
<path d="M479.874 6H474.893V5H479.874V6Z" fill="#8F91AF"/>
<path d="M489.835 6H484.854V5H489.835V6Z" fill="#8F91AF"/>
<path d="M499.796 6H494.815V5H499.796V6Z" fill="#8F91AF"/>
<path d="M509.757 6H504.776V5H509.757V6Z" fill="#8F91AF"/>
<path d="M519.719 6H514.738V5H519.719V6Z" fill="#8F91AF"/>
<path d="M529.68 6H524.699V5H529.68V6Z" fill="#8F91AF"/>
<path d="M539.641 6H534.66V5H539.641V6Z" fill="#8F91AF"/>
<path d="M549.602 6H544.621V5H549.602V6Z" fill="#8F91AF"/>
<path d="M559.563 6H554.583V5H559.563V6Z" fill="#8F91AF"/>
<path d="M569.524 6H564.544V5H569.524V6Z" fill="#8F91AF"/>
<path d="M579.485 6H574.505V5H579.485V6Z" fill="#8F91AF"/>
<path d="M589.446 6H584.466V5H589.446V6Z" fill="#8F91AF"/>
<path d="M599.408 6H594.427V5H599.408V6Z" fill="#8F91AF"/>
<path d="M609.369 6H604.389V5H609.369V6Z" fill="#8F91AF"/>
<path d="M619.33 6H614.35V5H619.33V6Z" fill="#8F91AF"/>
<path d="M629.291 6H624.311V5H629.291V6Z" fill="#8F91AF"/>
<path d="M639.253 6H634.272V5H639.253V6Z" fill="#8F91AF"/>
<path d="M649.214 6H644.233V5H649.214V6Z" fill="#8F91AF"/>
<path d="M659.175 6H654.194V5H659.175V6Z" fill="#8F91AF"/>
<path d="M669.136 6H664.155V5H669.136V6Z" fill="#8F91AF"/>
<path d="M679.098 6H674.117V5H679.098V6Z" fill="#8F91AF"/>
<path d="M689.059 6H684.078V5H689.059V6Z" fill="#8F91AF"/>
<path d="M699.02 6H694.039V5H699.02V6Z" fill="#8F91AF"/>
<path d="M708.98 6H704V5H708.98V6Z" fill="#8F91AF"/>
<path d="M718.942 6H713.961V5H718.942V6Z" fill="#8F91AF"/>
<path d="M728.903 6H723.923V5H728.903V6Z" fill="#8F91AF"/>
<path d="M738.864 6H733.884V5H738.864V6Z" fill="#8F91AF"/>
<path d="M748.825 6H743.845V5H748.825V6Z" fill="#8F91AF"/>
<path d="M758.787 6H753.807V5H758.787V6Z" fill="#8F91AF"/>
<path d="M768.748 6H763.768V5H768.748V6Z" fill="#8F91AF"/>
<path d="M778.709 6H773.729V5H778.709V6Z" fill="#8F91AF"/>
<path d="M788.67 6H783.689V5H788.67V6Z" fill="#8F91AF"/>
<path d="M798.632 6H793.651V5H798.632V6Z" fill="#8F91AF"/>
<path d="M808.593 6H803.612V5H808.593V6Z" fill="#8F91AF"/>
<path d="M818.554 6H813.573V5H818.554V6Z" fill="#8F91AF"/>
<path d="M828.515 6H823.534V5H828.515V6Z" fill="#8F91AF"/>
<path d="M838.477 6H833.495V5H838.477V6Z" fill="#8F91AF"/>
<path d="M848.438 6H843.457V5H848.438V6Z" fill="#8F91AF"/>
<path d="M858.398 6H853.418V5H858.398V6Z" fill="#8F91AF"/>
<path d="M868.359 6H863.379V5H868.359V6Z" fill="#8F91AF"/>
<path d="M878.321 6H873.34V5H878.321V6Z" fill="#8F91AF"/>
<path d="M888.282 6H883.302V5H888.282V6Z" fill="#8F91AF"/>
<path d="M898.243 6H893.263V5H898.243V6Z" fill="#8F91AF"/>
<path d="M908.204 6H903.224V5H908.204V6Z" fill="#8F91AF"/>
<path d="M918.166 6H913.186V5H918.166V6Z" fill="#8F91AF"/>
<path d="M928.127 6H923.146V5H928.127V6Z" fill="#8F91AF"/>
<path d="M938.088 6H933.107V5H938.088V6Z" fill="#8F91AF"/>
<path d="M948.049 6H943.068V5H948.049V6Z" fill="#8F91AF"/>
<path d="M977.933 6H972.952V5H977.933V6Z" fill="#8F91AF"/>
<path d="M987.894 6H982.913V5H987.894V6Z" fill="#8F91AF"/>
<path d="M997.855 6H992.874V5H997.855V6Z" fill="#8F91AF"/>
<path d="M1007.82 6H1002.84V5H1007.82V6Z" fill="#8F91AF"/>
<path d="M1017.78 6H1012.8V5H1017.78V6Z" fill="#8F91AF"/>
<path d="M1027.74 6H1022.76V5H1027.74V6Z" fill="#8F91AF"/>
<path d="M1037.7 6H1032.72V5H1037.7V6Z" fill="#8F91AF"/>
<path d="M1047.66 6H1042.68V5H1047.66V6Z" fill="#8F91AF"/>
<path d="M1057.62 6H1052.64V5H1057.62V6Z" fill="#8F91AF"/>
<path d="M1067.58 6H1062.6V5H1067.58V6Z" fill="#8F91AF"/>
<path d="M1077.54 6H1072.56V5H1077.54V6Z" fill="#8F91AF"/>
<path d="M1087.51 6H1082.53V5H1087.51V6Z" fill="#8F91AF"/>
<path d="M1097.47 6H1092.49V5H1097.47V6Z" fill="#8F91AF"/>
<path d="M1107.43 6H1102.45V5H1107.43V6Z" fill="#8F91AF"/>
<path d="M1117.39 6H1112.41V5H1117.39V6Z" fill="#8F91AF"/>
<path d="M1127.35 6H1122.37V5H1127.35V6Z" fill="#8F91AF"/>
<path d="M1137.31 6H1132.33V5H1137.31V6Z" fill="#8F91AF"/>
<path d="M1147.27 6H1142.29V5H1147.27V6Z" fill="#8F91AF"/>
<path d="M1157.23 6H1152.25V5H1157.23V6Z" fill="#8F91AF"/>
<path d="M1167.2 6H1162.21V5H1167.2V6Z" fill="#8F91AF"/>
<path d="M1177.16 6H1172.18V5H1177.16V6Z" fill="#8F91AF"/>
<path d="M1187.12 6H1182.14V5H1187.12V6Z" fill="#8F91AF"/>
<path d="M1197.08 6H1192.1V5H1197.08V6Z" fill="#8F91AF"/>
<path d="M1207.04 6H1202.06V5H1207.04V6Z" fill="#8F91AF"/>
<path d="M1217 6H1212.02V5H1217V6Z" fill="#8F91AF"/>
<path d="M1226.96 6H1221.98V5H1226.96V6Z" fill="#8F91AF"/>
<path d="M1236.92 6H1231.94V5H1236.92V6Z" fill="#8F91AF"/>
<path d="M1246.89 6H1241.91V5H1246.89V6Z" fill="#8F91AF"/>
<path d="M1256.85 6H1251.87V5H1256.85V6Z" fill="#8F91AF"/>
<path d="M1266.81 6H1261.83V5H1266.81V6Z" fill="#8F91AF"/>
<path d="M1276.77 6H1271.79V5H1276.77V6Z" fill="#8F91AF"/>
<path d="M1286.73 6H1281.75V5H1286.73V6Z" fill="#8F91AF"/>
<path d="M1296.69 6H1291.71V5H1296.69V6Z" fill="#8F91AF"/>
<path d="M1306.65 6H1301.67V5H1306.65V6Z" fill="#8F91AF"/>
<path d="M1316.61 6H1311.63V5H1316.61V6Z" fill="#8F91AF"/>
<path d="M1326.58 6H1321.59V5H1326.58V6Z" fill="#8F91AF"/>
<path d="M1336.54 6H1331.56V5H1336.54V6Z" fill="#8F91AF"/>
<path d="M1346.5 6H1341.52V5H1346.5V6Z" fill="#8F91AF"/>
<path d="M1356.46 6H1351.48V5H1356.46V6Z" fill="#8F91AF"/>
<path d="M1366.42 6H1361.44V5H1366.42V6Z" fill="#8F91AF"/>
<path d="M1376.38 6H1371.4V5H1376.38V6Z" fill="#8F91AF"/>
<path d="M1386.34 6H1381.36V5H1386.34V6Z" fill="#8F91AF"/>
<path d="M1396.3 6H1391.32V5H1396.3V6Z" fill="#8F91AF"/>
<path d="M1406.27 6H1401.29V5H1406.27V6Z" fill="#8F91AF"/>
<path d="M1416.23 6H1411.25V5H1416.23V6Z" fill="#8F91AF"/>
<path d="M1426.19 6H1421.21V5H1426.19V6Z" fill="#8F91AF"/>
<path d="M1436.15 6H1431.17V5H1436.15V6Z" fill="#8F91AF"/>
<path d="M1446.11 6H1441.13V5H1446.11V6Z" fill="#8F91AF"/>
<path d="M1456.07 6H1451.09V5H1456.07V6Z" fill="#8F91AF"/>
<path d="M1466.03 6H1461.05V5H1466.03V6Z" fill="#8F91AF"/>
<path d="M1475.99 6H1471.01V5H1475.99V6Z" fill="#8F91AF"/>
<path d="M1485.96 6H1480.97V5H1485.96V6Z" fill="#8F91AF"/>
<path d="M1495.92 6H1490.94V5H1495.92V6Z" fill="#8F91AF"/>
<path d="M1505.88 6H1500.9V5H1505.88V6Z" fill="#8F91AF"/>
<path d="M1515.84 6H1510.86V5H1515.84V6Z" fill="#8F91AF"/>
<path d="M1525.8 6H1520.82V5H1525.8V6Z" fill="#8F91AF"/>
<path d="M1535.76 6H1530.78V5H1535.76V6Z" fill="#8F91AF"/>
<path d="M1545.72 6H1540.74V5H1545.72V6Z" fill="#8F91AF"/>
<path d="M1555.68 6H1550.7V5H1555.68V6Z" fill="#8F91AF"/>
<path d="M1565.65 6H1560.67V5H1565.65V6Z" fill="#8F91AF"/>
<path d="M1575.61 6H1570.63V5H1575.61V6Z" fill="#8F91AF"/>
<path d="M1585.57 6H1580.59V5H1585.57V6Z" fill="#8F91AF"/>
<path d="M1595.53 6H1590.55V5H1595.53V6Z" fill="#8F91AF"/>
</svg>
